SplineFontDB: 3.0
FontName: Chivo-Black
FullName: Chivo Black
FamilyName: Chivo
Weight: Black
Copyright: Copyright (c) 2011 by Omnibus-Type (www.omnibus-type.com), with Reserved Font Name "Chivo".
Version: 1.001
ItalicAngle: 0
UnderlinePosition: -34
UnderlineWidth: 62
Ascent: 800
Descent: 200
sfntRevision: 0x00010042
LayerCount: 2
Layer: 0 1 "Back"  1
Layer: 1 1 "Fore"  0
XUID: [1021 288 713564382 5675280]
FSType: 0
OS2Version: 3
OS2_WeightWidthSlopeOnly: 0
OS2_UseTypoMetrics: 1
CreationTime: 1311717240
ModificationTime: 1316794042
PfmFamily: 33
TTFWeight: 900
TTFWidth: 5
LineGap: 0
VLineGap: 0
Panose: 2 0 10 5 9 0 0 2 0 4
OS2TypoAscent: 137
OS2TypoAOffset: 1
OS2TypoDescent: 1
OS2TypoDOffset: 1
OS2TypoLinegap: 0
OS2WinAscent: 0
OS2WinAOffset: 1
OS2WinDescent: -51
OS2WinDOffset: 1
HheadAscent: 0
HheadAOffset: 1
HheadDescent: 51
HheadDOffset: 1
OS2SubXSize: 700
OS2SubYSize: 650
OS2SubXOff: 0
OS2SubYOff: 140
OS2SupXSize: 700
OS2SupYSize: 650
OS2SupXOff: 0
OS2SupYOff: 477
OS2StrikeYSize: 50
OS2StrikeYPos: 250
OS2FamilyClass: 2054
OS2Vendor: '    '
OS2CodePages: 00000001.00000000
OS2UnicodeRanges: 00000001.00000000.00000000.00000000
Lookup: 258 0 0 "'kern' Horizontal Kerning in Latin lookup 0"  {"'kern' Horizontal Kerning in Latin lookup 0 per glyph data 0"  "'kern' Horizontal Kerning in Latin lookup 0 per glyph data 1"  "'kern' Horizontal Kerning in Latin lookup 0 kerning class 2"  } ['kern' ('latn' <'dflt' > ) ]
MarkAttachClasses: 1
DEI: 91125
KernClass2: 29+ 26 "'kern' Horizontal Kerning in Latin lookup 0 kerning class 2" 
 50 A Agrave Aacute Acircumflex Atilde Adieresis Aring
 10 C Ccedilla
 5 D Eth
 43 E AE Egrave Eacute Ecircumflex Edieresis OE
 12 H M N Ntilde
 37 I Igrave Iacute Icircumflex Idieresis
 8 L Lslash
 53 O Q Ograve Oacute Ocircumflex Otilde Odieresis Oslash
 8 S Scaron
 37 U Ugrave Uacute Ucircumflex Udieresis
 18 Y Yacute Ydieresis
 8 Z Zcaron
 50 a agrave aacute acircumflex atilde adieresis aring
 9 b p thorn
 10 c ccedilla
 15 colon semicolon

StartChar: .notdef
Encoding: 65536 -1 0
Width: 500
Flags: W
HStem: 0 50<80 420> 650 50<80 420>
VStem: 0 50<95 605> 450 50<95 605>
LayerCount: 2
Fore
SplineSet
0 0 m 1,0,-1
 0 700 l 1,1,-1
 500 700 l 1,2,-1
 500 0 l 1,3,-1
 0 0 l 1,0,-1
50 95 m 1,4,-1
 220 350 l 1,5,-1
 50 605 l 1,6,-1
 50 95 l 1,4,-1
80 50 m 1,7,-1
 420 50 l 1,8,-1
 250 305 l 1,9,-1
 80 50 l 1,7,-1
80 650 m 1,10,-1
 250 395 l 1,11,-1
 420 650 l 1,12,-1
 80 650 l 1,10,-1
280 350 m 1,13,-1
 450 95 l 1,14,-1
 450 605 l 1,15,-1
 280 350 l 1,13,-1
EndSplineSet
EndChar

StartChar: exclam
Encoding: 33 33 4
Width: 311
GlyphClass: 2
Flags: W
HStem: 0 183<61 252> 666 20G<37 275>
VStem: 61 191<0 183> 91 127<231 286.877>
LayerCount: 2
Fore
SplineSet
37 686 m 1,0,-1
 275 686 l 1,1,-1
 218 231 l 1,2,-1
 91 231 l 1,3,-1
 37 686 l 1,0,-1
61 0 m 1,4,-1
 61 183 l 1,5,-1
 252 183 l 1,6,-1
 252 0 l 1,7,-1
 61 0 l 1,4,-1
EndSplineSet
EndChar

StartChar: quotedbl
Encoding: 34 34 5
Width: 434
GlyphClass: 2
Flags: W
HStem: 396 290<85 146 288 348>
VStem: 38 155<517.702 686> 241 155<539 686>
LayerCount: 2
Fore
SplineSet
38 539 m 1,0,-1
 38 686 l 1,1,-1
 193 686 l 1,2,-1
 193 539 l 1,3,-1
 146 396 l 1,4,-1
 85 396 l 1,5,-1
 38 539 l 1,0,-1
241 539 m 1,6,-1
 241 686 l 1,7,-1
 396 686 l 1,8,-1
 396 539 l 1,9,-1
 348 396 l 1,10,-1
 288 396 l 1,11,-1
 241 539 l 1,6,-1
EndSplineSet
EndChar

StartChar: numbersign
Encoding: 35 35 6
Width: 662
GlyphClass: 2
Flags: W
HStem: 0 21G<90 211.217 318 438.337> 166 107<27 125 266 354 497 601> 394 108<72 178 317 407 542 633>
LayerCount: 2
Fore
SplineSet
27 166 m 1,0,-1
 27 273 l 1,1,-1
 150 273 l 1,2,-1
 178 394 l 1,3,-1
 72 394 l 1,4,-1
 72 502 l 1,5,-1
 199 502 l 1,6,-1
 242 696 l 1,7,-1
 361 696 l 1,8,-1
 317 502 l 1,9,-1
 427 502 l 1,10,-1
 470 696 l 1,11,-1
 587 696 l 1,12,-1
 542 502 l 1,13,-1
 633 502 l 1,14,-1
 633 394 l 1,15,-1
 523 394 l 1,16,-1
 497 273 l 1,17,-1
 601 273 l 1,18,-1
 601 166 l 1,19,-1
 470 166 l 1,20,-1
 434 0 l 1,21,-1
 318 0 l 1,22,-1
 354 166 l 1,23,-1
 242 166 l 1,24,-1
 207 0 l 1,25,-1
 90 0 l 1,26,-1
 125 166 l 1,27,-1
 27 166 l 1,0,-1
266 272 m 1,28,-1
 379 272 l 1,29,-1
 407 393 l 1,30,-1
 293 393 l 1,31,-1
 266 272 l 1,28,-1
EndSplineSet
EndChar

StartChar: dollar
Encoding: 36 36 7
Width: 600
GlyphClass: 2
Flags: W
HStem: -66 235<242.703 339.27> 534 223<252.083 339.756>
VStem: 42 191<435.766 523.675> 373 195<186.088 271.25>
LayerCount: 2
Fore
SplineSet
28 224 m 2,0,-1
 28 234 l 2,1,2
 28 240 28 240 29 246 c 1,3,-1
 204 246 l 1,4,-1
 203 235 l 1,5,6
 203 169 203 169 287 169 c 0,7,8
 334.7 169 334.7 169 350.85 177.5 c 128,-1,9
 367 186 367 186 370 193 c 128,-1,10
 373 200 373 200 373 208 c 0,11,12
 373 231 373 231 348.5 242 c 128,-1,13
 324 253 324 253 287 262 c 2,14,-1
 208 280 l 1,15,16
 110.665673864 304.899478779 110.665673864 304.899478779 66.5 372.5 c 0,17,18
 42 410 42 410 42 462.5 c 128,-1,19
 42 515 42 515 57 549 c 128,-1,20
 72 583 72 583 99 608 c 0,21,22
 153.73932092 658.684556407 153.73932092 658.684556407 242 671 c 1,23,-1
 227 757 l 1,24,-1
 355 757 l 1,25,-1
 340 674 l 1,26,27
 491.664984864 660.518668012 491.664984864 660.518668012 539.5 560.5 c 0,28,29
 556 526 556 526 556 480 c 2,30,-1
 556 469 l 1,31,-1
 383 469 l 1,32,-1
 383 473 l 2,33,34
 383 496 383 496 366 515 c 128,-1,35
 349 534 349 534 309.5 534 c 128,-1,36
 270 534 270 534 251.5 523 c 128,-1,37
 233 512 233 512 233 492 c 128,-1,38
 233 472 233 472 258 460 c 128,-1,39
 283 448 283 448 320 440 c 1,40,-1
 400 420 l 1,41,42
 497.379844961 397.868217054 497.379844961 397.868217054 543 334 c 0,43,44
 568 299 568 299 568 243.5 c 128,-1,45
 568 188 568 188 552 148.5 c 128,-1,46
 536 109 536 109 506 82 c 0,47,48
 447.401869159 29.261682243 447.401869159 29.261682243 340 21 c 1,49,-1
 355 -66 l 1,50,-1
 227 -66 l 1,51,-1
 242 22 l 1,52,53
 94.1814488829 38.7975626269 94.1814488829 38.7975626269 45 141.5 c 0,54,55
 28 177 28 177 28 224 c 2,0,-1
EndSplineSet
EndChar

StartChar: percent
Encoding: 37 37 8
Width: 713
GlyphClass: 2
Flags: W
HStem: -1 72<525.345 577.171> 277 71<525.345 577.171> 337 72<135.345 187.171> 614 71<135.345 187.171>
VStem: 27 97<420.345 602.655> 198 98<420.345 602.655> 417 97<82.8605 265.139> 588 98<82.8605 265.139>
LayerCount: 2
Fore
SplineSet
27 460 m 2,0,-1
 27 562 l 2,1,2
 27 613 27 613 63 649 c 128,-1,3
 99 685 99 685 150 685 c 2,4,-1
 172 685 l 2,5,6
 224.558823529 685 224.558823529 685 259.5 649 c 0,7,8
 296 611.393939394 296 611.393939394 296 562 c 2,9,-1
 296 460 l 2,10,11
 296 410.606060606 296 410.606060606 259.5 373 c 0,12,13
 224.558823529 337 224.558823529 337 172 337 c 2,14,-1
 150 337 l 2,15,16
 99 337 99 337 63 373 c 128,-1,17
 27 409 27 409 27 460 c 2,0,-1
100 0 m 1,18,-1
 519 686 l 1,19,-1
 612 686 l 1,20,-1
 195 0 l 1,21,-1
 100 0 l 1,18,-1
124 448 m 2,22,23
 124 431 124 431 135 420 c 128,-1,24
 146 409 146 409 161.5 409 c 128,-1,25
 177 409 177 409 187.5 420 c 128,-1,26
 198 431 198 431 198 448 c 2,27,-1
 198 575 l 2,28,29
 198 592 198 592 187.5 603 c 128,-1,30
 177 614 177 614 161.5 614 c 128,-1,31
 146 614 146 614 135 603 c 128,-1,32
 124 592 124 592 124 575 c 2,33,-1
 124 448 l 2,22,23
417 123 m 2,34,-1
 417 225 l 2,35,36
 417 276 417 276 453 312 c 128,-1,37
 489 348 489 348 540 348 c 2,38,-1
 562 348 l 2,39,40
 614.558823529 348 614.558823529 348 649.5 312 c 0,41,42
 686 274.393939394 686 274.393939394 686 225 c 2,43,-1
 686 123 l 2,44,45
 686 72 686 72 649.5 35.5 c 128,-1,46
 613 -1 613 -1 562 -1 c 2,47,-1
 540 -1 l 2,48,49
 490.606060606 -1 490.606060606 -1 453 35.5 c 0,50,51
 417 70.4411764706 417 70.4411764706 417 123 c 2,34,-1
514 110 m 2,52,53
 514 94 514 94 525 82.5 c 128,-1,54
 536 71 536 71 551.5 71 c 128,-1,55
 567 71 567 71 577.5 82.5 c 128,-1,56
 588 94 588 94 588 110 c 2,57,-1
 588 237 l 2,58,59
 588 254 588 254 577.5 265.5 c 128,-1,60
 567 277 567 277 551.5 277 c 128,-1,61
 536 277 536 277 525 265.5 c 128,-1,62
 514 254 514 254 514 237 c 2,63,-1
 514 110 l 2,52,53
EndSplineSet
EndChar

StartChar: ampersand
Encoding: 38 38 9
Width: 729
GlyphClass: 2
Flags: W
HStem: 0 138<253.814 421> 279 142<259.27 421 619 699> 548 148<260.156 345>
VStem: 28 199<159.191 254.581> 49 194<443.54 531.193> 421 198<138 279>
LayerCount: 2
Fore
SplineSet
28 197 m 0,0,1
 28 321.1 28 321.1 151 358 c 1,2,3
 101 374 101 374 75 414.5 c 128,-1,4
 49 455 49 455 49 504 c 128,-1,5
 49 553 49 553 73 593.5 c 128,-1,6
 97 634 97 634 133.5 655.5 c 0,7,8
 202.255813953 696 202.255813953 696 295 696 c 0,9,10
 321 696 321 696 345 693 c 1,11,-1
 345 543 l 1,12,13
 330 548 330 548 308.5 548 c 128,-1,14
 287 548 287 548 265 531.5 c 128,-1,15
 243 515 243 515 243 484 c 0,16,17
 243 463.333333333 243 463.333333333 254 448.666666667 c 0,18,19
 274.75 421 274.75 421 307 421 c 2,20,-1
 428 421 l 1,21,-1
 482 540 l 1,22,-1
 619 540 l 1,23,-1
 619 421 l 1,24,-1
 699 421 l 1,25,-1
 699 279 l 1,26,-1
 619 279 l 1,27,-1
 619 0 l 1,28,-1
 300 0 l 2,29,30
 112.131578947 0 112.131578947 0 51 101 c 0,31,32
 28 139 28 139 28 197 c 0,0,1
253 155.5 m 128,-1,34
 279 138 279 138 312 138 c 2,35,-1
 421 138 l 1,36,-1
 421 279 l 1,37,-1
 307 279 l 2,38,39
 264.272727273 279 264.272727273 279 243 253 c 0,40,41
 227 233.444444444 227 233.444444444 227 203.222222222 c 128,-1,33
 227 173 227 173 253 155.5 c 128,-1,34
EndSplineSet
EndChar

StartChar: quotesingle
Encoding: 39 39 10
Width: 231
GlyphClass: 2
Flags: W
HStem: 396 290<85 146>
VStem: 38 155<517.702 686>
LayerCount: 2
Fore
SplineSet
38 539 m 1,0,-1
 38 686 l 1,1,-1
 193 686 l 1,2,-1
 193 539 l 1,3,-1
 146 396 l 1,4,-1
 85 396 l 1,5,-1
 38 539 l 1,0,-1
EndSplineSet
EndChar

StartChar: parenleft
Encoding: 40 40 11
Width: 313
GlyphClass: 2
Flags: W
HStem: 666 20G<150.5 297>
VStem: 30 156<99.7561 426.794>
LayerCount: 2
Fore
SplineSet
30 264 m 256,0,1
 30 381 30 381 71 489.5 c 128,-1,2
 112 598 112 598 189 686 c 1,3,-1
 297 686 l 1,4,5
 219.519083969 549.633587786 219.519083969 549.633587786 194 371 c 0,6,7
 186 315 186 315 186 265 c 256,8,9
 186 107.341463415 186 107.341463415 251.5 -62 c 0,10,11
 272 -115 272 -115 297 -158 c 1,12,-1
 189 -158 l 1,13,14
 112 -70 112 -70 71 38.5 c 128,-1,15
 30 147 30 147 30 264 c 256,0,1
EndSplineSet
EndChar

StartChar: parenright
Encoding: 41 41 12
Width: 313
GlyphClass: 2
Flags: W
HStem: 666 20G<16 162.5>
VStem: 127 156<101.291 429.277>
LayerCount: 2
Fore
SplineSet
16 -158 m 1,0,1
 92.5151515152 -26.3939393939 92.5151515152 -26.3939393939 119 159 c 0,2,3
 127 215 127 215 127 265 c 256,4,5
 127 423.853658537 127 423.853658537 61.5 590 c 0,6,7
 41 642 41 642 16 686 c 1,8,-1
 124 686 l 1,9,10
 201 598 201 598 242 489.5 c 128,-1,11
 283 381 283 381 283 264 c 256,12,13
 283 147 283 147 242 38.5 c 128,-1,14
 201 -70 201 -70 124 -158 c 1,15,-1
 16 -158 l 1,0,1
EndSplineSet
EndChar

StartChar: asterisk
Encoding: 42 42 13
Width: 506
GlyphClass: 2
Flags: W
HStem: 666 20G<192 312>
LayerCount: 2
Fore
SplineSet
26 483 m 1,0,-1
 65 593 l 1,1,-1
 205 533 l 1,2,-1
 192 686 l 1,3,-1
 312 686 l 1,4,-1
 297 533 l 1,5,-1
 445 593 l 1,6,-1
 480 483 l 1,7,-1
 330 448 l 1,8,-1
 430 335 l 1,9,-1
 330 265 l 1,10,-1
 251 396 l 1,11,-1
 173 265 l 1,12,-1
 73 335 l 1,13,-1
 173 448 l 1,14,-1
 26 483 l 1,0,-1
EndSplineSet
EndChar

StartChar: plus
Encoding: 43 43 14
Width: 615
GlyphClass: 2
Flags: W
HStem: 0 21G<243 371> 192 128<51 243 371 563> 492 20G<243 371>
VStem: 243 128<0 192 320 512>
LayerCount: 2
Fore
SplineSet
51 192 m 1,0,-1
 51 320 l 1,1,-1
 243 320 l 1,2,-1
 243 512 l 1,3,-1
 371 512 l 1,4,-1
 371 320 l 1,5,-1
 563 320 l 1,6,-1
 563 192 l 1,7,-1
 371 192 l 1,8,-1
 371 0 l 1,9,-1
 243 0 l 1,10,-1
 243 192 l 1,11,-1
 51 192 l 1,0,-1
EndSplineSet
EndChar

StartChar: comma
Encoding: 44 44 15
Width: 287
GlyphClass: 2
Flags: W
VStem: 48 191<0 183>
LayerCount: 2
Fore
SplineSet
48 0 m 1,0,-1
 48 183 l 1,1,-1
 239 183 l 1,2,-1
 239 22 l 1,3,-1
 189 -165 l 1,4,-1
 95 -165 l 1,5,-1
 132 0 l 1,6,-1
 48 0 l 1,0,-1
EndSplineSet
EndChar

StartChar: hyphen
Encoding: 45 45 16
Width: 352
GlyphClass: 2
Flags: W
HStem: 196 158<49 303>
VStem: 49 254<196 354>
LayerCount: 2
Fore
SplineSet
49 196 m 1,0,-1
 49 354 l 1,1,-1
 303 354 l 1,2,-1
 303 196 l 1,3,-1
 49 196 l 1,0,-1
EndSplineSet
EndChar

StartChar: period
Encoding: 46 46 17
Width: 287
GlyphClass: 2
Flags: W
HStem: 0 183<48 239>
VStem: 48 191<0 183>
LayerCount: 2
Fore
SplineSet
48 0 m 1,0,-1
 48 183 l 1,1,-1
 239 183 l 1,2,-1
 239 0 l 1,3,-1
 48 0 l 1,0,-1
EndSplineSet
EndChar

StartChar: slash
Encoding: 47 47 18
Width: 652
GlyphClass: 2
Flags: W
HStem: 666 20G<494.565 637>
LayerCount: 2
Fore
SplineSet
16 -171 m 1,0,-1
 506 686 l 1,1,-1
 637 686 l 1,2,-1
 148 -171 l 1,3,-1
 16 -171 l 1,0,-1
EndSplineSet
EndChar

StartChar: zero
Encoding: 48 48 19
Width: 615
GlyphClass: 2
Flags: W
HStem: -10 145<256.538 358.462> 552 144<256.538 358.462>
VStem: 35 198<160.616 527.763> 382 198<160.616 527.763>
LayerCount: 2
Fore
SplineSet
35 240 m 2,0,-1
 35 446 l 2,1,2
 35 550 35 550 108 623 c 128,-1,3
 181 696 181 696 285 696 c 2,4,-1
 330 696 l 2,5,6
 434 696 434 696 507 623 c 128,-1,7
 580 550 580 550 580 446 c 2,8,-1
 580 240 l 2,9,10
 580 136 580 136 507 63 c 128,-1,11
 434 -10 434 -10 330 -10 c 2,12,-1
 285 -10 l 2,13,14
 181 -10 181 -10 108 63 c 128,-1,15
 35 136 35 136 35 240 c 2,0,-1
233 215 m 2,16,17
 233 182 233 182 254.5 158.5 c 128,-1,18
 276 135 276 135 307.5 135 c 128,-1,19
 339 135 339 135 360.5 158.5 c 128,-1,20
 382 182 382 182 382 215 c 2,21,-1
 382 472 l 2,22,23
 382 505 382 505 360.5 528.5 c 128,-1,24
 339 552 339 552 307.5 552 c 128,-1,25
 276 552 276 552 254.5 528.5 c 128,-1,26
 233 505 233 505 233 472 c 2,27,-1
 233 215 l 2,16,17
EndSplineSet
EndChar

StartChar: one
Encoding: 49 49 20
Width: 615
GlyphClass: 2
Flags: W
HStem: 0 153<73 225 421 567> 473 115<73 180.103>
VStem: 225 196<153 473>
LayerCount: 2
Fore
SplineSet
73 0 m 1,0,-1
 73 153 l 1,1,-1
 225 153 l 1,2,-1
 225 473 l 1,3,-1
 73 473 l 1,4,-1
 73 588 l 1,5,6
 171.11634349 593.94644506 171.11634349 593.94644506 291.5 658.5 c 0,7,8
 326 677 326 677 354 696 c 1,9,-1
 421 696 l 1,10,-1
 421 153 l 1,11,-1
 567 153 l 1,12,-1
 567 0 l 1,13,-1
 73 0 l 1,0,-1
EndSplineSet
EndChar

StartChar: two
Encoding: 50 50 21
Width: 615
GlyphClass: 2
Flags: W
HStem: 0 168<307 570> 540 156<235.143 345.857>
VStem: 367 202<399.292 519.738>
LayerCount: 2
Fore
SplineSet
35 0 m 1,0,-1
 35 36 l 2,1,2
 35 93 35 93 52.5 133.5 c 128,-1,3
 70 174 70 174 115 209 c 2,4,-1
 313 365 l 2,5,6
 367 407.827586207 367 407.827586207 367 470 c 0,7,8
 367 499 367 499 346.5 519.5 c 128,-1,9
 326 540 326 540 297 540 c 2,10,-1
 284 540 l 2,11,12
 255 540 255 540 234.5 520 c 128,-1,13
 214 500 214 500 214 470 c 2,14,-1
 214 442 l 1,15,-1
 38 442 l 1,16,-1
 38 461 l 2,17,18
 38 563.046153846 38 563.046153846 104.5 627.5 c 0,19,20
 175.174603175 696 175.174603175 696 293 696 c 2,21,-1
 324 696 l 2,22,23
 434.203389831 696 434.203389831 696 502 633.5 c 0,24,25
 569 571.734375 569 571.734375 569 474 c 0,26,27
 569 422 569 422 551 384 c 0,28,29
 518.312 314.992 518.312 314.992 416 244 c 2,30,-1
 307 168 l 1,31,-1
 570 168 l 1,32,-1
 570 0 l 1,33,-1
 35 0 l 1,0,-1
EndSplineSet
EndChar

StartChar: three
Encoding: 51 51 22
Width: 615
GlyphClass: 2
Flags: W
HStem: -10 149<217.599 364.37> 289 123<211 347.857> 547 149<232.143 347.857>
VStem: 369 195<429.584 528.481> 385 199<160.113 271.134>
LayerCount: 2
Fore
SplineSet
22 188 m 2,0,-1
 22 209 l 1,1,-1
 198 209 l 1,2,3
 198 180 198 180 217 159.5 c 128,-1,4
 236 139 236 139 278 139 c 2,5,-1
 305 139 l 2,6,7
 345 139 345 139 365 160.5 c 128,-1,8
 385 182 385 182 385 218 c 128,-1,9
 385 254 385 254 364.5 271.5 c 128,-1,10
 344 289 344 289 315 289 c 2,11,-1
 211 289 l 1,12,-1
 211 412 l 1,13,-1
 299 412 l 2,14,15
 328 412 328 412 348.5 429.5 c 128,-1,16
 369 447 369 447 369 478.5 c 128,-1,17
 369 510 369 510 348.5 528.5 c 128,-1,18
 328 547 328 547 299 547 c 2,19,-1
 281 547 l 2,20,21
 252 547 252 547 231.5 528.5 c 128,-1,22
 211 510 211 510 211 484 c 1,23,-1
 44 484 l 1,24,-1
 44 509 l 2,25,26
 44 587.753846154 44 587.753846154 112.5 641.5 c 0,27,28
 181.960784314 696 181.960784314 696 294 696 c 2,29,-1
 324 696 l 2,30,31
 430.176470588 696 430.176470588 696 497.5 641.5 c 0,32,33
 564 587.666666667 564 587.666666667 564 510 c 0,34,35
 564 458 564 458 538.5 417.5 c 128,-1,36
 513 377 513 377 469 359 c 1,37,38
 524 340 524 340 554 296.5 c 128,-1,39
 584 253 584 253 584 200.5 c 128,-1,40
 584 148 584 148 567 111.5 c 128,-1,41
 550 75 550 75 517 48 c 0,42,43
 446.111111111 -10 446.111111111 -10 324 -10 c 2,44,-1
 282 -10 l 2,45,46
 159.888888889 -10 159.888888889 -10 89 48 c 0,47,48
 22 102.818181818 22 102.818181818 22 188 c 2,0,-1
EndSplineSet
EndChar

StartChar: four
Encoding: 52 52 23
Width: 615
GlyphClass: 2
Flags: W
HStem: 0 21G<302 490> 151 147<152 302 490 588>
VStem: 302 188<0 151 298 434.089> 407 83<565.742 630>
LayerCount: 2
Fore
SplineSet
22 151 m 1,0,-1
 22 300 l 1,1,2
 44.8620689655 338.689655172 44.8620689655 338.689655172 81 420 c 1,3,-1
 111 494 l 2,4,5
 161.624338624 617.396825397 161.624338624 617.396825397 178 696 c 1,6,-1
 355 696 l 1,7,8
 343.86013986 621.734265734 343.86013986 621.734265734 274 489 c 0,9,10
 206.266009852 360.305418719 206.266009852 360.305418719 152 298 c 1,11,-1
 302 298 l 1,12,-1
 302 400 l 1,13,14
 341.986910995 455.366492147 341.986910995 455.366492147 389.5 577 c 0,15,16
 402 609 402 609 407 630 c 1,17,-1
 490 630 l 1,18,-1
 490 298 l 1,19,-1
 588 298 l 1,20,-1
 588 151 l 1,21,-1
 490 151 l 1,22,-1
 490 0 l 1,23,-1
 302 0 l 1,24,-1
 302 151 l 1,25,-1
 22 151 l 1,0,-1
EndSplineSet
EndChar

StartChar: five
Encoding: 53 53 24
Width: 615
GlyphClass: 2
Flags: W
HStem: -10 154<233.975 357.276> 315 144<265.876 357.276> 516 170<238 529>
VStem: 383 197<171.277 288.829>
LayerCount: 2
Fore
SplineSet
30 224 m 1,0,-1
 206 224 l 1,1,2
 206 191 206 191 229.5 167.5 c 128,-1,3
 253 144 253 144 286 144 c 2,4,-1
 303 144 l 2,5,6
 336 144 336 144 359.5 167.5 c 128,-1,7
 383 191 383 191 383 224 c 2,8,-1
 383 235 l 2,9,10
 383 268 383 268 359.5 291.5 c 128,-1,11
 336 315 336 315 303 315 c 2,12,-1
 289 315 l 2,13,14
 253 315 253 315 228 290 c 0,15,16
 222 284 222 284 218 281 c 1,17,-1
 60 303 l 1,18,-1
 89 686 l 1,19,-1
 529 686 l 1,20,-1
 529 516 l 1,21,-1
 238 516 l 1,22,-1
 230 414 l 1,23,24
 255.789473684 436.105263158 255.789473684 436.105263158 290.894736842 447.552631579 c 128,-1,25
 326 459 326 459 366.5 459 c 128,-1,26
 407 459 407 459 448 443 c 128,-1,27
 489 427 489 427 518.5 397 c 0,28,29
 580 334.457627119 580 334.457627119 580 225 c 0,30,31
 580 124.695652174 580 124.695652174 507.5 58.5 c 0,32,33
 432.476190476 -10 432.476190476 -10 320 -10 c 2,34,-1
 290 -10 l 2,35,36
 172.349206349 -10 172.349206349 -10 99.5 58.5 c 0,37,38
 30 123.850746269 30 123.850746269 30 224 c 1,0,-1
EndSplineSet
EndChar

StartChar: six
Encoding: 54 54 25
Width: 615
GlyphClass: 2
Flags: W
HStem: -10 140<259.413 367.017> 321 116<275.226 369.31> 546 150<259.413 367.317>
VStem: 39 197<152.905 298.31 385 521.489> 392 193<152.69 298.28>
LayerCount: 2
Fore
SplineSet
39 240 m 2,0,-1
 39 446 l 2,1,2
 39 553.342857143 39 553.342857143 115 625 c 0,3,4
 190.303030303 696 190.303030303 696 299 696 c 2,5,-1
 327 696 l 2,6,7
 430 696 430 696 496 638 c 0,8,9
 568 574.727272727 568 574.727272727 568 466 c 1,10,-1
 390 466 l 1,11,-1
 390 471 l 2,12,13
 390 502 390 502 370 524 c 128,-1,14
 350 546 350 546 319 546 c 2,15,-1
 313 546 l 2,16,17
 282 546 282 546 259 524 c 128,-1,18
 236 502 236 502 236 471 c 2,19,-1
 236 385 l 1,20,21
 262 413 262 413 297.5 425 c 128,-1,22
 333 437 333 437 370 437 c 128,-1,23
 407 437 407 437 448 424 c 128,-1,24
 489 411 489 411 519.5 385 c 0,25,26
 585 329.163934426 585 329.163934426 585 230 c 0,27,28
 585 123 585 123 510 55.5 c 0,29,30
 437.222222222 -10 437.222222222 -10 327 -10 c 2,31,-1
 299 -10 l 2,32,33
 190.303030303 -10 190.303030303 -10 115 61 c 0,34,35
 39 132.657142857 39 132.657142857 39 240 c 2,0,-1
236 205 m 2,36,37
 236 174 236 174 258 152 c 128,-1,38
 280 130 280 130 311 130 c 2,39,-1
 317 130 l 2,40,41
 348 130 348 130 370 152 c 128,-1,42
 392 174 392 174 392 205 c 2,43,-1
 392 246 l 2,44,45
 392 277 392 277 370 299 c 128,-1,46
 348 321 348 321 317 321 c 2,47,-1
 311 321 l 2,48,49
 280 321 280 321 258 299 c 128,-1,50
 236 277 236 277 236 246 c 2,51,-1
 236 205 l 2,36,37
EndSplineSet
EndChar

StartChar: seven
Encoding: 55 55 26
Width: 615
GlyphClass: 2
Flags: W
HStem: 0 21G<129 351> 514 172<61 353>
VStem: 129 222<0 149.891>
LayerCount: 2
Fore
SplineSet
61 514 m 1,0,-1
 61 686 l 1,1,-1
 570 686 l 1,2,-1
 570 595 l 1,3,4
 468.13592233 455.233009709 468.13592233 455.233009709 417.5 344 c 0,5,6
 351 197.918032787 351 197.918032787 351 59 c 2,7,-1
 351 0 l 1,8,-1
 129 0 l 1,9,10
 129 187.12345679 129 187.12345679 270.5 398.5 c 0,11,12
 311 459 311 459 353 514 c 1,13,-1
 61 514 l 1,0,-1
EndSplineSet
EndChar

StartChar: eight
Encoding: 56 56 27
Width: 615
GlyphClass: 2
Flags: W
HStem: -10 132<258.143 355.424> 295 108<258.143 356.857> 566 130<258.529 357.415>
VStem: 38 199<143.143 273.857> 61 176<424.143 544.857> 378 199<143.143 273.857> 378 176<424.143 544.857>
LayerCount: 2
Fore
SplineSet
58 103 m 128,-1,1
 38 140 38 140 38 180 c 128,-1,2
 38 220 38 220 45 243 c 128,-1,3
 52 266 52 266 65.5 284.5 c 0,4,5
 88.8181818182 316.454545455 88.8181818182 316.454545455 139 347 c 1,6,-1
 139 351 l 1,7,8
 99.6875 381.0625 99.6875 381.0625 86.34375 402.03125 c 0,9,10
 61 441.857142857 61 441.857142857 61 492.928571429 c 128,-1,11
 61 544 61 544 80.5 581.5 c 128,-1,12
 100 619 100 619 133 644.5 c 0,13,14
 199.647058824 696 199.647058824 696 307 696 c 256,15,16
 413.843137255 696 413.843137255 696 481.5 644.5 c 0,17,18
 554 589.313432836 554 589.313432836 554 495 c 0,19,20
 554 419.586206897 554 419.586206897 506.5 377 c 0,21,22
 492 364 492 364 476 351 c 1,23,-1
 476 347 l 1,24,25
 526.181818182 316.454545455 526.181818182 316.454545455 544.590909091 291.227272727 c 0,26,27
 577 246.814814815 577 246.814814815 577 193.407407407 c 128,-1,28
 577 140 577 140 557.5 103 c 128,-1,29
 538 66 538 66 503 41 c 0,30,31
 431.6 -10 431.6 -10 307 -10 c 0,32,33
 185.92 -10 185.92 -10 113.5 41 c 0,34,0
 78 66 78 66 58 103 c 128,-1,1
237 192 m 2,35,36
 237 163 237 163 257.5 142.5 c 128,-1,37
 278 122 278 122 307.5 122 c 128,-1,38
 337 122 337 122 357.5 142.5 c 128,-1,39
 378 163 378 163 378 192 c 2,40,-1
 378 225 l 2,41,42
 378 254 378 254 357.5 274.5 c 128,-1,43
 337 295 337 295 307.5 295 c 128,-1,44
 278 295 278 295 257.5 274.5 c 128,-1,45
 237 254 237 254 237 225 c 2,46,-1
 237 192 l 2,35,36
237 473 m 2,47,48
 237 444 237 444 257.5 423.5 c 128,-1,49
 278 403 278 403 307.5 403 c 128,-1,50
 337 403 337 403 357.5 423.5 c 128,-1,51
 378 444 378 444 378 473 c 2,52,-1
 378 496 l 2,53,54
 378 525 378 525 357.5 545.5 c 128,-1,55
 337 566 337 566 307.5 566 c 128,-1,56
 278 566 278 566 257.5 545.5 c 128,-1,57
 237 525 237 525 237 496 c 2,58,-1
 237 473 l 2,47,48
EndSplineSet
EndChar

StartChar: nine
Encoding: 57 57 28
Width: 615
GlyphClass: 2
Flags: W
HStem: -10 150<247.683 355.587> 249 116<245.69 339.774> 556 140<245.69 355.587>
VStem: 30 193<387.69 532.908> 379 197<164.511 301 387.69 533.095>
LayerCount: 2
Fore
SplineSet
47.5 366 m 128,-1,1
 30 405 30 405 30 457.5 c 128,-1,2
 30 510 30 510 50 554 c 128,-1,3
 70 598 70 598 105 629.5 c 0,4,5
 178.888888889 696 178.888888889 696 288 696 c 2,6,-1
 316 696 l 2,7,8
 424.696969697 696 424.696969697 696 500 625 c 0,9,10
 576 553.342857143 576 553.342857143 576 446 c 2,11,-1
 576 240 l 2,12,13
 576 132.657142857 576 132.657142857 500 61 c 0,14,15
 424.696969697 -10 424.696969697 -10 316 -10 c 2,16,-1
 288 -10 l 2,17,18
 185 -10 185 -10 119 48 c 0,19,20
 47 111.272727273 47 111.272727273 47 220 c 1,21,-1
 225 220 l 1,22,-1
 225 215 l 2,23,24
 225 184 225 184 245 162 c 128,-1,25
 265 140 265 140 296 140 c 2,26,-1
 302 140 l 2,27,28
 333 140 333 140 356 162 c 128,-1,29
 379 184 379 184 379 215 c 2,30,-1
 379 301 l 1,31,32
 353 273 353 273 317.5 261 c 128,-1,33
 282 249 282 249 244.5 249 c 128,-1,34
 207 249 207 249 166.5 262 c 128,-1,35
 126 275 126 275 95.5 301 c 128,-1,0
 65 327 65 327 47.5 366 c 128,-1,1
223 440 m 2,36,37
 223 409 223 409 245 387 c 128,-1,38
 267 365 267 365 298 365 c 2,39,-1
 304 365 l 2,40,41
 335 365 335 365 357 387 c 128,-1,42
 379 409 379 409 379 440 c 2,43,-1
 379 481 l 2,44,45
 379 512 379 512 357 534 c 128,-1,46
 335 556 335 556 304 556 c 2,47,-1
 298 556 l 2,48,49
 267 556 267 556 245 534 c 128,-1,50
 223 512 223 512 223 481 c 2,51,-1
 223 440 l 2,36,37
EndSplineSet
EndChar

StartChar: colon
Encoding: 58 58 29
Width: 309
GlyphClass: 2
Flags: W
HStem: 0 183<59 250> 328 183<59 250>
VStem: 59 191<0 183 328 511>
LayerCount: 2
Fore
SplineSet
59 0 m 1,0,-1
 59 183 l 1,1,-1
 250 183 l 1,2,-1
 250 0 l 1,3,-1
 59 0 l 1,0,-1
59 328 m 1,4,-1
 59 511 l 1,5,-1
 250 511 l 1,6,-1
 250 328 l 1,7,-1
 59 328 l 1,4,-1
EndSplineSet
EndChar

StartChar: semicolon
Encoding: 59 59 30
Width: 308
GlyphClass: 2
Flags: W
HStem: 328 183<59 250>
VStem: 59 191<0 183 328 511>
LayerCount: 2
Fore
SplineSet
59 0 m 1,0,-1
 59 183 l 1,1,-1
 250 183 l 1,2,-1
 250 22 l 1,3,-1
 200 -165 l 1,4,-1
 106 -165 l 1,5,-1
 143 0 l 1,6,-1
 59 0 l 1,0,-1
59 328 m 1,7,-1
 59 511 l 1,8,-1
 250 511 l 1,9,-1
 250 328 l 1,10,-1
 59 328 l 1,7,-1
EndSplineSet
EndChar

StartChar: less
Encoding: 60 60 31
Width: 615
GlyphClass: 2
Flags: W
HStem: 501 20G<501.325 553>
LayerCount: 2
Fore
SplineSet
44 185 m 1,0,-1
 44 324 l 1,1,-1
 553 521 l 1,2,-1
 553 382 l 1,3,-1
 205 254 l 1,4,-1
 553 127 l 1,5,-1
 553 -11 l 1,6,-1
 44 185 l 1,0,-1
EndSplineSet
EndChar

StartChar: equal
Encoding: 61 61 32
Width: 615
GlyphClass: 2
Flags: W
HStem: 81 128<51 563> 301 128<51 563>
LayerCount: 2
Fore
SplineSet
51 81 m 1,0,-1
 51 209 l 1,1,-1
 563 209 l 1,2,-1
 563 81 l 1,3,-1
 51 81 l 1,0,-1
51 301 m 1,4,-1
 51 429 l 1,5,-1
 563 429 l 1,6,-1
 563 301 l 1,7,-1
 51 301 l 1,4,-1
EndSplineSet
EndChar

StartChar: greater
Encoding: 62 62 33
Width: 615
GlyphClass: 2
Flags: W
HStem: 501 20G<61 112.675>
LayerCount: 2
Fore
SplineSet
61 -11 m 1,0,-1
 61 127 l 1,1,-1
 409 254 l 1,2,-1
 61 382 l 1,3,-1
 61 521 l 1,4,-1
 570 324 l 1,5,-1
 570 185 l 1,6,-1
 61 -11 l 1,0,-1
EndSplineSet
EndChar

StartChar: question
Encoding: 63 63 34
Width: 581
GlyphClass: 2
Flags: W
HStem: 0 183<206 397> 558 138<226.25 321.994>
VStem: 24 186<447.932 542.474> 206 191<0 183> 341 212<426.901 539.218>
LayerCount: 2
Fore
SplineSet
27 447 m 1,0,1
 24 477 24 477 24 485 c 0,2,3
 24 577.625 24 577.625 105 639.5 c 0,4,5
 178.963636364 696 178.963636364 696 275 696 c 2,6,-1
 313 696 l 2,7,8
 409.561403509 696 409.561403509 696 479.5 636.5 c 0,9,10
 553 573.970149254 553 573.970149254 553 480 c 0,11,12
 553 381.826086957 553 381.826086957 467 322 c 1,13,-1
 426 292 l 2,14,15
 407 278 407 278 394.5 266 c 128,-1,16
 382 254 382 254 382 240 c 2,17,-1
 382 218 l 1,18,-1
 211 218 l 1,19,-1
 211 277 l 2,20,21
 211 320.235294118 211 320.235294118 276 379.5 c 0,22,23
 315.972972973 415.945945946 315.972972973 415.945945946 328.486486486 440.972972973 c 128,-1,24
 341 466 341 466 341 491 c 128,-1,25
 341 516 341 516 322.5 537 c 128,-1,26
 304 558 304 558 275 558 c 0,27,28
 210 558 210 558 210 474 c 2,29,-1
 210 460 l 2,30,31
 210 454 210 454 211 447 c 1,32,-1
 27 447 l 1,0,1
206 0 m 1,33,-1
 206 183 l 1,34,-1
 397 183 l 1,35,-1
 397 0 l 1,36,-1
 206 0 l 1,33,-1
EndSplineSet
EndChar

StartChar: at
Encoding: 64 64 35
Width: 906
GlyphClass: 2
Flags: W
HStem: -153 61<293.217 570.53> 22 114<406.469 463.593 621.143 754.43> 243 86<429.884 521> 412 109<409.225 502.953> 636 61<321.005 615.511>
VStem: 34 73<102.068 417.537> 207 194<142.713 220.224> 521 180<155.081 243 329 397.559> 806 73<177.667 456.847>
LayerCount: 2
Fore
SplineSet
62 75.5 m 0,0,1
 34 154 34 154 34 267.5 c 128,-1,2
 34 381 34 381 69 464 c 128,-1,3
 104 547 104 547 163.5 598.5 c 0,4,5
 277.300970874 697 277.300970874 697 469 697 c 256,6,7
 758.902097902 697 758.902097902 697 848 491.5 c 0,8,9
 879 420 879 420 879 326.5 c 128,-1,10
 879 233 879 233 859 176 c 128,-1,11
 839 119 839 119 807.5 84.5 c 0,12,13
 750.434782609 22 750.434782609 22 660 22 c 0,14,15
 582.285714286 22 582.285714286 22 548 70 c 0,16,17
 538 84 538 84 531 99 c 1,18,19
 500.4 63.3 500.4 63.3 475.7 49.65 c 0,20,21
 427.476190476 23 427.476190476 23 376 23 c 256,22,23
 301.7 23 301.7 23 262.5 47 c 0,24,25
 207 80.9795918367 207 80.9795918367 207 166 c 0,26,27
 207 260.444444444 207 260.444444444 291.5 298 c 0,28,29
 361.25 329 361.25 329 521 329 c 1,30,-1
 521 356 l 2,31,32
 521 384 521 384 503.5 398 c 128,-1,33
 486 412 486 412 468 412 c 128,-1,34
 450 412 450 412 439.5 409 c 128,-1,35
 429 406 429 406 420 400 c 0,36,37
 400 386.666666667 400 386.666666667 400 368 c 2,38,-1
 400 364 l 1,39,-1
 222 364 l 1,40,41
 221 369 221 369 221 388.5 c 128,-1,42
 221 408 221 408 236.5 434 c 128,-1,43
 252 460 252 460 281.5 479.5 c 0,44,45
 344.282051282 521 344.282051282 521 446 521 c 2,46,-1
 477 521 l 2,47,48
 641 521 641 521 687 429 c 0,49,50
 701 401 701 401 701 369 c 2,51,-1
 701 171 l 2,52,53
 701 153 701 153 712.5 144.5 c 128,-1,54
 724 136 724 136 732.5 136 c 128,-1,55
 741 136 741 136 753.5 141 c 128,-1,56
 766 146 766 146 777.5 165 c 0,57,58
 806 212.086956522 806 212.086956522 806 308.543478261 c 128,-1,59
 806 405 806 405 781 464.5 c 128,-1,60
 756 524 756 524 711.5 562 c 0,61,62
 624.842105263 636 624.842105263 636 468 636 c 0,63,64
 297.494623656 636 297.494623656 636 204 543.5 c 0,65,66
 107 447.531914894 107 447.531914894 107 265.765957447 c 128,-1,67
 107 84 107 84 186.5 -4 c 128,-1,68
 266 -92 266 -92 434 -92 c 0,69,70
 489.545454545 -92 489.545454545 -92 537.272727273 -79.5 c 128,-1,71
 585 -67 585 -67 599 -60 c 1,72,-1
 599 -126 l 1,73,74
 551.64 -143.76 551.64 -143.76 500.82 -148.38 c 128,-1,75
 450 -153 450 -153 434 -153 c 0,76,77
 143.503184713 -153 143.503184713 -153 62 75.5 c 0,0,1
401 181 m 256,78,79
 401 136 401 136 457 136 c 0,80,81
 483 136 483 136 502 154.5 c 128,-1,82
 521 173 521 173 521 202 c 2,83,-1
 521 243 l 1,84,85
 457 243 457 243 429 225.5 c 128,-1,86
 401 208 401 208 401 181 c 256,78,79
EndSplineSet
EndChar

StartChar: A
Encoding: 65 65 36
Width: 709
GlyphClass: 2
Flags: W
HStem: 0 21G<-5 203.557 489.279 714> 122 145<285 407> 666 20G<217.324 491.676>
LayerCount: 2
Fore
SplineSet
-5 0 m 1,0,-1
 224 686 l 1,1,-1
 485 686 l 1,2,-1
 714 0 l 1,3,-1
 496 0 l 1,4,-1
 455 122 l 1,5,-1
 237 122 l 1,6,-1
 197 0 l 1,7,-1
 -5 0 l 1,0,-1
285 267 m 1,8,-1
 407 267 l 1,9,-1
 349 475 l 1,10,-1
 344 475 l 1,11,-1
 285 267 l 1,8,-1
EndSplineSet
EndChar

StartChar: B
Encoding: 66 66 37
Width: 656
GlyphClass: 2
Flags: W
HStem: 0 159<250 412.045> 277 146<250 400.045> 540 146<250 400.045>
VStem: 57 193<159 277 423 540> 415 198<437.955 525.045> 427 202<173.955 262.045>
LayerCount: 2
Fore
SplineSet
498 354 m 1,0,1
 629 324.888888889 629 324.888888889 629 183 c 0,2,3
 629 106.823529412 629 106.823529412 573.5 53.5 c 128,-1,4
 517.816326531 -7.1054273576e-14 517.816326531 -7.1054273576e-14 439 0 c 2,5,-1
 57 0 l 1,6,-1
 57 686 l 1,7,-1
 433 686 l 2,8,9
 508.304347826 686 508.304347826 686 560.5 637 c 0,10,11
 613 587.714285714 613 587.714285714 613 518 c 0,12,13
 613 415.380952381 613 415.380952381 542 376.5 c 0,14,15
 521 365 521 365 498 358 c 1,16,-1
 498 354 l 1,0,1
250 159 m 1,17,-1
 377 159 l 2,18,19
 398 159 398 159 412.5 173.5 c 128,-1,20
 427 188 427 188 427 209 c 2,21,-1
 427 227 l 2,22,23
 427 248 427 248 412.5 262.5 c 128,-1,24
 398 277 398 277 377 277 c 2,25,-1
 250 277 l 1,26,-1
 250 159 l 1,17,-1
250 423 m 1,27,-1
 365 423 l 2,28,29
 386 423 386 423 400.5 437.5 c 128,-1,30
 415 452 415 452 415 473 c 2,31,-1
 415 490 l 2,32,33
 415 511 415 511 400.5 525.5 c 128,-1,34
 386 540 386 540 365 540 c 2,35,-1
 250 540 l 1,36,-1
 250 423 l 1,27,-1
EndSplineSet
EndChar

StartChar: C
Encoding: 67 67 38
Width: 683
GlyphClass: 2
Flags: W
HStem: -10 157<295.26 436.094> 540 156<294.413 426.445>
VStem: 31 226<186.757 502.368>
LayerCount: 2
Fore
SplineSet
31 290 m 2,0,-1
 31 396 l 2,1,2
 31 527.529411765 31 527.529411765 123.5 613.5 c 0,3,4
 212.265822785 696 212.265822785 696 341 696 c 2,5,-1
 369 696 l 2,6,7
 497.534246575 696 497.534246575 696 575 623.5 c 0,8,9
 659 544.884615385 659 544.884615385 659 405 c 1,10,-1
 462 405 l 1,11,-1
 462 440 l 2,12,13
 462 487 462 487 433 513.5 c 128,-1,14
 404 540 404 540 362 540 c 2,15,-1
 357 540 l 2,16,17
 315 540 315 540 286 511 c 128,-1,18
 257 482 257 482 257 440 c 2,19,-1
 257 247 l 2,20,21
 257 205 257 205 286 176 c 128,-1,22
 315 147 315 147 357 147 c 2,23,-1
 371 147 l 2,24,25
 413 147 413 147 442 173 c 128,-1,26
 471 199 471 199 471 247 c 2,27,-1
 471 280 l 1,28,-1
 659 280 l 1,29,30
 659 148 659 148 578.5 67.5 c 0,31,32
 501 -10 501 -10 377 -10 c 2,33,-1
 349 -10 l 2,34,35
 211.675324675 -10 211.675324675 -10 124 68.5 c 0,36,37
 31 151.76744186 31 151.76744186 31 290 c 2,0,-1
EndSplineSet
EndChar

StartChar: D
Encoding: 68 68 39
Width: 696
GlyphClass: 2
Flags: W
HStem: 0 159<269 407.798> 530 156<269 407.798>
VStem: 57 212<159 530> 446 220<196.859 492.587>
LayerCount: 2
Fore
SplineSet
57 0 m 1,0,-1
 57 686 l 1,1,-1
 366 686 l 2,2,3
 428 686 428 686 483 662.5 c 128,-1,4
 538 639 538 639 578.5 598.5 c 128,-1,5
 619 558 619 558 642.5 503 c 128,-1,6
 666 448 666 448 666 386 c 2,7,-1
 666 300 l 2,8,9
 666 238 666 238 642.5 183 c 128,-1,10
 619 128 619 128 578.5 87.5 c 128,-1,11
 538 47 538 47 483 23.5 c 128,-1,12
 428 0 428 0 366 0 c 2,13,-1
 57 0 l 1,0,-1
269 159 m 1,14,-1
 346 159 l 2,15,16
 388 159 388 159 417 188 c 128,-1,17
 446 217 446 217 446 259 c 2,18,-1
 446 430 l 2,19,20
 446 472 446 472 417 501 c 128,-1,21
 388 530 388 530 346 530 c 2,22,-1
 269 530 l 1,23,-1
 269 159 l 1,14,-1
EndSplineSet
EndChar

StartChar: E
Encoding: 69 69 40
Width: 600
GlyphClass: 2
Flags: W
HStem: 0 164<263 552> 275 153<263 541> 528 158<263 552>
VStem: 57 206<164 275 428 528>
LayerCount: 2
Fore
SplineSet
57 0 m 1,0,-1
 57 686 l 1,1,-1
 572 686 l 1,2,-1
 552 528 l 1,3,-1
 263 528 l 1,4,-1
 263 428 l 1,5,-1
 541 428 l 1,6,-1
 541 275 l 1,7,-1
 263 275 l 1,8,-1
 263 164 l 1,9,-1
 552 164 l 1,10,-1
 572 0 l 1,11,-1
 57 0 l 1,0,-1
EndSplineSet
EndChar

StartChar: F
Encoding: 70 70 41
Width: 562
GlyphClass: 2
Flags: W
HStem: 0 21G<57 262> 257 154<262 514> 523 163<262 533>
VStem: 57 205<0 257 411 523>
LayerCount: 2
Fore
SplineSet
57 0 m 1,0,-1
 57 686 l 1,1,-1
 553 686 l 1,2,-1
 533 523 l 1,3,-1
 262 523 l 1,4,-1
 262 411 l 1,5,-1
 514 411 l 1,6,-1
 514 257 l 1,7,-1
 262 257 l 1,8,-1
 262 0 l 1,9,-1
 57 0 l 1,0,-1
EndSplineSet
EndChar

StartChar: G
Encoding: 71 71 42
Width: 699
GlyphClass: 2
Flags: W
HStem: -10 157<294.413 432.011> 0 21G<543.329 663> 248 136<346 462> 540 156<295.428 429.709>
VStem: 31 226<184.413 502.587> 462 194<174.849 248 439 506.919>
LayerCount: 2
Fore
SplineSet
656 144 m 2,0,1
 656 59.5 656 59.5 663 0 c 1,2,-1
 551 0 l 1,3,-1
 523 73 l 1,4,5
 491.563380282 37.6338028169 491.563380282 37.6338028169 437 13.5 c 0,6,7
 383.869565217 -10 383.869565217 -10 327 -10 c 2,8,-1
 317 -10 l 2,9,10
 194.098765432 -10 194.098765432 -10 112 77.5 c 0,11,12
 31 163.828947368 31 163.828947368 31 290 c 2,13,-1
 31 396 l 2,14,15
 31 458 31 458 54.5 513 c 128,-1,16
 78 568 78 568 120 608.5 c 0,17,18
 210.740740741 696 210.740740741 696 350 696 c 2,19,-1
 378 696 l 2,20,21
 492.393939394 696 492.393939394 696 573 626 c 0,22,23
 656 553.921052632 656 553.921052632 656 446 c 2,24,-1
 656 439 l 1,25,-1
 462 439 l 1,26,27
 462 492 462 492 432.5 516 c 128,-1,28
 403 540 403 540 362 540 c 2,29,-1
 357 540 l 2,30,31
 315 540 315 540 286 511 c 128,-1,32
 257 482 257 482 257 440 c 2,33,-1
 257 247 l 2,34,35
 257 205 257 205 286 176 c 128,-1,36
 315 147 315 147 357 147 c 2,37,-1
 375 147 l 2,38,39
 417 147 417 147 439.5 174 c 128,-1,40
 462 201 462 201 462 248 c 1,41,-1
 346 248 l 1,42,-1
 346 384 l 1,43,-1
 656 384 l 1,44,-1
 656 144 l 2,0,1
EndSplineSet
EndChar

StartChar: H
Encoding: 72 72 43
Width: 697
GlyphClass: 2
Flags: W
HStem: 0 21G<57 268 430 640> 267 166<268 429> 666 20G<57 267 429 640>
VStem: 57 211<0 267 433 686> 430 210<0 267 433 686>
LayerCount: 2
Fore
SplineSet
57 0 m 1,0,-1
 57 686 l 1,1,-1
 267 686 l 1,2,-1
 267 433 l 1,3,-1
 429 433 l 1,4,-1
 429 686 l 1,5,-1
 640 686 l 1,6,-1
 640 0 l 1,7,-1
 430 0 l 1,8,-1
 430 267 l 1,9,-1
 268 267 l 1,10,-1
 268 0 l 1,11,-1
 57 0 l 1,0,-1
EndSplineSet
EndChar

StartChar: I
Encoding: 73 73 44
Width: 446
GlyphClass: 2
Flags: W
HStem: 0 148<36 117 329 410> 539 147<36 117 329 410>
VStem: 36 374<0 148 539 686>
LayerCount: 2
Fore
SplineSet
36 0 m 1,0,-1
 36 148 l 1,1,-1
 117 148 l 1,2,-1
 117 539 l 1,3,-1
 36 539 l 1,4,-1
 36 686 l 1,5,-1
 410 686 l 1,6,-1
 410 539 l 1,7,-1
 329 539 l 1,8,-1
 329 148 l 1,9,-1
 410 148 l 1,10,-1
 410 0 l 1,11,-1
 36 0 l 1,0,-1
EndSplineSet
EndChar

StartChar: J
Encoding: 74 74 45
Width: 545
GlyphClass: 2
Flags: W
HStem: -10 150<216.376 274.108> 666 20G<287 492>
VStem: 287 205<152.893 686>
LayerCount: 2
Fore
SplineSet
11 180 m 2,0,-1
 11 248 l 1,1,-1
 204 248 l 1,2,-1
 204 186 l 2,3,4
 204 165 204 165 216 152.5 c 128,-1,5
 228 140 228 140 245 140 c 256,6,7
 262 140 262 140 274.5 152.5 c 128,-1,8
 287 165 287 165 287 186 c 2,9,-1
 287 686 l 1,10,-1
 492 686 l 1,11,-1
 492 180 l 2,12,13
 492 88.7540983607 492 88.7540983607 427.5 38 c 0,14,15
 366.5 -10 366.5 -10 262 -10 c 2,16,-1
 231 -10 l 2,17,18
 130 -10 130 -10 70.5 39 c 128,-1,19
 11 88 11 88 11 180 c 2,0,-1
EndSplineSet
EndChar

StartChar: K
Encoding: 75 75 46
Width: 685
GlyphClass: 2
Flags: W
HStem: 0 21G<57 261 450.403 695> 666 20G<57 261 442.535 689>
VStem: 57 204<0 152 415 686>
LayerCount: 2
Fore
SplineSet
57 0 m 1,0,-1
 57 686 l 1,1,-1
 261 686 l 1,2,-1
 261 415 l 1,3,-1
 457 686 l 1,4,-1
 689 686 l 1,5,-1
 480 411 l 1,6,-1
 695 0 l 1,7,-1
 460 0 l 1,8,-1
 341 248 l 1,9,-1
 261 152 l 1,10,-1
 261 0 l 1,11,-1
 57 0 l 1,0,-1
EndSplineSet
EndChar

StartChar: L
Encoding: 76 76 47
Width: 544
GlyphClass: 2
Flags: W
HStem: 0 168<269 518> 666 20G<57 269>
VStem: 57 212<168 686>
LayerCount: 2
Fore
SplineSet
57 0 m 1,0,-1
 57 686 l 1,1,-1
 269 686 l 1,2,-1
 269 168 l 1,3,-1
 518 168 l 1,4,-1
 538 0 l 1,5,-1
 57 0 l 1,0,-1
EndSplineSet
EndChar

StartChar: M
Encoding: 77 77 48
Width: 1004
GlyphClass: 2
Flags: W
HStem: 0 21G<57 248 366.591 618.455 737 947> 666 20G<57 406.41 595.699 947>
VStem: 57 191<0 440> 737 210<0 440>
LayerCount: 2
Fore
SplineSet
57 0 m 1,0,-1
 57 686 l 1,1,-1
 401 686 l 1,2,-1
 500 320 l 1,3,-1
 504 320 l 1,4,-1
 601 686 l 1,5,-1
 947 686 l 1,6,-1
 947 0 l 1,7,-1
 737 0 l 1,8,-1
 737 440 l 1,9,-1
 733 440 l 1,10,-1
 613 0 l 1,11,-1
 372 0 l 1,12,-1
 253 440 l 1,13,-1
 248 440 l 1,14,-1
 248 0 l 1,15,-1
 57 0 l 1,0,-1
EndSplineSet
EndChar

StartChar: N
Encoding: 78 78 49
Width: 696
GlyphClass: 2
Flags: W
HStem: 0 21G<57 250 445.128 639> 666 20G<57 246.816 445 639>
VStem: 57 193<0 304> 445 194<375 686>
LayerCount: 2
Fore
SplineSet
57 0 m 1,0,-1
 57 686 l 1,1,-1
 233 686 l 1,2,-1
 443 382 l 1,3,-1
 445 375 l 1,4,-1
 445 686 l 1,5,-1
 639 686 l 1,6,-1
 639 0 l 1,7,-1
 459 0 l 1,8,-1
 253 297 l 1,9,-1
 250 304 l 1,10,-1
 250 0 l 1,11,-1
 57 0 l 1,0,-1
EndSplineSet
EndChar

StartChar: O
Encoding: 79 79 50
Width: 718
GlyphClass: 2
Flags: W
HStem: -10 157<294.804 424.587> 540 154<294.804 424.587>
VStem: 31 226<185.115 502.364> 462 225<185.115 502.364>
LayerCount: 2
Fore
SplineSet
31 290 m 2,0,-1
 31 394 l 2,1,2
 31 456 31 456 54.5 511 c 128,-1,3
 78 566 78 566 118.5 606.5 c 128,-1,4
 159 647 159 647 214 670.5 c 128,-1,5
 269 694 269 694 331 694 c 2,6,-1
 387 694 l 2,7,8
 449 694 449 694 504 670.5 c 128,-1,9
 559 647 559 647 599.5 606.5 c 128,-1,10
 640 566 640 566 663.5 511 c 128,-1,11
 687 456 687 456 687 394 c 2,12,-1
 687 290 l 2,13,14
 687 228 687 228 663.5 173 c 128,-1,15
 640 118 640 118 599.5 77.5 c 128,-1,16
 559 37 559 37 504 13.5 c 128,-1,17
 449 -10 449 -10 387 -10 c 2,18,-1
 331 -10 l 2,19,20
 269 -10 269 -10 214 13.5 c 128,-1,21
 159 37 159 37 118.5 77.5 c 128,-1,22
 78 118 78 118 54.5 173 c 128,-1,23
 31 228 31 228 31 290 c 2,0,-1
257 247 m 2,24,25
 257 205 257 205 286 176 c 128,-1,26
 315 147 315 147 357 147 c 2,27,-1
 362 147 l 2,28,29
 404 147 404 147 433 176 c 128,-1,30
 462 205 462 205 462 247 c 2,31,-1
 462 440 l 2,32,33
 462 482 462 482 433 511 c 128,-1,34
 404 540 404 540 362 540 c 2,35,-1
 357 540 l 2,36,37
 315 540 315 540 286 511 c 128,-1,38
 257 482 257 482 257 440 c 2,39,-1
 257 247 l 2,24,25
EndSplineSet
EndChar

StartChar: P
Encoding: 80 80 51
Width: 645
GlyphClass: 2
Flags: W
HStem: 0 21G<57 267> 244 153<267 403.528> 529 157<267 404.043>
VStem: 57 210<0 244 397 529> 419 213<417.11 508.89>
LayerCount: 2
Fore
SplineSet
57 0 m 1,0,-1
 57 686 l 1,1,-1
 422 686 l 2,2,3
 509 686 509 686 570.5 624.5 c 128,-1,4
 632 563 632 563 632 476 c 2,5,-1
 632 454 l 2,6,7
 632 367 632 367 570.5 305.5 c 128,-1,8
 509 244 509 244 422 244 c 2,9,-1
 267 244 l 1,10,-1
 267 0 l 1,11,-1
 57 0 l 1,0,-1
267 397 m 1,12,-1
 359 397 l 2,13,14
 389 397 389 397 404 416.5 c 128,-1,15
 419 436 419 436 419 457 c 2,16,-1
 419 469 l 2,17,18
 419 490 419 490 404.5 509.5 c 128,-1,19
 390 529 390 529 359 529 c 2,20,-1
 267 529 l 1,21,-1
 267 397 l 1,12,-1
EndSplineSet
EndChar

StartChar: Q
Encoding: 81 81 52
Width: 718
GlyphClass: 2
Flags: W
HStem: -162 123<500.367 642.11> 540 154<294.804 424.587>
VStem: 31 226<184.706 502.364> 462 225<186.133 502.364>
LayerCount: 2
Fore
SplineSet
484 6 m 1,0,1
 504 -39 504 -39 562 -39 c 0,2,3
 610 -39 610 -39 675 -19 c 2,4,-1
 688 -15 l 1,5,-1
 688 -120 l 1,6,7
 611 -162 611 -162 507 -162 c 0,8,9
 402.744680851 -162 402.744680851 -162 339 -108.5 c 0,10,11
 287.05451448 -64.9028960818 287.05451448 -64.9028960818 273 -4 c 1,12,13
 168.801526718 16.0381679389 168.801526718 16.0381679389 100.5 98 c 0,14,15
 31 181.4 31 181.4 31 290 c 2,16,-1
 31 394 l 2,17,18
 31 456 31 456 54.5 511 c 128,-1,19
 78 566 78 566 118.5 606.5 c 128,-1,20
 159 647 159 647 214 670.5 c 128,-1,21
 269 694 269 694 331 694 c 2,22,-1
 387 694 l 2,23,24
 449 694 449 694 504 670.5 c 128,-1,25
 559 647 559 647 599.5 606.5 c 128,-1,26
 640 566 640 566 663.5 511 c 128,-1,27
 687 456 687 456 687 394 c 2,28,-1
 687 290 l 2,29,30
 687 192.111111111 687 192.111111111 630 114 c 0,31,32
 573.439084219 36.4905968929 573.439084219 36.4905968929 484 6 c 1,0,1
257 247 m 2,33,34
 257 205 257 205 286 176 c 128,-1,35
 315 147 315 147 357 147 c 2,36,-1
 362 147 l 2,37,38
 404 147 404 147 433 176 c 128,-1,39
 462 205 462 205 462 247 c 2,40,-1
 462 440 l 2,41,42
 462 482 462 482 433 511 c 128,-1,43
 404 540 404 540 362 540 c 2,44,-1
 357 540 l 2,45,46
 315 540 315 540 286 511 c 128,-1,47
 257 482 257 482 257 440 c 2,48,-1
 257 247 l 2,33,34
EndSplineSet
EndChar

StartChar: R
Encoding: 82 82 53
Width: 682
GlyphClass: 2
Flags: W
HStem: 0 21G<57 262> 266 153<262 378.531> 529 157<262 403.045>
VStem: 57 205<0 266 419 529> 409 210<69.3876 233.348> 418 214<433.999 514.045>
LayerCount: 2
Fore
SplineSet
670 9 m 1,0,1
 623.363636364 -10 623.363636364 -10 552.681818182 -10 c 128,-1,2
 482 -10 482 -10 445.5 18.5 c 128,-1,3
 409 47 409 47 409 119 c 0,4,5
 409 184.882352941 409 184.882352941 398.5 211.441176471 c 128,-1,6
 388 238 388 238 370 252 c 128,-1,7
 352 266 352 266 320 266 c 2,8,-1
 262 266 l 1,9,-1
 262 0 l 1,10,-1
 57 0 l 1,11,-1
 57 686 l 1,12,-1
 442 686 l 2,13,14
 518.733333333 686 518.733333333 686 573.5 639.5 c 0,15,16
 632 589.830188679 632 589.830188679 632 516 c 0,17,18
 632 460.909090909 632 460.909090909 596.5 412.5 c 128,-1,19
 560.92238806 363.985074627 560.92238806 363.985074627 509 354 c 1,20,-1
 509 349 l 1,21,22
 567 332 567 332 593 283.5 c 128,-1,23
 619 235 619 235 619 173 c 0,24,25
 619 99.8 619 99.8 641 69 c 0,26,27
 651 55 651 55 670 50 c 1,28,-1
 670 9 l 1,0,1
262 419 m 1,29,-1
 368 419 l 2,30,31
 389 419 389 419 403.5 433.5 c 128,-1,32
 418 448 418 448 418 469 c 2,33,-1
 418 479 l 2,34,35
 418 500 418 500 403.5 514.5 c 128,-1,36
 389 529 389 529 368 529 c 2,37,-1
 262 529 l 1,38,-1
 262 419 l 1,29,-1
EndSplineSet
EndChar

StartChar: S
Encoding: 83 83 54
Width: 651
GlyphClass: 2
Flags: W
HStem: -10 161<239.96 393.59> 544 152<259.171 398.794>
VStem: 25 194<171.426 233.812> 407 216<163.619 260.25>
LayerCount: 2
Fore
SplineSet
335 544 m 0,0,1
 252 544 252 544 252 502 c 0,2,3
 252 477 252 477 279.5 464.5 c 128,-1,4
 307 452 307 452 348 442 c 2,5,-1
 437 422 l 2,6,7
 545.98163606 397.025041736 545.98163606 397.025041736 595.5 329.5 c 0,8,9
 623 292 623 292 623 228.5 c 128,-1,10
 623 165 623 165 601 120 c 128,-1,11
 579 75 579 75 539 46 c 0,12,13
 461.75862069 -10 461.75862069 -10 318 -10 c 0,14,15
 194 -10 194 -10 114.5 43 c 0,16,17
 25 102.666666667 25 102.666666667 25 210 c 2,18,-1
 25 222 l 2,19,20
 25 228 25 228 26 234 c 1,21,-1
 220 234 l 1,22,23
 219 230 219 230 219 219.5 c 128,-1,24
 219 209 219 209 223.5 196 c 128,-1,25
 228 183 228 183 238.5 173 c 0,26,27
 261.6 151 261.6 151 301.8 151 c 128,-1,28
 342 151 342 151 361 154.5 c 128,-1,29
 380 158 380 158 390 164 c 0,30,31
 407 174.2 407 174.2 407 196.1 c 128,-1,32
 407 218 407 218 380 230 c 128,-1,33
 353 242 353 242 312 251 c 128,-1,34
 271 260 271 260 223.5 271.5 c 128,-1,35
 176 283 176 283 135 306.5 c 0,36,37
 40 360.951219512 40 360.951219512 40 478 c 0,38,39
 40 581.974683544 40 581.974683544 125.5 641.5 c 0,40,41
 203.781818182 696 203.781818182 696 331 696 c 0,42,43
 452.745098039 696 452.745098039 696 528 645.5 c 0,44,45
 610 590.473684211 610 590.473684211 610 486 c 2,46,-1
 610 474 l 1,47,-1
 418 474 l 1,48,-1
 418 478 l 2,49,50
 418 504 418 504 399 524 c 128,-1,51
 380 544 380 544 335 544 c 0,0,1
EndSplineSet
EndChar

StartChar: T
Encoding: 84 84 55
Width: 586
GlyphClass: 2
Flags: W
HStem: 0 21G<189 397> 521 165<15 189 397 571>
VStem: 189 208<0 521>
LayerCount: 2
Fore
SplineSet
15 521 m 1,0,-1
 15 686 l 1,1,-1
 571 686 l 1,2,-1
 571 521 l 1,3,-1
 397 521 l 1,4,-1
 397 0 l 1,5,-1
 189 0 l 1,6,-1
 189 521 l 1,7,-1
 15 521 l 1,0,-1
EndSplineSet
EndChar

StartChar: U
Encoding: 85 85 56
Width: 687
GlyphClass: 2
Flags: W
HStem: -10 156<288.234 400.763> 666 20G<52 263 425 635>
VStem: 52 211<169.161 686> 425 210<169.161 686>
LayerCount: 2
Fore
SplineSet
52 218 m 2,0,-1
 52 686 l 1,1,-1
 263 686 l 1,2,-1
 263 221 l 2,3,4
 263 188 263 188 286.5 167 c 128,-1,5
 310 146 310 146 344 146 c 256,6,7
 378 146 378 146 401.5 167 c 128,-1,8
 425 188 425 188 425 221 c 2,9,-1
 425 686 l 1,10,-1
 635 686 l 1,11,-1
 635 218 l 2,12,13
 635 115.428571429 635 115.428571429 561 52 c 0,14,15
 488.666666667 -10 488.666666667 -10 365 -10 c 2,16,-1
 322 -10 l 2,17,18
 198.333333333 -10 198.333333333 -10 126 52 c 0,19,20
 52 115.428571429 52 115.428571429 52 218 c 2,0,-1
EndSplineSet
EndChar

StartChar: V
Encoding: 86 86 57
Width: 656
GlyphClass: 2
Flags: W
HStem: 0 21G<196.023 458.064> 666 20G<-3 220.634 452.413 660>
LayerCount: 2
Fore
SplineSet
-3 686 m 1,0,-1
 215 686 l 1,1,-1
 335 260 l 1,2,-1
 339 260 l 1,3,-1
 458 686 l 1,4,-1
 660 686 l 1,5,-1
 452 0 l 1,6,-1
 202 0 l 1,7,-1
 -3 686 l 1,0,-1
EndSplineSet
EndChar

StartChar: W
Encoding: 87 87 58
Width: 1021
GlyphClass: 2
Flags: W
HStem: 0 21G<179.548 432.046 593.954 842.423> 666 20G<-2 220.092 408.856 634.039 820.908 1023>
LayerCount: 2
Fore
SplineSet
-2 686 m 1,0,-1
 215 686 l 1,1,-1
 312 305 l 1,2,-1
 316 305 l 1,3,-1
 414 686 l 1,4,-1
 629 686 l 1,5,-1
 725 305 l 1,6,-1
 729 305 l 1,7,-1
 826 686 l 1,8,-1
 1023 686 l 1,9,-1
 837 0 l 1,10,-1
 599 0 l 1,11,-1
 516 329 l 1,12,-1
 510 329 l 1,13,-1
 427 0 l 1,14,-1
 185 0 l 1,15,-1
 -2 686 l 1,0,-1
EndSplineSet
EndChar

StartChar: X
Encoding: 88 88 59
Width: 675
GlyphClass: 2
Flags: W
HStem: 0 21G<-15 221.798 435.108 690> 666 20G<7 260.857 433.143 669>
LayerCount: 2
Fore
SplineSet
-15 0 m 1,0,-1
 200 363 l 1,1,-1
 7 686 l 1,2,-1
 250 686 l 1,3,-1
 345 511 l 1,4,-1
 349 511 l 1,5,-1
 444 686 l 1,6,-1
 669 686 l 1,7,-1
 475 362 l 1,8,-1
 690 0 l 1,9,-1
 446 0 l 1,10,-1
 330 213 l 1,11,-1
 326 213 l 1,12,-1
 211 0 l 1,13,-1
 -15 0 l 1,0,-1
EndSplineSet
EndChar

StartChar: Y
Encoding: 89 89 60
Width: 646
GlyphClass: 2
Flags: W
HStem: 0 21G<219 428> 666 20G<-9 236.156 430.667 655>
VStem: 219 209<0 262>
LayerCount: 2
Fore
SplineSet
-9 686 m 1,0,-1
 227 686 l 1,1,-1
 330 461 l 1,2,-1
 335 461 l 1,3,-1
 440 686 l 1,4,-1
 655 686 l 1,5,-1
 428 262 l 1,6,-1
 428 0 l 1,7,-1
 219 0 l 1,8,-1
 219 262 l 1,9,-1
 -9 686 l 1,0,-1
EndSplineSet
EndChar

StartChar: Z
Encoding: 90 90 61
Width: 608
GlyphClass: 2
Flags: W
HStem: 0 158<314 585> 526 160<38 282>
LayerCount: 2
Fore
SplineSet
14 0 m 1,0,-1
 14 61 l 1,1,-1
 282 530 l 1,2,-1
 38 526 l 1,3,-1
 38 686 l 1,4,-1
 577 686 l 1,5,-1
 577 625 l 1,6,-1
 314 158 l 1,7,-1
 585 161 l 1,8,-1
 585 0 l 1,9,-1
 14 0 l 1,0,-1
EndSplineSet
EndChar

StartChar: bracketleft
Encoding: 91 91 62
Width: 318
GlyphClass: 2
Flags: W
HStem: -161 83<206 294> 603 83<206 294>
VStem: 57 237<-161 -78 603 686> 57 149<-78 603>
LayerCount: 2
Fore
SplineSet
57 -161 m 1,0,-1
 57 686 l 1,1,-1
 294 686 l 1,2,-1
 294 603 l 1,3,-1
 206 603 l 1,4,-1
 206 -78 l 1,5,-1
 294 -78 l 1,6,-1
 294 -161 l 1,7,-1
 57 -161 l 1,0,-1
EndSplineSet
EndChar

StartChar: backslash
Encoding: 92 92 63
Width: 652
GlyphClass: 2
Flags: W
HStem: 666 20G<15 157.435>
LayerCount: 2
Fore
SplineSet
15 686 m 1,0,-1
 146 686 l 1,1,-1
 636 -171 l 1,2,-1
 504 -171 l 1,3,-1
 15 686 l 1,0,-1
EndSplineSet
EndChar

StartChar: bracketright
Encoding: 93 93 64
Width: 318
GlyphClass: 2
Flags: W
HStem: -161 83<24 112> 603 83<24 112>
VStem: 24 237<-161 -78 603 686> 112 149<-78 603>
LayerCount: 2
Fore
SplineSet
24 -78 m 1,0,-1
 112 -78 l 1,1,-1
 112 603 l 1,2,-1
 24 603 l 1,3,-1
 24 686 l 1,4,-1
 261 686 l 1,5,-1
 261 -161 l 1,6,-1
 24 -161 l 1,7,-1
 24 -78 l 1,0,-1
EndSplineSet
EndChar

StartChar: asciicircum
Encoding: 94 94 65
Width: 600
GlyphClass: 2
Flags: W
HStem: 0 21G<33 180.314 420.743 566> 491 20G<222.29 376.71>
LayerCount: 2
Fore
SplineSet
33 0 m 1,0,-1
 230 511 l 1,1,-1
 369 511 l 1,2,-1
 566 0 l 1,3,-1
 428 0 l 1,4,-1
 301 350 l 1,5,-1
 173 0 l 1,6,-1
 33 0 l 1,0,-1
EndSplineSet
EndChar

StartChar: underscore
Encoding: 95 95 66
Width: 668
GlyphClass: 2
Flags: W
HStem: -127 62<84 584>
LayerCount: 2
Fore
SplineSet
84 -65 m 1,0,-1
 584 -65 l 1,1,-1
 584 -127 l 1,2,-1
 84 -127 l 1,3,-1
 84 -65 l 1,0,-1
EndSplineSet
EndChar

StartChar: grave
Encoding: 96 96 67
Width: 333
GlyphClass: 2
Flags: W
HStem: 575 145<168 195>
VStem: 42 244
LayerCount: 2
Fore
SplineSet
42 717 m 1,0,-1
 44 720 l 1,1,-1
 195 720 l 1,2,-1
 286 575 l 1,3,-1
 168 575 l 1,4,-1
 42 717 l 1,0,-1
EndSplineSet
EndChar

StartChar: a
Encoding: 97 97 68
Width: 624
GlyphClass: 2
Flags: W
HStem: -10 121<250.08 295.222 561.313 614.712> 225 91<261.432 359> 405 116<240.191 339.405>
VStem: 24 207<120.806 200.56> 359 192<130.597 225 316 389.012>
LayerCount: 2
Fore
SplineSet
369 71 m 1,0,1
 298.8 -10 298.8 -10 204 -10 c 256,2,3
 125.774193548 -10 125.774193548 -10 83 15.5 c 0,4,5
 24 50.6730769231 24 50.6730769231 24 143 c 0,6,7
 24 243.908045977 24 243.908045977 113.5 283 c 0,8,9
 189.052631579 316 189.052631579 316 359 316 c 1,10,-1
 359 345 l 2,11,12
 359 374 359 374 340 389.5 c 128,-1,13
 321 405 321 405 296.5 405 c 128,-1,14
 272 405 272 405 251 392 c 128,-1,15
 230 379 230 379 230 358 c 2,16,-1
 230 354 l 1,17,-1
 40 354 l 1,18,19
 39 359 39 359 39 368 c 0,20,21
 39 434.523809524 39 434.523809524 103.5 476.5 c 0,22,23
 171.87804878 521 171.87804878 521 279 521 c 2,24,-1
 312 521 l 2,25,26
 427.11627907 521 427.11627907 521 492 474.5 c 0,27,28
 551 432.216666667 551 432.216666667 551 359 c 2,29,-1
 551 148 l 2,30,31
 551 128 551 128 561 119.5 c 128,-1,32
 571 111 571 111 585 111 c 128,-1,33
 599 111 599 111 617 120 c 1,34,-1
 617 13 l 1,35,36
 580.857142857 -10 580.857142857 -10 514.928571429 -10 c 128,-1,37
 449 -10 449 -10 413 12.5 c 128,-1,38
 377 35 377 35 369 71 c 1,0,1
231 159 m 256,39,40
 231 130 231 130 249.5 120.5 c 128,-1,41
 268 111 268 111 293 111 c 128,-1,42
 318 111 318 111 338.5 130 c 128,-1,43
 359 149 359 149 359 181 c 2,44,-1
 359 225 l 1,45,46
 290 225 290 225 260.5 206.5 c 128,-1,47
 231 188 231 188 231 159 c 256,39,40
EndSplineSet
EndChar

StartChar: b
Encoding: 98 98 69
Width: 601
GlyphClass: 2
Flags: W
HStem: -10 121<266.564 352.697> 0 21G<50 138.133> 396 125<296.938 403.5> 700 20G<50 248>
VStem: 50 198<132.143 374.857 458 720> 372 201<132.143 374.857>
LayerCount: 2
Fore
SplineSet
188 75 m 1,0,-1
 120 0 l 1,1,-1
 50 0 l 1,2,-1
 50 720 l 1,3,-1
 248 720 l 1,4,-1
 248 458 l 1,5,6
 278.926829268 497.763066202 278.926829268 497.763066202 333 514.5 c 0,7,8
 354 521 354 521 387 521 c 128,-1,9
 420 521 420 521 455 505 c 128,-1,10
 490 489 490 489 516.5 456.5 c 0,11,12
 573 387.20754717 573 387.20754717 573 261 c 2,13,-1
 573 250 l 2,14,15
 573 124.457627119 573 124.457627119 509.5 54.5 c 0,16,17
 450.953846154 -10 450.953846154 -10 349.537898687 -10 c 128,-1,18
 248.12195122 -10 248.12195122 -10 188 75 c 1,0,-1
248 181 m 2,19,20
 248 152 248 152 266 131.5 c 128,-1,21
 284 111 284 111 310 111 c 256,22,23
 336 111 336 111 354 131.5 c 128,-1,24
 372 152 372 152 372 181 c 2,25,-1
 372 326 l 2,26,27
 372 355 372 355 354 375.5 c 128,-1,28
 336 396 336 396 310 396 c 256,29,30
 284 396 284 396 266 375.5 c 128,-1,31
 248 355 248 355 248 326 c 2,32,-1
 248 181 l 2,19,20
EndSplineSet
EndChar

StartChar: c
Encoding: 99 99 70
Width: 569
GlyphClass: 2
Flags: W
HStem: -10 121<259.248 367.404> 400 121<258.627 355.373>
VStem: 26 212<135.98 375.496>
LayerCount: 2
Fore
SplineSet
26 235 m 2,0,-1
 26 276 l 2,1,2
 26 377.739130435 26 377.739130435 100.5 449 c 0,3,4
 175.772727273 521 175.772727273 521 276 521 c 2,5,-1
 306 521 l 2,6,7
 417.293103448 521 417.293103448 521 482.5 459 c 0,8,9
 545 399.573770492 545 399.573770492 545 304 c 1,10,-1
 376 304 l 1,11,-1
 376 330 l 2,12,13
 376 359 376 359 356 379.5 c 128,-1,14
 336 400 336 400 307 400 c 256,15,16
 278 400 278 400 258 379.5 c 128,-1,17
 238 359 238 359 238 330 c 2,18,-1
 238 181 l 2,19,20
 238 152 238 152 258.5 131.5 c 128,-1,21
 279 111 279 111 308 111 c 2,22,-1
 320 111 l 2,23,24
 349 111 349 111 368 131.5 c 128,-1,25
 387 152 387 152 387 181 c 2,26,-1
 387 207 l 1,27,-1
 545 207 l 1,28,29
 545 104.161290323 545 104.161290323 480 46.5 c 0,30,31
 416.309090909 -10 416.309090909 -10 307 -10 c 2,32,-1
 278 -10 l 2,33,34
 176.772727273 -10 176.772727273 -10 101.5 62 c 0,35,36
 26 134.217391304 26 134.217391304 26 235 c 2,0,-1
EndSplineSet
EndChar

StartChar: d
Encoding: 100 100 71
Width: 601
GlyphClass: 2
Flags: W
HStem: -10 121<223.75 323.301> 0 21G<386.898 551> 396 125<181.377 312.173> 700 20G<353 551>
VStem: 28 201<132.143 374.857> 353 198<132.143 374.857 458 720>
LayerCount: 2
Fore
SplineSet
353 458 m 1,0,-1
 353 720 l 1,1,-1
 551 720 l 1,2,-1
 551 0 l 1,3,-1
 393 0 l 1,4,-1
 375 59 l 1,5,6
 354 33 354 33 323 11.5 c 128,-1,7
 292 -10 292 -10 246.5 -10 c 128,-1,8
 201 -10 201 -10 161 6 c 128,-1,9
 121 22 121 22 91.5 54.5 c 0,10,11
 28 124.457627119 28 124.457627119 28 250 c 2,12,-1
 28 261 l 2,13,14
 28 387.20754717 28 387.20754717 84.5 456.5 c 0,15,16
 137.092307692 521 137.092307692 521 225.661538462 521 c 128,-1,17
 314.230769231 521 314.230769231 521 353 458 c 1,0,-1
229 181 m 2,18,19
 229 152 229 152 247 131.5 c 128,-1,20
 265 111 265 111 291 111 c 256,21,22
 317 111 317 111 335 131.5 c 128,-1,23
 353 152 353 152 353 181 c 2,24,-1
 353 326 l 2,25,26
 353 355 353 355 335 375.5 c 128,-1,27
 317 396 317 396 291 396 c 256,28,29
 265 396 265 396 247 375.5 c 128,-1,30
 229 355 229 355 229 326 c 2,31,-1
 229 181 l 2,18,19
EndSplineSet
EndChar

StartChar: e
Encoding: 101 101 72
Width: 601
GlyphClass: 2
Flags: W
HStem: -10 121<262.206 367.121> 229 87<239 377> 400 121<259.627 356.373>
VStem: 27 212<132.718 229 316 378.857>
LayerCount: 2
Fore
SplineSet
27 240 m 2,0,-1
 27 271 l 2,1,2
 27 387.555555556 27 387.555555556 104 456 c 0,3,4
 177.125 521 177.125 521 300 521 c 2,5,-1
 325 521 l 2,6,7
 441.451612903 521 441.451612903 521 507.5 456 c 0,8,9
 572 392.523809524 572 392.523809524 572 291 c 2,10,-1
 572 229 l 1,11,-1
 239 229 l 1,12,-1
 239 181 l 2,13,14
 239 146 239 146 261.5 128.5 c 128,-1,15
 284 111 284 111 318 111 c 128,-1,16
 352 111 352 111 370 133 c 128,-1,17
 388 155 388 155 388 192 c 1,18,-1
 571 192 l 1,19,20
 571 104.359375 571 104.359375 506 48.5 c 0,21,22
 437.927272727 -10 437.927272727 -10 322 -10 c 2,23,-1
 307 -10 l 2,24,25
 183.671875 -10 183.671875 -10 107.5 55 c 0,26,27
 27 123.693333333 27 123.693333333 27 240 c 2,0,-1
239 316 m 1,28,-1
 377 316 l 1,29,-1
 377 330 l 2,30,31
 377 359 377 359 357 379.5 c 128,-1,32
 337 400 337 400 308 400 c 256,33,34
 279 400 279 400 259 379.5 c 128,-1,35
 239 359 239 359 239 330 c 2,36,-1
 239 316 l 1,28,-1
EndSplineSet
EndChar

StartChar: f
Encoding: 102 102 73
Width: 419
GlyphClass: 2
Flags: W
HStem: 0 21G<89 287> 369 142<25 89 287 407> 606 122<180.5 405.38>
VStem: 89 198<0 369 511 595.285>
LayerCount: 2
Fore
SplineSet
406 596 m 1,0,1
 378.5 606 378.5 606 356.75 606 c 128,-1,2
 335 606 335 606 324.5 604.5 c 128,-1,3
 314 603 314 603 306 597.5 c 0,4,5
 287 584.4375 287 584.4375 287 548 c 2,6,-1
 287 511 l 1,7,-1
 407 511 l 1,8,-1
 407 369 l 1,9,-1
 287 369 l 1,10,-1
 287 0 l 1,11,-1
 89 0 l 1,12,-1
 89 369 l 1,13,-1
 25 369 l 1,14,-1
 25 511 l 1,15,-1
 89 511 l 1,16,-1
 89 577 l 2,17,18
 89 728 89 728 272 728 c 0,19,20
 317.5 728 317.5 728 355.75 719.5 c 128,-1,21
 394 711 394 711 406 706 c 1,22,-1
 406 596 l 1,0,1
EndSplineSet
EndChar

StartChar: g
Encoding: 103 103 74
Width: 590
GlyphClass: 2
Flags: W
HStem: -188 105<182.955 396.045> 0 139<210.973 396.045> 200 97<252.049 337.951> 423 98<252.049 337.951>
VStem: 4 164<-70.1083 -12.3762> 32 177<105.864 192.332> 47 187<313.885 405.526> 356 179<314.15 406.189> 411 178<-72.9672 -10.219>
LayerCount: 2
Fore
SplineSet
209 170 m 0,0,1
 209 139 209 139 266 139 c 2,2,-1
 429 139 l 2,3,4
 548.333333333 139 548.333333333 139 579.5 45.5 c 0,5,6
 589 17 589 17 589 -17 c 256,7,8
 589 -85.1481481481 589 -85.1481481481 530 -136.5 c 128,-1,9
 470.829787234 -188 470.829787234 -188 389 -188 c 2,10,-1
 124 -188 l 2,11,12
 75 -188 75 -188 39.5 -152.5 c 128,-1,13
 4 -117 4 -117 4 -68 c 2,14,-1
 4 -63 l 2,15,16
 4 -26 4 -26 27 3 c 128,-1,17
 50 32 50 32 80 46 c 1,18,19
 32 78.7272727273 32 78.7272727273 32 133 c 0,20,21
 32 171 32 171 59 200.5 c 128,-1,22
 86 230 86 230 124 240 c 1,23,24
 47 292.9375 47 292.9375 47 360 c 0,25,26
 47 430.385964912 47 430.385964912 103.5 474 c 0,27,28
 164.386363636 521 164.386363636 521 277 521 c 2,29,-1
 305 521 l 2,30,31
 341 521 341 521 371 515 c 1,32,33
 412.761658031 542.305699482 412.761658031 542.305699482 433 577 c 0,34,35
 441 591 441 591 441 603 c 1,36,-1
 589 603 l 1,37,38
 589 542 589 542 560 512 c 128,-1,39
 531 482 531 482 479 468 c 1,40,41
 535 422.769230769 535 422.769230769 535 361 c 0,42,43
 535 295.074074074 535 295.074074074 476 247 c 0,44,45
 418.318181818 200 418.318181818 200 335 200 c 2,46,-1
 266 200 l 2,47,48
 235 200 235 200 222 191 c 128,-1,49
 209 182 209 182 209 170 c 0,0,1
168 -41 m 256,50,51
 168 -58 168 -58 182.5 -70.5 c 128,-1,52
 197 -83 197 -83 218 -83 c 2,53,-1
 361 -83 l 2,54,55
 382 -83 382 -83 396.5 -71 c 128,-1,56
 411 -59 411 -59 411 -42 c 256,57,58
 411 -25 411 -25 396.5 -12.5 c 128,-1,59
 382 0 382 0 361 0 c 2,60,-1
 218 0 l 2,61,62
 197 0 197 0 182.5 -12 c 128,-1,63
 168 -24 168 -24 168 -41 c 256,50,51
234 360 m 256,64,65
 234 334 234 334 251.5 315.5 c 128,-1,66
 269 297 269 297 295 297 c 256,67,68
 321 297 321 297 338.5 315.5 c 128,-1,69
 356 334 356 334 356 360 c 256,70,71
 356 386 356 386 338.5 404.5 c 128,-1,72
 321 423 321 423 295 423 c 256,73,74
 269 423 269 423 251.5 404.5 c 128,-1,75
 234 386 234 386 234 360 c 256,64,65
EndSplineSet
EndChar

StartChar: h
Encoding: 104 104 75
Width: 599
GlyphClass: 2
Flags: W
HStem: 0 21G<50 248 354 552> 501 20G<336.789 433> 700 20G<50 248>
VStem: 50 198<0 361.951 451 720> 354 198<0 361.951>
LayerCount: 2
Fore
SplineSet
248 451 m 1,0,1
 299.578947368 521 299.578947368 521 374 521 c 2,2,-1
 402 521 l 2,3,4
 464 521 464 521 508 477 c 128,-1,5
 552 433 552 433 552 371 c 2,6,-1
 552 0 l 1,7,-1
 354 0 l 1,8,-1
 354 320 l 2,9,10
 354 345 354 345 338.5 362.5 c 128,-1,11
 323 380 323 380 301 380 c 256,12,13
 279 380 279 380 263.5 362.5 c 128,-1,14
 248 345 248 345 248 320 c 2,15,-1
 248 0 l 1,16,-1
 50 0 l 1,17,-1
 50 720 l 1,18,-1
 248 720 l 1,19,-1
 248 451 l 1,0,1
EndSplineSet
EndChar

StartChar: i
Encoding: 105 105 76
Width: 297
GlyphClass: 2
Flags: W
HStem: 0 21G<50 247> 490 20G<50 247> 577 143<50 247>
VStem: 50 197<0 510 577 720>
LayerCount: 2
Fore
SplineSet
50 0 m 1,0,-1
 50 510 l 1,1,-1
 247 510 l 1,2,-1
 247 0 l 1,3,-1
 50 0 l 1,0,-1
50 577 m 1,4,-1
 50 720 l 1,5,-1
 247 720 l 1,6,-1
 247 577 l 1,7,-1
 50 577 l 1,4,-1
EndSplineSet
EndChar

StartChar: j
Encoding: 106 106 77
Width: 299
GlyphClass: 2
Flags: W
HStem: -187 122<-67.3974 107> 490 20G<50 249> 577 143<50 249>
VStem: 50 199<-51.9479 510 577 720>
LayerCount: 2
Fore
SplineSet
-68 -53 m 1,0,1
 -41.6 -65 -41.6 -65 -18.8 -65 c 128,-1,2
 4 -65 4 -65 14.5 -62.5 c 128,-1,3
 25 -60 25 -60 32.5 -52.5 c 0,4,5
 50 -35 50 -35 50 4 c 2,6,-1
 50 510 l 1,7,-1
 249 510 l 1,8,-1
 249 -26 l 2,9,10
 249 -107 249 -107 198.5 -147 c 128,-1,11
 148 -187 148 -187 66 -187 c 0,12,13
 18.375 -187 18.375 -187 -18.8125 -178.5 c 128,-1,14
 -56 -170 -56 -170 -68 -165 c 1,15,-1
 -68 -53 l 1,0,1
50 577 m 1,16,-1
 50 720 l 1,17,-1
 249 720 l 1,18,-1
 249 577 l 1,19,-1
 50 577 l 1,16,-1
EndSplineSet
EndChar

StartChar: k
Encoding: 107 107 78
Width: 603
GlyphClass: 2
Flags: W
HStem: 0 21G<50 248 361.586 607> 491 20G<364.316 604> 700 20G<50 248>
VStem: 50 198<0 114 321 720>
LayerCount: 2
Fore
SplineSet
50 0 m 1,0,-1
 50 720 l 1,1,-1
 248 720 l 1,2,-1
 248 321 l 1,3,-1
 378 511 l 1,4,-1
 604 511 l 1,5,-1
 425 280 l 1,6,-1
 607 0 l 1,7,-1
 374 0 l 1,8,-1
 284 145 l 1,9,-1
 248 114 l 1,10,-1
 248 0 l 1,11,-1
 50 0 l 1,0,-1
EndSplineSet
EndChar

StartChar: l
Encoding: 108 108 79
Width: 298
GlyphClass: 2
Flags: W
HStem: 0 21G<50 248> 700 20G<50 248>
VStem: 50 198<0 720>
LayerCount: 2
Fore
SplineSet
50 0 m 1,0,-1
 50 720 l 1,1,-1
 248 720 l 1,2,-1
 248 0 l 1,3,-1
 50 0 l 1,0,-1
EndSplineSet
EndChar

StartChar: m
Encoding: 109 109 80
Width: 871
GlyphClass: 2
Flags: W
HStem: 0 21G<50 244 340 534 630 824> 379 142<285 325.561 569.507 615.561> 491 20G<50 203.676>
VStem: 50 194<0 363.529> 340 194<0 363.529> 630 194<0 363.529>
CounterMasks: 1 1c
LayerCount: 2
Fore
SplineSet
219 437 m 1,0,1
 282 521 282 521 357 521 c 2,2,-1
 384 521 l 2,3,4
 427 521 427 521 461.5 499.5 c 128,-1,5
 496 478 496 478 515 443 c 1,6,7
 535 478 535 478 569.5 499.5 c 128,-1,8
 604 521 604 521 647 521 c 2,9,-1
 674 521 l 2,10,11
 736 521 736 521 780 477 c 128,-1,12
 824 433 824 433 824 371 c 2,13,-1
 824 0 l 1,14,-1
 630 0 l 1,15,-1
 630 324 l 2,16,17
 630 349 630 349 616 364 c 128,-1,18
 602 379 602 379 582 379 c 256,19,20
 562 379 562 379 548 364 c 128,-1,21
 534 349 534 349 534 324 c 2,22,-1
 534 0 l 1,23,-1
 340 0 l 1,24,-1
 340 324 l 2,25,26
 340 349 340 349 326 364 c 128,-1,27
 312 379 312 379 292 379 c 256,28,29
 272 379 272 379 258 364 c 128,-1,30
 244 349 244 349 244 324 c 2,31,-1
 244 0 l 1,32,-1
 50 0 l 1,33,-1
 50 511 l 1,34,-1
 198 511 l 1,35,-1
 219 437 l 1,0,1
EndSplineSet
EndChar

StartChar: n
Encoding: 110 110 81
Width: 599
GlyphClass: 2
Flags: W
HStem: 0 21G<50 248 354 552> 380 141<285.75 338.014> 491 20G<50 204.405>
VStem: 50 198<0 361.951> 354 198<0 361.951>
LayerCount: 2
Fore
SplineSet
219 437 m 1,0,1
 275 521 275 521 374 521 c 2,2,-1
 402 521 l 2,3,4
 464 521 464 521 508 477 c 128,-1,5
 552 433 552 433 552 371 c 2,6,-1
 552 0 l 1,7,-1
 354 0 l 1,8,-1
 354 320 l 2,9,10
 354 345 354 345 338.5 362.5 c 128,-1,11
 323 380 323 380 301 380 c 256,12,13
 279 380 279 380 263.5 362.5 c 128,-1,14
 248 345 248 345 248 320 c 2,15,-1
 248 0 l 1,16,-1
 50 0 l 1,17,-1
 50 511 l 1,18,-1
 199 511 l 1,19,-1
 219 437 l 1,0,1
EndSplineSet
EndChar

StartChar: o
Encoding: 111 111 82
Width: 614
GlyphClass: 2
Flags: W
HStem: -10 121<259.368 354.492> 400 121<259.368 354.632>
VStem: 26 212<137.443 373.557> 376 212<136.524 373.557>
LayerCount: 2
Fore
SplineSet
26 245 m 2,0,-1
 26 266 l 2,1,2
 26 377.690140845 26 377.690140845 101.5 450 c 0,3,4
 175.632352941 521 175.632352941 521 291 521 c 2,5,-1
 323 521 l 2,6,7
 438.367647059 521 438.367647059 521 512.5 450 c 0,8,9
 588 377.690140845 588 377.690140845 588 266 c 2,10,-1
 588 245 l 2,11,12
 588 131.746478873 588 131.746478873 512.5 60.5 c 0,13,14
 437.791044776 -10 437.791044776 -10 323 -10 c 2,15,-1
 291 -10 l 2,16,17
 175.632352941 -10 175.632352941 -10 101.5 61 c 0,18,19
 26 133.309859155 26 133.309859155 26 245 c 2,0,-1
238 181 m 2,20,21
 238 152 238 152 258 131.5 c 128,-1,22
 278 111 278 111 307 111 c 256,23,24
 336 111 336 111 356 131.5 c 128,-1,25
 376 152 376 152 376 181 c 2,26,-1
 376 330 l 2,27,28
 376 359 376 359 356 379.5 c 128,-1,29
 336 400 336 400 307 400 c 256,30,31
 278 400 278 400 258 379.5 c 128,-1,32
 238 359 238 359 238 330 c 2,33,-1
 238 181 l 2,20,21
EndSplineSet
EndChar

StartChar: p
Encoding: 112 112 83
Width: 601
GlyphClass: 2
Flags: W
HStem: -181 21G<50 248> -10 125<289.575 353.436> 400 121<276.787 402.977> 491 20G<50 214.102>
VStem: 50 198<-181 53 136.143 378.857> 372 201<136.143 378.857>
LayerCount: 2
Fore
SplineSet
248 53 m 1,0,-1
 248 -181 l 1,1,-1
 50 -181 l 1,2,-1
 50 511 l 1,3,-1
 208 511 l 1,4,-1
 226 452 l 1,5,6
 279.076923077 521 279.076923077 521 355 521 c 0,7,8
 450.953846154 521 450.953846154 521 509.5 456.5 c 0,9,10
 573 386.542372881 573 386.542372881 573 261 c 2,11,-1
 573 250 l 2,12,13
 573 123.79245283 573 123.79245283 516.5 54.5 c 0,14,15
 463.907692308 -10 463.907692308 -10 375.338461538 -10 c 128,-1,16
 286.769230769 -10 286.769230769 -10 248 53 c 1,0,-1
248 185 m 2,17,18
 248 156 248 156 266 135.5 c 128,-1,19
 284 115 284 115 310 115 c 256,20,21
 336 115 336 115 354 135.5 c 128,-1,22
 372 156 372 156 372 185 c 2,23,-1
 372 330 l 2,24,25
 372 359 372 359 354 379.5 c 128,-1,26
 336 400 336 400 310 400 c 256,27,28
 284 400 284 400 266 379.5 c 128,-1,29
 248 359 248 359 248 330 c 2,30,-1
 248 185 l 2,17,18
EndSplineSet
EndChar

StartChar: q
Encoding: 113 113 84
Width: 600
GlyphClass: 2
Flags: W
HStem: -180 21G<352 550> -11 125<178.046 301.845> 399 121<195.777 333.757> 491 20G<457.647 550>
VStem: 27 201<135.143 377.857> 352 198<-180 52 135.143 377.857>
LayerCount: 2
Fore
SplineSet
352 52 m 1,0,1
 296 -11 296 -11 220 -11 c 0,2,3
 136.092307692 -11 136.092307692 -11 83.5 53.5 c 0,4,5
 27 122.79245283 27 122.79245283 27 249 c 2,6,-1
 27 260 l 2,7,8
 27 384.896551724 27 384.896551724 90 455.5 c 0,9,10
 147.553846154 520 147.553846154 520 244 520 c 0,11,12
 298 520 298 520 336.5 502 c 128,-1,13
 375 484 375 484 404 443 c 1,14,-1
 480 511 l 1,15,-1
 550 511 l 1,16,-1
 550 -180 l 1,17,-1
 352 -180 l 1,18,-1
 352 52 l 1,0,1
228 184 m 2,19,20
 228 155 228 155 246 134.5 c 128,-1,21
 264 114 264 114 290 114 c 256,22,23
 316 114 316 114 334 134.5 c 128,-1,24
 352 155 352 155 352 184 c 2,25,-1
 352 329 l 2,26,27
 352 358 352 358 334 378.5 c 128,-1,28
 316 399 316 399 290 399 c 256,29,30
 264 399 264 399 246 378.5 c 128,-1,31
 228 358 228 358 228 329 c 2,32,-1
 228 184 l 2,19,20
EndSplineSet
EndChar

StartChar: r
Encoding: 114 114 85
Width: 506
GlyphClass: 2
Flags: W
HStem: 0 21G<50 243> 378 143<279.553 388.5> 491 20G<50 203.946>
VStem: 50 193<0 363.045> 328 166<304 363.045>
LayerCount: 2
Fore
SplineSet
50 0 m 1,0,-1
 50 511 l 1,1,-1
 198 511 l 1,2,-1
 220 437 l 1,3,4
 243.567567568 484.135135135 243.567567568 484.135135135 300 510 c 0,5,6
 324 521 324 521 355 521 c 0,7,8
 422 521 422 521 458 484 c 128,-1,9
 494 447 494 447 494 384 c 2,10,-1
 494 367 l 2,11,12
 494 351 494 351 492 329 c 2,13,-1
 490 304 l 1,14,-1
 328 304 l 1,15,-1
 328 328 l 2,16,17
 328 349 328 349 315.5 363.5 c 128,-1,18
 303 378 303 378 285.5 378 c 128,-1,19
 268 378 268 378 255.5 363.5 c 128,-1,20
 243 349 243 349 243 328 c 2,21,-1
 243 0 l 1,22,-1
 50 0 l 1,0,-1
EndSplineSet
EndChar

StartChar: s
Encoding: 115 115 86
Width: 559
GlyphClass: 2
Flags: W
HStem: -10 121<197.929 351.189> 403 118<213.547 346.895>
VStem: 38 173<301.923 396.21> 356 176<119.736 218.345>
LayerCount: 2
Fore
SplineSet
285 403 m 0,0,1
 211 403 211 403 211 374 c 0,2,3
 211 356 211 356 235 349 c 128,-1,4
 259 342 259 342 294.5 338 c 128,-1,5
 330 334 330 334 371.5 328 c 128,-1,6
 413 322 413 322 448.5 305.5 c 0,7,8
 532 266.690140845 532 266.690140845 532 170 c 0,9,10
 532 75.7014925373 532 75.7014925373 457.5 29 c 0,11,12
 395.285714286 -10 395.285714286 -10 295 -10 c 2,13,-1
 243 -10 l 2,14,15
 154.692307692 -10 154.692307692 -10 92.5 28.5 c 0,16,17
 22 72.1428571429 22 72.1428571429 22 149 c 2,18,-1
 22 158 l 2,19,20
 22 162 22 162 23 167 c 1,21,-1
 185 167 l 1,22,-1
 185 163 l 2,23,24
 185 134.846153846 185 134.846153846 215 121 c 0,25,26
 236.666666667 111 236.666666667 111 271 111 c 0,27,28
 356 111 356 111 356 142 c 0,29,30
 356 161 356 161 332.5 168.5 c 128,-1,31
 309 176 309 176 273.5 181 c 128,-1,32
 238 186 238 186 197 193 c 128,-1,33
 156 200 156 200 120.5 216.5 c 0,34,35
 38 254.845070423 38 254.845070423 38 349 c 0,36,37
 38 433.217391304 38 433.217391304 116.5 481 c 0,38,39
 182.214285714 521 182.214285714 521 273 521 c 2,40,-1
 304 521 l 2,41,42
 382.411764706 521 382.411764706 521 445.5 488 c 0,43,44
 521 448.507692308 521 448.507692308 521 384 c 1,45,-1
 520 365 l 2,46,47
 519 361 519 361 519 358 c 1,48,-1
 355 358 l 1,49,50
 355 393.4 355 393.4 307.5 401 c 0,51,52
 295 403 295 403 285 403 c 0,0,1
EndSplineSet
EndChar

StartChar: t
Encoding: 116 116 87
Width: 419
GlyphClass: 2
Flags: W
HStem: -11 122<287.16 394.343> 369 142<23 79 277 397>
VStem: 79 198<119.969 369>
LayerCount: 2
Fore
SplineSet
334 111 m 256,0,1
 367.2 111 367.2 111 396 123 c 1,2,-1
 396 11 l 1,3,4
 343.2 -11 343.2 -11 262 -11 c 0,5,6
 129 -11 129 -11 92.5 62 c 0,7,8
 79 89 79 89 79 130 c 2,9,-1
 79 369 l 1,10,-1
 23 369 l 1,11,-1
 23 511 l 1,12,-1
 87 511 l 1,13,-1
 156 674 l 1,14,-1
 277 674 l 1,15,-1
 277 511 l 1,16,-1
 397 511 l 1,17,-1
 397 369 l 1,18,-1
 277 369 l 1,19,-1
 277 180 l 2,20,21
 277 122.5 277 122.5 313 113.5 c 0,22,23
 323 111 323 111 334 111 c 256,0,1
EndSplineSet
EndChar

StartChar: u
Encoding: 117 117 88
Width: 628
GlyphClass: 2
Flags: W
HStem: -10 121<558.313 611.712> 491 20G<46 244 350 548>
VStem: 46 198<149.049 511> 350 198<149.049 511>
LayerCount: 2
Fore
SplineSet
614 13 m 1,0,1
 577.857142857 -10 577.857142857 -10 511.928571429 -10 c 128,-1,2
 446 -10 446 -10 413 11.5 c 128,-1,3
 380 33 380 33 366 71 c 1,4,5
 335.18 24.77 335.18 24.77 274 -0.5 c 0,6,7
 251 -10 251 -10 224 -10 c 2,8,-1
 196 -10 l 2,9,10
 134 -10 134 -10 90 34 c 128,-1,11
 46 78 46 78 46 140 c 2,12,-1
 46 511 l 1,13,-1
 244 511 l 1,14,-1
 244 191 l 2,15,16
 244 166 244 166 259.5 148.5 c 128,-1,17
 275 131 275 131 297 131 c 256,18,19
 319 131 319 131 334.5 148.5 c 128,-1,20
 350 166 350 166 350 191 c 2,21,-1
 350 511 l 1,22,-1
 548 511 l 1,23,-1
 548 148 l 2,24,25
 548 128 548 128 558 119.5 c 128,-1,26
 568 111 568 111 582 111 c 128,-1,27
 596 111 596 111 614 120 c 1,28,-1
 614 13 l 1,0,1
EndSplineSet
EndChar

StartChar: v
Encoding: 118 118 89
Width: 559
GlyphClass: 2
Flags: W
HStem: 0 21G<157.542 399.536> 491 20G<-1 215.137 361.863 560>
LayerCount: 2
Fore
SplineSet
-1 511 m 1,0,-1
 210 511 l 1,1,-1
 285 219 l 1,2,-1
 292 219 l 1,3,-1
 367 511 l 1,4,-1
 560 511 l 1,5,-1
 393 0 l 1,6,-1
 164 0 l 1,7,-1
 -1 511 l 1,0,-1
EndSplineSet
EndChar

StartChar: w
Encoding: 119 119 90
Width: 855
GlyphClass: 2
Flags: W
HStem: 0 21G<143.325 381.507 477.399 711.714> 491 20G<4 214.419 330.271 539.651 655.581 852>
LayerCount: 2
Fore
SplineSet
4 511 m 1,0,-1
 210 511 l 1,1,-1
 267 253 l 1,2,-1
 274 253 l 1,3,-1
 335 511 l 1,4,-1
 535 511 l 1,5,-1
 595 253 l 1,6,-1
 603 253 l 1,7,-1
 660 511 l 1,8,-1
 852 511 l 1,9,-1
 706 0 l 1,10,-1
 482 0 l 1,11,-1
 433 213 l 1,12,-1
 425 213 l 1,13,-1
 377 0 l 1,14,-1
 149 0 l 1,15,-1
 4 511 l 1,0,-1
EndSplineSet
EndChar

StartChar: x
Encoding: 120 120 91
Width: 585
GlyphClass: 2
Flags: W
HStem: 0 21G<-7 216.769 352.371 590> 491 20G<11 248.508 355.492 579>
LayerCount: 2
Fore
SplineSet
-7 0 m 1,0,-1
 163 270 l 1,1,-1
 11 511 l 1,2,-1
 238 511 l 1,3,-1
 300 393 l 1,4,-1
 304 393 l 1,5,-1
 366 511 l 1,6,-1
 579 511 l 1,7,-1
 423 265 l 1,8,-1
 590 0 l 1,9,-1
 363 0 l 1,10,-1
 287 143 l 1,11,-1
 283 143 l 1,12,-1
 206 0 l 1,13,-1
 -7 0 l 1,0,-1
EndSplineSet
EndChar

StartChar: y
Encoding: 121 121 92
Width: 553
GlyphClass: 2
Flags: W
HStem: -187 130<31.9827 161.753> 491 20G<-4 212.962 355.943 556>
LayerCount: 2
Fore
SplineSet
31 -43 m 1,0,1
 61.8 -57 61.8 -57 95.4 -57 c 128,-1,2
 129 -57 129 -57 143.5 -49.5 c 128,-1,3
 158 -42 158 -42 166 -30.5 c 0,4,5
 177.591836735 -13.8367346939 177.591836735 -13.8367346939 184 15 c 1,6,-1
 -4 511 l 1,7,-1
 207 511 l 1,8,-1
 286 246 l 1,9,-1
 294 246 l 1,10,-1
 361 511 l 1,11,-1
 556 511 l 1,12,-1
 384 36 l 1,13,14
 328.223708774 -121.485998755 328.223708774 -121.485998755 215.5 -170 c 0,15,16
 176 -187 176 -187 119.4375 -187 c 128,-1,17
 62.875 -187 62.875 -187 31 -172 c 1,18,-1
 31 -43 l 1,0,1
EndSplineSet
EndChar

StartChar: z
Encoding: 122 122 93
Width: 498
GlyphClass: 2
Flags: W
HStem: 0 124<277 474> 387 124<33 210>
LayerCount: 2
Fore
SplineSet
22 0 m 1,0,-1
 22 63 l 1,1,-1
 210 387 l 1,2,-1
 33 387 l 1,3,-1
 33 511 l 1,4,-1
 466 511 l 1,5,-1
 466 451 l 1,6,-1
 277 124 l 1,7,-1
 474 124 l 1,8,-1
 474 0 l 1,9,-1
 22 0 l 1,0,-1
EndSplineSet
EndChar

StartChar: braceleft
Encoding: 123 123 94
Width: 343
GlyphClass: 2
Flags: W
HStem: -159 68<272.5 320> 224 79<21 73.764> 618 68<251.196 320>
VStem: 98 146<-81.598 94.5 432.8 608.182> 98 136<12.5 210.29 321.21 515.2>
CounterMasks: 1 e0
LayerCount: 2
Fore
SplineSet
21 224 m 1,0,-1
 21 303 l 1,1,2
 48.6153846154 303 48.6153846154 303 66.3076923077 313 c 0,3,4
 98 330.913043478 98 330.913043478 98 360 c 2,5,-1
 98 574 l 2,6,7
 98 627.5 98 627.5 143 659 c 0,8,9
 181.571428571 686 181.571428571 686 239 686 c 2,10,-1
 320 686 l 1,11,-1
 320 618 l 1,12,13
 246.928571429 618 246.928571429 618 244 577 c 2,14,-1
 234 371 l 2,15,16
 229.795918367 268 229.795918367 268 133 268 c 1,17,-1
 133 259 l 1,18,19
 229.795918367 259 229.795918367 259 234 156 c 2,20,-1
 244 -49 l 2,21,22
 245.769230769 -73.7692307692 245.769230769 -73.7692307692 272 -84.5 c 0,23,24
 287.888888889 -91 287.888888889 -91 320 -91 c 1,25,-1
 320 -159 l 1,26,-1
 239 -159 l 2,27,28
 147.404761905 -159 147.404761905 -159 110.5 -97 c 0,29,30
 98 -76 98 -76 98 -47 c 2,31,-1
 98 169 l 2,32,33
 98 199 98 199 74.5 211.5 c 128,-1,34
 51 224 51 224 21 224 c 1,0,-1
EndSplineSet
EndChar

StartChar: bar
Encoding: 124 124 95
Width: 232
GlyphClass: 2
Flags: W
HStem: 700 20G<56 176>
VStem: 56 120<-199 720>
LayerCount: 2
Fore
SplineSet
56 -199 m 1,0,-1
 56 720 l 1,1,-1
 176 720 l 1,2,-1
 176 -199 l 1,3,-1
 56 -199 l 1,0,-1
EndSplineSet
EndChar

StartChar: braceright
Encoding: 125 125 96
Width: 343
GlyphClass: 2
Flags: W
HStem: -159 68<23 91.7754> 224 79<269.751 321> 618 68<23 91.8833>
VStem: 99 146<-81.146 94.5 432.8 607.873> 109 136<12.5 208.078 318.922 515.2>
CounterMasks: 1 e0
LayerCount: 2
Fore
SplineSet
23 -91 m 1,0,1
 96 -91 96 -91 99 -49 c 2,2,-1
 109 156 l 2,3,4
 113.204081633 259 113.204081633 259 210 259 c 1,5,-1
 210 268 l 1,6,7
 113.204081633 268 113.204081633 268 109 371 c 2,8,-1
 99 577 l 2,9,10
 97.2843450479 601.019169329 97.2843450479 601.019169329 70.5 611.5 c 0,11,12
 53.8888888889 618 53.8888888889 618 23 618 c 1,13,-1
 23 686 l 1,14,-1
 104 686 l 2,15,16
 195.595238095 686 195.595238095 686 232.5 624 c 0,17,18
 245 603 245 603 245 574 c 2,19,-1
 245 360 l 2,20,21
 245 330 245 330 269 316.5 c 128,-1,22
 293 303 293 303 321 303 c 1,23,-1
 321 224 l 1,24,25
 271.666666667 224 271.666666667 224 252 194.5 c 0,26,27
 245 184 245 184 245 169 c 2,28,-1
 245 -47 l 2,29,30
 245 -100.5 245 -100.5 200 -132 c 0,31,32
 161.428571429 -159 161.428571429 -159 104 -159 c 2,33,-1
 23 -159 l 1,34,-1
 23 -91 l 1,0,1
EndSplineSet
EndChar

StartChar: asciitilde
Encoding: 126 126 97
Width: 648
GlyphClass: 2
Flags: W
HStem: 202 126<354.086 530.57> 268 126<121.168 295.914>
LayerCount: 2
Fore
SplineSet
43 190 m 1,0,-1
 43 316 l 1,1,2
 63 337 63 337 87 353 c 0,3,4
 148.5 394 148.5 394 206 394 c 0,5,6
 238 394 238 394 266.5 383.5 c 128,-1,7
 295 373 295 373 323.5 361 c 128,-1,8
 352 349 352 349 381.5 338.5 c 128,-1,9
 411 328 411 328 445 328 c 0,10,11
 503.8 328 503.8 328 561 367 c 0,12,13
 587 384 587 384 607 406 c 1,14,-1
 607 280 l 1,15,16
 568.714285714 237.885714286 568.714285714 237.885714286 509 214 c 0,17,18
 479 202 479 202 445.5 202 c 128,-1,19
 412 202 412 202 383.5 212.5 c 128,-1,20
 355 223 355 223 326.5 235 c 128,-1,21
 298 247 298 247 268.5 257.5 c 128,-1,22
 239 268 239 268 204.5 268 c 0,23,24
 150.285714286 268 150.285714286 268 89 229 c 1,25,26
 63 211 63 211 43 190 c 1,0,-1
EndSplineSet
EndChar

StartChar: exclamdown
Encoding: 161 161 99
Width: 297
GlyphClass: 2
Flags: W
HStem: 328 183<53 244>
VStem: 53 191<328 511> 86 127<222.123 278>
LayerCount: 2
Fore
SplineSet
29 -177 m 1,0,-1
 86 278 l 1,1,-1
 213 278 l 1,2,-1
 267 -177 l 1,3,-1
 29 -177 l 1,0,-1
53 328 m 1,4,-1
 53 511 l 1,5,-1
 244 511 l 1,6,-1
 244 328 l 1,7,-1
 53 328 l 1,4,-1
EndSplineSet
EndChar

StartChar: cent
Encoding: 162 162 100
Width: 579
GlyphClass: 2
Flags: W
HStem: 486 208<264.627 348.621>
VStem: 32 212<222.064 461.568>
LayerCount: 2
Fore
SplineSet
32 321 m 2,0,-1
 32 362 l 2,1,2
 32 455.118644068 32 455.118644068 95.5 524 c 128,-1,3
 158.98456057 592.864608076 158.98456057 592.864608076 250 605 c 1,4,-1
 233 694 l 1,5,-1
 362 694 l 1,6,-1
 349 605 l 1,7,8
 447 594 447 594 499 535 c 128,-1,9
 551 476 551 476 551 390 c 1,10,-1
 382 390 l 1,11,-1
 382 416 l 2,12,13
 382 445 382 445 362 465.5 c 128,-1,14
 342 486 342 486 313 486 c 256,15,16
 284 486 284 486 264 465.5 c 128,-1,17
 244 445 244 445 244 416 c 2,18,-1
 244 267 l 2,19,20
 244 238 244 238 264.5 217.5 c 128,-1,21
 285 197 285 197 314 197 c 2,22,-1
 326 197 l 2,23,24
 355 197 355 197 374 217.5 c 128,-1,25
 393 238 393 238 393 267 c 2,26,-1
 393 293 l 1,27,-1
 551 293 l 1,28,29
 551 197 551 197 497 142 c 128,-1,30
 443 87 443 87 349 78 c 1,31,-1
 364 -10 l 1,32,-1
 233 -10 l 1,33,-1
 250 78 l 1,34,35
 160.175438596 89.9766081871 160.175438596 89.9766081871 96 159.5 c 128,-1,36
 32 228.833333333 32 228.833333333 32 321 c 2,0,-1
EndSplineSet
EndChar

StartChar: sterling
Encoding: 163 163 101
Width: 667
GlyphClass: 2
Flags: W
HStem: 0 147<63 127 304 586> 266 147<33 127 325 421> 552 148<340.321 425.874>
VStem: 127 198<226.333 266 413 534.467>
LayerCount: 2
Fore
SplineSet
33 266 m 1,0,-1
 33 413 l 1,1,-1
 127 413 l 1,2,-1
 127 493 l 2,3,4
 127 580 127 580 202 640 c 128,-1,5
 277 700 277 700 383 700 c 256,6,7
 490 700 490 700 565 640 c 128,-1,8
 640 580 640 580 640 494 c 2,9,-1
 640 466 l 1,10,-1
 441 466 l 1,11,-1
 441 494 l 2,12,13
 441 518 441 518 424 535 c 128,-1,14
 407 552 407 552 383 552 c 256,15,16
 359 552 359 552 342 535 c 128,-1,17
 325 518 325 518 325 494 c 2,18,-1
 325 413 l 1,19,-1
 421 413 l 1,20,-1
 421 266 l 1,21,-1
 324 266 l 1,22,-1
 304 147 l 1,23,-1
 586 147 l 1,24,-1
 586 0 l 1,25,-1
 63 0 l 1,26,-1
 63 147 l 1,27,-1
 127 147 l 1,28,-1
 127 266 l 1,29,-1
 33 266 l 1,0,-1
EndSplineSet
EndChar

StartChar: currency
Encoding: 164 164 102
Width: 607
GlyphClass: 2
Flags: W
HStem: 91 110<232.816 374.151> 477 110<232.481 373.835>
VStem: 55 120<260.526 417.942> 431 120<259.875 418.142>
LayerCount: 2
Fore
SplineSet
445 139 m 1,0,1
 397 91 397 91 304.090909091 91 c 128,-1,2
 211.181818182 91 211.181818182 91 161 137 c 1,3,-1
 104 80 l 1,4,-1
 43 141 l 1,5,-1
 101 199 l 1,6,7
 55 251.272727273 55 251.272727273 55 342.136363636 c 128,-1,8
 55 433 55 433 101 479 c 1,9,-1
 43 537 l 1,10,-1
 106 600 l 1,11,-1
 163 543 l 1,12,13
 186 563 186 563 224.5 575 c 128,-1,14
 263 587 263 587 304 587 c 128,-1,15
 345 587 345 587 382 575 c 128,-1,16
 419 563 419 563 439 545 c 1,17,-1
 497 603 l 1,18,-1
 565 535 l 1,19,-1
 509 479 l 1,20,21
 529 458 529 458 540 419.5 c 128,-1,22
 551 381 551 381 551 339 c 0,23,24
 551 251.476190476 551 251.476190476 507 197 c 1,25,-1
 563 141 l 1,26,-1
 503 81 l 1,27,-1
 445 139 l 1,0,1
175 338.5 m 0,28,29
 175 310 175 310 184.5 285 c 128,-1,30
 194 260 194 260 211.5 241 c 0,31,32
 248.342105263 201 248.342105263 201 303 201 c 0,33,34
 359.315789474 201 359.315789474 201 396 242 c 0,35,36
 431 281.117647059 431 281.117647059 431 339 c 256,37,38
 431 396.882352941 431 396.882352941 396 436 c 0,39,40
 359.315789474 477 359.315789474 477 303 477 c 0,41,42
 248.216216216 477 248.216216216 477 211 436.5 c 0,43,44
 175 397.323529412 175 397.323529412 175 338.5 c 0,28,29
EndSplineSet
EndChar

StartChar: yen
Encoding: 165 165 103
Width: 710
GlyphClass: 2
Flags: W
HStem: 0 21G<250 459> 224 93<68 221 488 647> 364 93<68 145 563 647> 666 20G<22 267.156 461.667 686>
VStem: 250 209<0 224>
LayerCount: 2
Fore
SplineSet
22 686 m 1,0,-1
 258 686 l 1,1,-1
 361 461 l 1,2,-1
 366 461 l 1,3,-1
 471 686 l 1,4,-1
 686 686 l 1,5,-1
 563 457 l 1,6,-1
 647 457 l 1,7,-1
 647 364 l 1,8,-1
 514 364 l 1,9,-1
 488 317 l 1,10,-1
 647 317 l 1,11,-1
 647 224 l 1,12,-1
 459 224 l 1,13,-1
 459 0 l 1,14,-1
 250 0 l 1,15,-1
 250 224 l 1,16,-1
 68 224 l 1,17,-1
 68 317 l 1,18,-1
 221 317 l 1,19,-1
 195 364 l 1,20,-1
 68 364 l 1,21,-1
 68 457 l 1,22,-1
 145 457 l 1,23,-1
 22 686 l 1,0,-1
EndSplineSet
EndChar

StartChar: brokenbar
Encoding: 166 166 104
Width: 272
GlyphClass: 2
Flags: W
HStem: 0 21G<61 211> 666 20G<61 211>
VStem: 61 150<0 274 412 686>
LayerCount: 2
Fore
SplineSet
61 0 m 1,0,-1
 61 274 l 1,1,-1
 211 274 l 1,2,-1
 211 0 l 1,3,-1
 61 0 l 1,0,-1
61 412 m 1,4,-1
 61 686 l 1,5,-1
 211 686 l 1,6,-1
 211 412 l 1,7,-1
 61 412 l 1,4,-1
EndSplineSet
EndChar

StartChar: section
Encoding: 167 167 105
Width: 565
GlyphClass: 2
Flags: W
HStem: -185 118<219.623 341.663> 578 118<222.337 341.3>
VStem: 29 152<247.211 337.886> 43 174<505.685 569.714> 347 174<-58.5863 5.66457> 388 147<173.071 317.159>
LayerCount: 2
Fore
SplineSet
52.5 171 m 0,0,1
 29 205 29 205 29 250.5 c 128,-1,2
 29 296 29 296 50.5 337.5 c 128,-1,3
 72 379 72 379 108 402 c 1,4,5
 78.7826086957 418.434782609 78.7826086957 418.434782609 59.5 457 c 0,6,7
 43 490 43 490 43 533 c 128,-1,8
 43 576 43 576 65 608 c 128,-1,9
 87 640 87 640 121.5 659.5 c 0,10,11
 186.076923077 696 186.076923077 696 278 696 c 0,12,13
 429.796610169 696 429.796610169 696 491 617.5 c 0,14,15
 514 588 514 588 514 543 c 2,16,-1
 514 533 l 1,17,-1
 350 533 l 1,18,19
 350 565.954545455 350 565.954545455 308 575.5 c 0,20,21
 297 578 297 578 288 578 c 128,-1,22
 279 578 279 578 267 577 c 128,-1,23
 255 576 255 576 244 572 c 0,24,25
 217 562.181818182 217 562.181818182 217 541.090909091 c 128,-1,26
 217 520 217 520 240.5 504 c 128,-1,27
 264 488 264 488 299 472 c 1,28,-1
 376 440 l 2,29,30
 535 374.073170732 535 374.073170732 535 257 c 0,31,32
 535 215 535 215 513.5 173.5 c 128,-1,33
 492 132 492 132 456 109 c 1,34,35
 500.587084149 83.9197651663 500.587084149 83.9197651663 516.5 18.5 c 0,36,37
 521 0 521 0 521 -18 c 0,38,39
 521 -104.130434783 521 -104.130434783 442.5 -148.5 c 0,40,41
 377.923076923 -185 377.923076923 -185 286 -185 c 0,42,43
 134.203389831 -185 134.203389831 -185 73 -106.5 c 0,44,45
 50 -77 50 -77 50 -32 c 2,46,-1
 50 -25 l 1,47,-1
 214 -25 l 1,48,49
 214 -57.3636363636 214 -57.3636363636 256 -65 c 0,50,51
 267 -67 267 -67 276 -67 c 128,-1,52
 285 -67 285 -67 297 -66 c 128,-1,53
 309 -65 309 -65 320 -61 c 0,54,55
 347 -51.1818181818 347 -51.1818181818 347 -30.0909090909 c 128,-1,56
 347 -9 347 -9 323.5 7 c 128,-1,57
 300 23 300 23 265 38 c 2,58,-1
 188 71 l 1,59,60
 94.9512317748 109.581196581 94.9512317748 109.581196581 52.5 171 c 0,0,1
211 343 m 1,61,62
 181 330.142857143 181 330.142857143 181 288.5 c 0,63,64
 181 268 181 268 201.5 248 c 128,-1,65
 222 228 222 228 250 212.5 c 128,-1,66
 278 197 278 197 308 185 c 128,-1,67
 338 173 338 173 358 164 c 1,68,69
 372 170 372 170 380 184 c 128,-1,70
 388 198 388 198 388 218.5 c 128,-1,71
 388 239 388 239 367.5 259 c 128,-1,72
 347 279 347 279 319 294.5 c 128,-1,73
 291 310 291 310 260.5 322 c 128,-1,74
 230 334 230 334 211 343 c 1,61,62
EndSplineSet
EndChar

StartChar: dieresis
Encoding: 168 168 106
Width: 440
GlyphClass: 2
Flags: W
HStem: 603 147<37 189 257 409>
VStem: 37 152<603 750> 257 152<603 750>
LayerCount: 2
Fore
SplineSet
37 603 m 1,0,-1
 37 750 l 1,1,-1
 189 750 l 1,2,-1
 189 603 l 1,3,-1
 37 603 l 1,0,-1
257 603 m 1,4,-1
 257 750 l 1,5,-1
 409 750 l 1,6,-1
 409 603 l 1,7,-1
 257 603 l 1,4,-1
EndSplineSet
EndChar

StartChar: copyright
Encoding: 169 169 107
Width: 770
GlyphClass: 2
Flags: W
HStem: -10 65<267.271 501.964> 131 94<345.049 437.951> 461 94<345.049 431.436> 632 64<266.045 503.073>
VStem: 31 76<219.618 466.046> 192 135<243.049 442.951> 450 118<240.988 305 380 444.497> 663 76<222.099 464.827>
LayerCount: 2
Fore
SplineSet
58.5 205.5 m 128,-1,1
 31 270 31 270 31 343.5 c 128,-1,2
 31 417 31 417 58.5 481 c 128,-1,3
 86 545 86 545 134 593 c 128,-1,4
 182 641 182 641 246.5 668.5 c 128,-1,5
 311 696 311 696 384.5 696 c 128,-1,6
 458 696 458 696 522.5 668.5 c 128,-1,7
 587 641 587 641 635 593 c 128,-1,8
 683 545 683 545 711 481 c 128,-1,9
 739 417 739 417 739 343.5 c 128,-1,10
 739 270 739 270 711 205.5 c 128,-1,11
 683 141 683 141 635 93 c 128,-1,12
 587 45 587 45 522.5 17.5 c 128,-1,13
 458 -10 458 -10 384.5 -10 c 128,-1,14
 311 -10 311 -10 246.5 17.5 c 128,-1,15
 182 45 182 45 134 93 c 128,-1,0
 86 141 86 141 58.5 205.5 c 128,-1,1
107 343.5 m 0,16,17
 107 278 107 278 126.5 224.5 c 128,-1,18
 146 171 146 171 182 133.5 c 0,19,20
 257.36 55 257.36 55 385 55 c 0,21,22
 511.64 55 511.64 55 587 133.5 c 0,23,24
 663 212.666666667 663 212.666666667 663 344 c 0,25,26
 663 474.333333333 663 474.333333333 587 553.5 c 0,27,28
 511.64 632 511.64 632 385 632 c 0,29,30
 257.36 632 257.36 632 182 553.5 c 0,31,32
 107 475.375 107 475.375 107 343.5 c 0,16,17
192 311 m 2,33,-1
 192 375 l 2,34,35
 192 454.352941176 192 454.352941176 247.5 505.5 c 0,36,37
 301.212765957 555 301.212765957 555 378 555 c 2,38,-1
 394 555 l 2,39,40
 469.953488372 555 469.953488372 555 517.5 511.5 c 0,41,42
 568 465.29787234 568 465.29787234 568 380 c 1,43,-1
 450 380 l 1,44,-1
 450 401 l 2,45,46
 450 429 450 429 432 445 c 128,-1,47
 414 461 414 461 388 461 c 128,-1,48
 362 461 362 461 344.5 443.5 c 128,-1,49
 327 426 327 426 327 401 c 2,50,-1
 327 285 l 2,51,52
 327 260 327 260 344.5 242.5 c 128,-1,53
 362 225 362 225 387 225 c 2,54,-1
 396 225 l 2,55,56
 421 225 421 225 438.5 240.5 c 128,-1,57
 456 256 456 256 456 285 c 2,58,-1
 456 305 l 1,59,-1
 568 305 l 1,60,61
 568 226 568 226 519.5 177.5 c 0,62,63
 473 131 473 131 399 131 c 2,64,-1
 382 131 l 2,65,66
 299.608695652 131 299.608695652 131 247.5 178 c 0,67,68
 192 228.058823529 192 228.058823529 192 311 c 2,33,-1
EndSplineSet
EndChar

StartChar: ordfeminine
Encoding: 170 170 108
Width: 420
GlyphClass: 2
Flags: W
HStem: 376 73<137.75 211.077 290.568 389.46> 517 55<176.568 235> 625 70<171.407 223.655>
VStem: 34 124<451.019 505.667> 235 115<460.346 517 572 615.201>
LayerCount: 2
Fore
SplineSet
329 376 m 0,0,1
 252.136363636 376 252.136363636 376 241 425 c 1,2,3
 225 407 225 407 202 391.5 c 128,-1,4
 179 376 179 376 151.5 376 c 128,-1,5
 124 376 124 376 104.5 379 c 128,-1,6
 85 382 85 382 69.5 391.5 c 0,7,8
 34 413.258064516 34 413.258064516 34 468 c 0,9,10
 34 553.27027027 34 553.27027027 151 567.5 c 0,11,12
 188 572 188 572 235 572 c 1,13,-1
 235 589 l 2,14,15
 235 606 235 606 224 615.5 c 128,-1,16
 213 625 213 625 198.5 625 c 128,-1,17
 184 625 184 625 171 617.5 c 128,-1,18
 158 610 158 610 158 594 c 1,19,-1
 44 594 l 1,20,-1
 43 603 l 1,21,22
 43 642 43 642 82 668.5 c 128,-1,23
 121 695 121 695 187 695 c 2,24,-1
 207 695 l 2,25,26
 280 695 280 695 315 667 c 128,-1,27
 350 639 350 639 350 597 c 2,28,-1
 350 471 l 2,29,30
 350 459 350 459 356.5 454 c 128,-1,31
 363 449 363 449 371.5 449 c 128,-1,32
 380 449 380 449 390 454 c 1,33,-1
 390 390 l 1,34,35
 365.5 376 365.5 376 329 376 c 0,0,1
158 477 m 256,36,37
 158 449 158 449 194 449 c 0,38,39
 211 449 211 449 223 460 c 128,-1,40
 235 471 235 471 235 491 c 2,41,-1
 235 517 l 1,42,43
 194 517 194 517 176 505.5 c 128,-1,44
 158 494 158 494 158 477 c 256,36,37
EndSplineSet
EndChar

StartChar: guillemotleft
Encoding: 171 171 109
Width: 442
GlyphClass: 2
Flags: W
HStem: 491 20G<136.207 224 317.207 405>
LayerCount: 2
Fore
SplineSet
30 337 m 1,0,-1
 150 511 l 1,1,-1
 224 511 l 1,2,-1
 139 337 l 1,3,-1
 224 163 l 1,4,-1
 150 163 l 1,5,-1
 30 337 l 1,0,-1
211 337 m 1,6,-1
 331 511 l 1,7,-1
 405 511 l 1,8,-1
 320 337 l 1,9,-1
 405 163 l 1,10,-1
 331 163 l 1,11,-1
 211 337 l 1,6,-1
EndSplineSet
EndChar

StartChar: logicalnot
Encoding: 172 172 110
Width: 623
GlyphClass: 2
Flags: W
HStem: 334 150<33 421>
VStem: 421 150<158 334>
LayerCount: 2
Fore
SplineSet
33 334 m 1,0,-1
 33 484 l 1,1,-1
 571 484 l 1,2,-1
 571 158 l 1,3,-1
 421 158 l 1,4,-1
 421 334 l 1,5,-1
 33 334 l 1,0,-1
EndSplineSet
EndChar

StartChar: uni00AD
Encoding: 173 173 111
Width: 352
GlyphClass: 2
Flags: W
HStem: 196 158<49 303>
VStem: 49 254<196 354>
LayerCount: 2
Fore
SplineSet
49 196 m 1,0,-1
 49 354 l 1,1,-1
 303 354 l 1,2,-1
 303 196 l 1,3,-1
 49 196 l 1,0,-1
EndSplineSet
EndChar

StartChar: registered
Encoding: 174 174 112
Width: 770
GlyphClass: 2
Flags: W
HStem: -10 65<267.271 501.964> 303 86<343 416.972> 459 88<343 427.233> 632 64<266.045 503.073>
VStem: 31 76<219.618 466.046> 220 123<135 303 389 459> 431 126<168.964 290.267> 436 129<397.767 450.233> 663 76<222.099 464.827>
LayerCount: 2
Fore
SplineSet
58.5 205.5 m 128,-1,1
 31 270 31 270 31 343.5 c 128,-1,2
 31 417 31 417 58.5 481 c 128,-1,3
 86 545 86 545 134 593 c 128,-1,4
 182 641 182 641 246.5 668.5 c 128,-1,5
 311 696 311 696 384.5 696 c 128,-1,6
 458 696 458 696 522.5 668.5 c 128,-1,7
 587 641 587 641 635 593 c 128,-1,8
 683 545 683 545 711 481 c 128,-1,9
 739 417 739 417 739 343.5 c 128,-1,10
 739 270 739 270 711 205.5 c 128,-1,11
 683 141 683 141 635 93 c 128,-1,12
 587 45 587 45 522.5 17.5 c 128,-1,13
 458 -10 458 -10 384.5 -10 c 128,-1,14
 311 -10 311 -10 246.5 17.5 c 128,-1,15
 182 45 182 45 134 93 c 128,-1,0
 86 141 86 141 58.5 205.5 c 128,-1,1
107 343.5 m 0,16,17
 107 278 107 278 126.5 224.5 c 128,-1,18
 146 171 146 171 182 133.5 c 0,19,20
 257.36 55 257.36 55 385 55 c 0,21,22
 511.64 55 511.64 55 587 133.5 c 0,23,24
 663 212.666666667 663 212.666666667 663 344 c 0,25,26
 663 474.333333333 663 474.333333333 587 553.5 c 0,27,28
 511.64 632 511.64 632 385 632 c 0,29,30
 257.36 632 257.36 632 182 553.5 c 0,31,32
 107 475.375 107 475.375 107 343.5 c 0,16,17
587 141 m 1,33,34
 559.571428571 129 559.571428571 129 517.285714286 129 c 128,-1,35
 475 129 475 129 453 146 c 128,-1,36
 431 163 431 163 431 207 c 0,37,38
 431 249.727272727 431 249.727272727 424.5 266.863636364 c 0,39,40
 410.793103448 303 410.793103448 303 377 303 c 2,41,-1
 343 303 l 1,42,-1
 343 135 l 1,43,-1
 220 135 l 1,44,-1
 220 547 l 1,45,-1
 451 547 l 2,46,47
 497.407407407 547 497.407407407 547 530 519.5 c 0,48,49
 565 489.96875 565 489.96875 565 450.984375 c 128,-1,50
 565 412 565 412 544 386 c 128,-1,51
 523 360 523 360 491 354 c 1,52,-1
 490 351 l 1,53,54
 525 340 525 340 541 308.5 c 128,-1,55
 557 277 557 277 557 239 c 0,56,57
 557 173.181818182 557 173.181818182 587 165 c 1,58,-1
 587 141 l 1,33,34
343 389 m 1,59,-1
 406 389 l 2,60,61
 419 389 419 389 427.5 397.5 c 128,-1,62
 436 406 436 406 436 419 c 2,63,-1
 436 429 l 2,64,65
 436 442 436 442 427.5 450.5 c 128,-1,66
 419 459 419 459 406 459 c 2,67,-1
 343 459 l 1,68,-1
 343 389 l 1,59,-1
EndSplineSet
EndChar

StartChar: macron
Encoding: 175 175 113
Width: 460
GlyphClass: 2
Flags: W
HStem: 662 74<71 389>
VStem: 71 318<662 736>
LayerCount: 2
Fore
SplineSet
71 662 m 1,0,-1
 71 736 l 1,1,-1
 389 736 l 1,2,-1
 389 662 l 1,3,-1
 71 662 l 1,0,-1
EndSplineSet
EndChar

StartChar: degree
Encoding: 176 176 114
Width: 354
GlyphClass: 2
Flags: W
HStem: 396 87<131.08 221.493> 607 89<131.197 220.529>
VStem: 27 87<500.08 589.644> 238 89<499.939 589.787>
LayerCount: 2
Fore
SplineSet
27 546 m 256,0,1
 27 606.4 27 606.4 71 651.5 c 0,2,3
 114.414634146 696 114.414634146 696 177 696 c 256,4,5
 238 696 238 696 282.5 651.5 c 128,-1,6
 327 607 327 607 327 546 c 256,7,8
 327 483.414634146 327 483.414634146 282.5 440 c 0,9,10
 237.4 396 237.4 396 177 396 c 256,11,12
 115 396 115 396 71 440 c 128,-1,13
 27 484 27 484 27 546 c 256,0,1
114 545 m 256,14,15
 114 519 114 519 132 501 c 128,-1,16
 150 483 150 483 176 483 c 256,17,18
 202 483 202 483 220 501 c 128,-1,19
 238 519 238 519 238 545 c 256,20,21
 238 571 238 571 219.5 589 c 128,-1,22
 201 607 201 607 176 607 c 128,-1,23
 151 607 151 607 132.5 589 c 128,-1,24
 114 571 114 571 114 545 c 256,14,15
EndSplineSet
EndChar

StartChar: plusminus
Encoding: 177 177 115
Width: 615
GlyphClass: 2
Flags: W
HStem: 0 128<51 563> 272 128<51 243 371 563> 492 20G<243 371>
VStem: 243 128<160 272 400 512>
LayerCount: 2
Fore
SplineSet
51 0 m 1,0,-1
 51 128 l 1,1,-1
 563 128 l 1,2,-1
 563 0 l 1,3,-1
 51 0 l 1,0,-1
51 272 m 1,4,-1
 51 400 l 1,5,-1
 243 400 l 1,6,-1
 243 512 l 1,7,-1
 371 512 l 1,8,-1
 371 400 l 1,9,-1
 563 400 l 1,10,-1
 563 272 l 1,11,-1
 371 272 l 1,12,-1
 371 160 l 1,13,-1
 243 160 l 1,14,-1
 243 272 l 1,15,-1
 51 272 l 1,4,-1
EndSplineSet
EndChar

StartChar: uni00B2
Encoding: 178 178 116
Width: 370
GlyphClass: 2
Flags: W
HStem: 422 90<185 326> 720 84<146.345 206.171>
VStem: 40 95<668 709.171> 217 109<633.206 712.671>
LayerCount: 2
Fore
SplineSet
39 422 m 1,0,-1
 39 441 l 2,1,2
 39 472 39 472 49 493 c 128,-1,3
 59 514 59 514 82 534 c 2,4,-1
 188 626 l 2,5,6
 217 652 217 652 217 683 c 0,7,8
 217 699 217 699 206.5 709.5 c 128,-1,9
 196 720 196 720 180 720 c 2,10,-1
 173 720 l 2,11,12
 157 720 157 720 146 709.5 c 128,-1,13
 135 699 135 699 135 683 c 2,14,-1
 135 668 l 1,15,-1
 40 668 l 1,16,-1
 40 678 l 2,17,18
 40 732.514285714 40 732.514285714 75.5 767 c 0,19,20
 113.588235294 804 113.588235294 804 177 804 c 2,21,-1
 194 804 l 2,22,23
 254 804 254 804 290 771 c 128,-1,24
 326 738 326 738 326 685 c 0,25,26
 326 612.769230769 326 612.769230769 244 556 c 1,27,-1
 185 512 l 1,28,-1
 326 512 l 1,29,-1
 326 422 l 1,30,-1
 39 422 l 1,0,-1
EndSplineSet
EndChar

StartChar: uni00B3
Encoding: 179 179 117
Width: 355
GlyphClass: 2
Flags: W
HStem: 413 80<127.316 206.169> 578 66<124 204.977> 687 21G<34 124> 721 80<134.829 197.171>
VStem: 208 105<646.7 713.506> 217 107<501.487 575.536>
LayerCount: 2
Fore
SplineSet
262 616 m 1,0,1
 324 592.482758621 324 592.482758621 324 520 c 0,2,3
 324 475 324 475 288.5 444 c 128,-1,4
 253 413 253 413 184 413 c 2,5,-1
 162 413 l 2,6,7
 93 413 93 413 57.5 444 c 128,-1,8
 22 475 22 475 22 520 c 2,9,-1
 22 531 l 1,10,-1
 117 531 l 1,11,12
 117 515 117 515 127 504 c 128,-1,13
 137 493 137 493 160 493 c 2,14,-1
 174 493 l 2,15,16
 196 493 196 493 206.5 505.5 c 128,-1,17
 217 518 217 518 217 537 c 0,18,19
 217 578 217 578 179 578 c 2,20,-1
 124 578 l 1,21,-1
 124 644 l 1,22,-1
 171 644 l 2,23,24
 208 644 208 644 208 685 c 0,25,26
 208 699 208 699 197.5 710 c 128,-1,27
 187 721 187 721 171 721 c 2,28,-1
 161 721 l 2,29,30
 145 721 145 721 134.5 711 c 128,-1,31
 124 701 124 701 124 687 c 1,32,-1
 34 687 l 1,33,-1
 34 700 l 2,34,35
 34 742 34 742 70.5 771.5 c 128,-1,36
 107 801 107 801 168 801 c 2,37,-1
 184 801 l 2,38,39
 243 801 243 801 278 772 c 128,-1,40
 313 743 313 743 313 707.5 c 0,41,42
 313 638.173913043 313 638.173913043 262 616 c 1,0,1
EndSplineSet
EndChar

StartChar: acute
Encoding: 180 180 118
Width: 333
GlyphClass: 2
Flags: W
HStem: 575 145<133 160>
VStem: 42 242
LayerCount: 2
Fore
SplineSet
42 575 m 1,0,-1
 133 720 l 1,1,-1
 284 720 l 1,2,-1
 286 717 l 1,3,-1
 160 575 l 1,4,-1
 42 575 l 1,0,-1
EndSplineSet
EndChar

StartChar: mu
Encoding: 181 181 119
AltUni2: 0003bc.ffffffff.0
Width: 649
GlyphClass: 2
Flags: W
HStem: -10 121<568.313 621.712> 491 20G<56 254 360 558>
VStem: 56 198<-161 -3.37329 149.049 511> 360 198<149.049 511>
LayerCount: 2
Fore
SplineSet
246 -2 m 1,0,1
 254 -46 254 -46 254 -83 c 2,2,-1
 254 -161 l 1,3,-1
 56 -161 l 1,4,-1
 56 511 l 1,5,-1
 254 511 l 1,6,-1
 254 191 l 2,7,8
 254 166 254 166 269.5 148.5 c 128,-1,9
 285 131 285 131 307 131 c 256,10,11
 329 131 329 131 344.5 148.5 c 128,-1,12
 360 166 360 166 360 191 c 2,13,-1
 360 511 l 1,14,-1
 558 511 l 1,15,-1
 558 148 l 2,16,17
 558 128 558 128 568 119.5 c 128,-1,18
 578 111 578 111 592 111 c 128,-1,19
 606 111 606 111 624 120 c 1,20,-1
 624 13 l 1,21,22
 587.857142857 -10 587.857142857 -10 521.928571429 -10 c 128,-1,23
 456 -10 456 -10 423 11.5 c 128,-1,24
 390 33 390 33 376 71 c 1,25,26
 349.315789474 35.4210526316 349.315789474 35.4210526316 290 10 c 0,27,28
 269 1 269 1 246 -2 c 1,0,1
EndSplineSet
EndChar

StartChar: paragraph
Encoding: 182 182 120
Width: 582
GlyphClass: 2
Flags: W
HStem: 607 79<318 394 482 548>
VStem: 23 295<373.917 563.219> 230 88<-161 253> 394 88<-161 607>
LayerCount: 2
Fore
SplineSet
23 469.5 m 0,0,1
 23 514 23 514 40 553.5 c 128,-1,2
 57 593 57 593 86 622.5 c 0,3,4
 148.423728814 686 148.423728814 686 239 686 c 2,5,-1
 548 686 l 1,6,-1
 548 607 l 1,7,-1
 482 607 l 1,8,-1
 482 -161 l 1,9,-1
 394 -161 l 1,10,-1
 394 607 l 1,11,-1
 318 607 l 1,12,-1
 318 -161 l 1,13,-1
 230 -161 l 1,14,-1
 230 253 l 1,15,16
 143.299212598 254.970472441 143.299212598 254.970472441 83 318.5 c 0,17,18
 23 381.714285714 23 381.714285714 23 469.5 c 0,0,1
EndSplineSet
EndChar

StartChar: periodcentered
Encoding: 183 183 121
Width: 289
GlyphClass: 2
Flags: W
HStem: 197 183<49 240>
VStem: 49 191<197 380>
LayerCount: 2
Fore
SplineSet
49 197 m 1,0,-1
 49 380 l 1,1,-1
 240 380 l 1,2,-1
 240 197 l 1,3,-1
 49 197 l 1,0,-1
EndSplineSet
EndChar

StartChar: cedilla
Encoding: 184 184 122
Width: 334
GlyphClass: 2
Flags: W
HStem: -197 58<79.9051 202.533> -76 59<148 202.877>
VStem: 204 87<-135.939 -78.1689>
LayerCount: 2
Fore
SplineSet
79 -107 m 1,0,1
 114.555555556 -139 114.555555556 -139 159.277777778 -139 c 128,-1,2
 204 -139 204 -139 204 -107.5 c 128,-1,3
 204 -76 204 -76 166 -76 c 2,4,-1
 148 -76 l 1,5,-1
 148 -17 l 1,6,-1
 169 -17 l 2,7,8
 221.4 -17 221.4 -17 245.2 -31 c 128,-1,9
 269 -45 269 -45 280 -62.5 c 128,-1,10
 291 -80 291 -80 291 -107.5 c 128,-1,11
 291 -135 291 -135 279 -152.5 c 128,-1,12
 267 -170 267 -170 249 -180 c 0,13,14
 218.4 -197 218.4 -197 178.2 -197 c 0,15,16
 91 -197 91 -197 47 -161 c 1,17,-1
 79 -107 l 1,0,1
EndSplineSet
EndChar

StartChar: uni00B9
Encoding: 185 185 123
Width: 339
GlyphClass: 2
Flags: W
HStem: 422 82<41 123 228 306> 676 62<41 120.762>
VStem: 123 105<504 676>
LayerCount: 2
Fore
SplineSet
41 422 m 1,0,-1
 41 504 l 1,1,-1
 123 504 l 1,2,-1
 123 676 l 1,3,-1
 41 676 l 1,4,-1
 41 738 l 1,5,6
 110.818181818 741.878787879 110.818181818 741.878787879 192 796 c 1,7,-1
 228 796 l 1,8,-1
 228 504 l 1,9,-1
 306 504 l 1,10,-1
 306 422 l 1,11,-1
 41 422 l 1,0,-1
EndSplineSet
EndChar

StartChar: ordmasculine
Encoding: 186 186 124
Width: 397
GlyphClass: 2
Flags: W
HStem: 378 73<169.892 227.624> 624 73<162.538 227.624>
VStem: 30 127<463.376 618.617> 240 127<463.376 611.108>
LayerCount: 2
Fore
SplineSet
30 531 m 2,0,-1
 30 544 l 2,1,2
 30 611.674418605 30 611.674418605 75.5 654 c 0,3,4
 121.725 697 121.725 697 189 697 c 2,5,-1
 208 697 l 2,6,7
 275.275 697 275.275 697 321.5 654 c 0,8,9
 367 611.674418605 367 611.674418605 367 544 c 2,10,-1
 367 531 l 2,11,12
 367 463.88372093 367 463.88372093 321.5 420.5 c 0,13,14
 276.926829268 378 276.926829268 378 208 378 c 2,15,-1
 189 378 l 2,16,17
 120.073170732 378 120.073170732 378 75.5 420.5 c 0,18,19
 30 463.88372093 30 463.88372093 30 531 c 2,0,-1
157 493 m 2,20,21
 157 475 157 475 169.5 463 c 128,-1,22
 182 451 182 451 199 451 c 256,23,24
 216 451 216 451 228 463 c 128,-1,25
 240 475 240 475 240 493 c 2,26,-1
 240 582 l 2,27,28
 240 599 240 599 228 611.5 c 128,-1,29
 216 624 216 624 199 624 c 256,30,31
 182 624 182 624 169.5 611.5 c 128,-1,32
 157 599 157 599 157 582 c 2,33,-1
 157 493 l 2,20,21
EndSplineSet
EndChar

StartChar: guillemotright
Encoding: 187 187 125
Width: 442
GlyphClass: 2
Flags: W
HStem: 491 20G<37 124.793 218 305.793>
LayerCount: 2
Fore
SplineSet
37 163 m 1,0,-1
 122 337 l 1,1,-1
 37 511 l 1,2,-1
 111 511 l 1,3,-1
 231 337 l 1,4,-1
 111 163 l 1,5,-1
 37 163 l 1,0,-1
218 163 m 1,6,-1
 303 337 l 1,7,-1
 218 511 l 1,8,-1
 292 511 l 1,9,-1
 412 337 l 1,10,-1
 292 163 l 1,11,-1
 218 163 l 1,6,-1
EndSplineSet
EndChar

StartChar: onequarter
Encoding: 188 188 126
Width: 766
GlyphClass: 2
Flags: W
HStem: 0 21G<145 246.157 585 686> 81 80<504 585 686 739> 311 82<37 119 224 302> 565 62<37 116.762> 665 21G<147.409 224 552.755 651>
VStem: 119 105<393 565> 518 95<305.86 375> 585 101<0 81 161 252.281> 641 45<279.368 339>
LayerCount: 2
Fore
SplineSet
37 311 m 1,0,-1
 37 393 l 1,1,-1
 119 393 l 1,2,-1
 119 565 l 1,3,-1
 37 565 l 1,4,-1
 37 627 l 1,5,6
 106.818181818 630.878787879 106.818181818 630.878787879 188 685 c 1,7,-1
 224 685 l 1,8,-1
 224 393 l 1,9,-1
 302 393 l 1,10,-1
 302 311 l 1,11,-1
 37 311 l 1,0,-1
145 0 m 1,12,-1
 565 686 l 1,13,-1
 651 686 l 1,14,-1
 234 0 l 1,15,-1
 145 0 l 1,12,-1
434 81 m 1,16,-1
 434 162 l 1,17,18
 469.454545455 225.818181818 469.454545455 225.818181818 491.727272727 290.409090909 c 128,-1,19
 514 355 514 355 518 375 c 1,20,-1
 613 375 l 1,21,22
 607.202453988 334.417177914 607.202453988 334.417177914 580.601226994 283.708588957 c 0,23,24
 537.690322581 201.909677419 537.690322581 201.909677419 504 161 c 1,25,-1
 585 161 l 1,26,-1
 585 216 l 1,27,28
 607.425925926 248.037037037 607.425925926 248.037037037 622.712962963 288.018518519 c 128,-1,29
 638 328 638 328 641 339 c 1,30,-1
 686 339 l 1,31,-1
 686 161 l 1,32,-1
 739 161 l 1,33,-1
 739 81 l 1,34,-1
 686 81 l 1,35,-1
 686 0 l 1,36,-1
 585 0 l 1,37,-1
 585 81 l 1,38,-1
 434 81 l 1,16,-1
EndSplineSet
EndChar

StartChar: onehalf
Encoding: 189 189 127
Width: 765
GlyphClass: 2
Flags: W
HStem: 0 90<595 736> 298 84<556.345 616.171> 312 82<34 116 221 299> 566 62<34 113.762> 666 20G<144.409 221 549.755 648>
VStem: 116 105<394 566> 450 95<246 287.171> 627 109<211.206 290.671>
LayerCount: 2
Fore
SplineSet
34 312 m 1,0,-1
 34 394 l 1,1,-1
 116 394 l 1,2,-1
 116 566 l 1,3,-1
 34 566 l 1,4,-1
 34 628 l 1,5,6
 103.818181818 631.878787879 103.818181818 631.878787879 185 686 c 1,7,-1
 221 686 l 1,8,-1
 221 394 l 1,9,-1
 299 394 l 1,10,-1
 299 312 l 1,11,-1
 34 312 l 1,0,-1
142 0 m 1,12,-1
 562 686 l 1,13,-1
 648 686 l 1,14,-1
 231 0 l 1,15,-1
 142 0 l 1,12,-1
449 0 m 1,16,-1
 449 19 l 2,17,18
 449 50 449 50 459 71 c 128,-1,19
 469 92 469 92 492 112 c 2,20,-1
 598 204 l 2,21,22
 627 230 627 230 627 261 c 0,23,24
 627 277 627 277 616.5 287.5 c 128,-1,25
 606 298 606 298 590 298 c 2,26,-1
 583 298 l 2,27,28
 567 298 567 298 556 287.5 c 128,-1,29
 545 277 545 277 545 261 c 2,30,-1
 545 246 l 1,31,-1
 450 246 l 1,32,-1
 450 256 l 2,33,34
 450 310.514285714 450 310.514285714 485.5 345 c 0,35,36
 523.588235294 382 523.588235294 382 587 382 c 2,37,-1
 604 382 l 2,38,39
 664 382 664 382 700 349 c 128,-1,40
 736 316 736 316 736 263 c 0,41,42
 736 190.769230769 736 190.769230769 654 134 c 1,43,-1
 595 90 l 1,44,-1
 736 90 l 1,45,-1
 736 0 l 1,46,-1
 449 0 l 1,16,-1
EndSplineSet
EndChar

StartChar: threequarters
Encoding: 190 190 128
Width: 757
GlyphClass: 2
Flags: W
HStem: 0 21G<136 237.157 576 677> 81 80<495 576 677 730> 305 80<132.316 211.169> 470 66<129 209.977> 613 80<139.829 202.171> 666 20G<543.755 642>
VStem: 213 105<538.7 605.506> 222 107<393.487 467.536> 509 95<305.86 375> 576 101<0 81 161 252.281> 632 45<279.368 339>
LayerCount: 2
Fore
SplineSet
267 508 m 1,0,1
 329 484.482758621 329 484.482758621 329 412 c 0,2,3
 329 367 329 367 293.5 336 c 128,-1,4
 258 305 258 305 189 305 c 2,5,-1
 167 305 l 2,6,7
 98 305 98 305 62.5 336 c 128,-1,8
 27 367 27 367 27 412 c 2,9,-1
 27 423 l 1,10,-1
 122 423 l 1,11,12
 122 407 122 407 132 396 c 128,-1,13
 142 385 142 385 165 385 c 2,14,-1
 179 385 l 2,15,16
 201 385 201 385 211.5 397.5 c 128,-1,17
 222 410 222 410 222 429 c 0,18,19
 222 470 222 470 184 470 c 2,20,-1
 129 470 l 1,21,-1
 129 536 l 1,22,-1
 176 536 l 2,23,24
 213 536 213 536 213 577 c 0,25,26
 213 591 213 591 202.5 602 c 128,-1,27
 192 613 192 613 176 613 c 2,28,-1
 166 613 l 2,29,30
 150 613 150 613 139.5 603 c 128,-1,31
 129 593 129 593 129 579 c 1,32,-1
 39 579 l 1,33,-1
 39 592 l 2,34,35
 39 634 39 634 75.5 663.5 c 128,-1,36
 112 693 112 693 173 693 c 2,37,-1
 189 693 l 2,38,39
 248 693 248 693 283 664 c 128,-1,40
 318 635 318 635 318 599.5 c 0,41,42
 318 530.173913043 318 530.173913043 267 508 c 1,0,1
136 0 m 1,43,-1
 556 686 l 1,44,-1
 642 686 l 1,45,-1
 225 0 l 1,46,-1
 136 0 l 1,43,-1
425 81 m 1,47,-1
 425 162 l 1,48,49
 460.454545455 225.818181818 460.454545455 225.818181818 482.727272727 290.409090909 c 128,-1,50
 505 355 505 355 509 375 c 1,51,-1
 604 375 l 1,52,53
 598.202453988 334.417177914 598.202453988 334.417177914 571.601226994 283.708588957 c 0,54,55
 528.690322581 201.909677419 528.690322581 201.909677419 495 161 c 1,56,-1
 576 161 l 1,57,-1
 576 216 l 1,58,59
 598.425925926 248.037037037 598.425925926 248.037037037 613.712962963 288.018518519 c 128,-1,60
 629 328 629 328 632 339 c 1,61,-1
 677 339 l 1,62,-1
 677 161 l 1,63,-1
 730 161 l 1,64,-1
 730 81 l 1,65,-1
 677 81 l 1,66,-1
 677 0 l 1,67,-1
 576 0 l 1,68,-1
 576 81 l 1,69,-1
 425 81 l 1,47,-1
EndSplineSet
EndChar

StartChar: questiondown
Encoding: 191 191 129
Width: 577
GlyphClass: 2
Flags: W
HStem: -186 138<257.006 353.462> 328 183<185 376>
VStem: 26 212<-29.218 84.0437> 185 191<328 511> 371 184<-30.8735 63>
LayerCount: 2
Fore
SplineSet
552 63 m 1,0,1
 555 33 555 33 555 25 c 0,2,3
 555 -67.625 555 -67.625 474 -129.5 c 0,4,5
 400.036363636 -186 400.036363636 -186 304 -186 c 2,6,-1
 266 -186 l 2,7,8
 169.438596491 -186 169.438596491 -186 99.5 -126.5 c 0,9,10
 26 -63.9701492537 26 -63.9701492537 26 30 c 0,11,12
 26 126.181818182 26 126.181818182 111 188 c 2,13,-1
 153 218 l 2,14,15
 172 232 172 232 184.5 244 c 128,-1,16
 197 256 197 256 197 270 c 2,17,-1
 197 292 l 1,18,-1
 368 292 l 1,19,-1
 368 233 l 2,20,21
 368 189.764705882 368 189.764705882 303 130.5 c 0,22,23
 263.027027027 94.0540540541 263.027027027 94.0540540541 250.513513514 69.027027027 c 128,-1,24
 238 44 238 44 238 19 c 128,-1,25
 238 -6 238 -6 256.5 -27 c 128,-1,26
 275 -48 275 -48 299 -48 c 128,-1,27
 323 -48 323 -48 336 -41 c 128,-1,28
 349 -34 349 -34 357 -23 c 0,29,30
 371 -3.75 371 -3.75 371 22.125 c 128,-1,31
 371 48 371 48 368 63 c 1,32,-1
 552 63 l 1,0,1
185 328 m 1,33,-1
 185 511 l 1,34,-1
 376 511 l 1,35,-1
 376 328 l 1,36,-1
 185 328 l 1,33,-1
EndSplineSet
EndChar

StartChar: Agrave
Encoding: 192 192 130
Width: 709
GlyphClass: 2
Flags: W
HStem: 0 21G<-5 203.557 489.279 714> 122 145<285 407> 666 20G<217.324 491.676>
LayerCount: 2
Fore
SplineSet
-5 0 m 1,0,-1
 224 686 l 1,1,-1
 485 686 l 1,2,-1
 714 0 l 1,3,-1
 496 0 l 1,4,-1
 455 122 l 1,5,-1
 237 122 l 1,6,-1
 197 0 l 1,7,-1
 -5 0 l 1,0,-1
171 892 m 1,8,-1
 173 895 l 1,9,-1
 324 895 l 1,10,-1
 415 750 l 1,11,-1
 297 750 l 1,12,-1
 171 892 l 1,8,-1
285 267 m 1,13,-1
 407 267 l 1,14,-1
 349 475 l 1,15,-1
 344 475 l 1,16,-1
 285 267 l 1,13,-1
EndSplineSet
EndChar

StartChar: Aacute
Encoding: 193 193 131
Width: 709
GlyphClass: 2
Flags: W
HStem: 0 21G<-5 203.557 489.279 714> 122 145<285 407> 666 20G<217.324 491.676>
LayerCount: 2
Fore
SplineSet
-5 0 m 1,0,-1
 224 686 l 1,1,-1
 485 686 l 1,2,-1
 714 0 l 1,3,-1
 496 0 l 1,4,-1
 455 122 l 1,5,-1
 237 122 l 1,6,-1
 197 0 l 1,7,-1
 -5 0 l 1,0,-1
285 267 m 1,8,-1
 407 267 l 1,9,-1
 349 475 l 1,10,-1
 344 475 l 1,11,-1
 285 267 l 1,8,-1
301 751 m 1,12,-1
 392 896 l 1,13,-1
 543 896 l 1,14,-1
 545 893 l 1,15,-1
 419 751 l 1,16,-1
 301 751 l 1,12,-1
EndSplineSet
EndChar

StartChar: Acircumflex
Encoding: 194 194 132
Width: 709
GlyphClass: 2
Flags: W
HStem: 0 21G<-5 203.557 489.279 714> 122 145<285 407> 666 20G<217.324 491.676>
LayerCount: 2
Fore
SplineSet
-5 0 m 1,0,-1
 224 686 l 1,1,-1
 485 686 l 1,2,-1
 714 0 l 1,3,-1
 496 0 l 1,4,-1
 455 122 l 1,5,-1
 237 122 l 1,6,-1
 197 0 l 1,7,-1
 -5 0 l 1,0,-1
146 751 m 1,8,-1
 285 896 l 1,9,-1
 413 896 l 1,10,-1
 552 751 l 1,11,-1
 422 751 l 1,12,-1
 348 828 l 1,13,-1
 274 751 l 1,14,-1
 146 751 l 1,8,-1
285 267 m 1,15,-1
 407 267 l 1,16,-1
 349 475 l 1,17,-1
 344 475 l 1,18,-1
 285 267 l 1,15,-1
EndSplineSet
EndChar

StartChar: Atilde
Encoding: 195 195 133
Width: 709
GlyphClass: 2
Flags: W
HStem: 0 21G<-5 203.557 489.279 714> 122 145<285 407> 666 20G<217.324 491.676> 750 103<350.366 479.597> 790 103<216.403 344.066>
VStem: 126 81<750 781.335> 489 81<861.665 893>
LayerCount: 2
Fore
SplineSet
-5 0 m 1,0,-1
 224 686 l 1,1,-1
 485 686 l 1,2,-1
 714 0 l 1,3,-1
 496 0 l 1,4,-1
 455 122 l 1,5,-1
 237 122 l 1,6,-1
 197 0 l 1,7,-1
 -5 0 l 1,0,-1
126 750 m 1,8,9
 126 804.263157895 126 804.263157895 167 848.5 c 0,10,11
 208.243902439 893 208.243902439 893 266 893 c 0,12,13
 297.733333333 893 297.733333333 893 337.866666667 879 c 128,-1,14
 378 865 378 865 398.5 859 c 128,-1,15
 419 853 419 853 438.5 853 c 128,-1,16
 458 853 458 853 471 864.5 c 128,-1,17
 484 876 484 876 489 893 c 1,18,-1
 570 893 l 1,19,20
 570 838.736842105 570 838.736842105 529 794.5 c 0,21,22
 487.756097561 750 487.756097561 750 430 750 c 0,23,24
 394 750 394 750 339 770 c 1,25,-1
 297 784 l 2,26,27
 277 790 277 790 257.5 790 c 128,-1,28
 238 790 238 790 225 778.5 c 128,-1,29
 212 767 212 767 207 750 c 1,30,-1
 126 750 l 1,8,9
285 267 m 1,31,-1
 407 267 l 1,32,-1
 349 475 l 1,33,-1
 344 475 l 1,34,-1
 285 267 l 1,31,-1
EndSplineSet
EndChar

StartChar: Adieresis
Encoding: 196 196 134
Width: 709
GlyphClass: 2
Flags: W
HStem: 0 21G<-5 203.557 489.279 714> 122 145<285 407> 666 20G<217.324 491.676> 750 147<162 314 382 534>
VStem: 162 152<750 897> 382 152<750 897>
LayerCount: 2
Fore
SplineSet
-5 0 m 1,0,-1
 224 686 l 1,1,-1
 485 686 l 1,2,-1
 714 0 l 1,3,-1
 496 0 l 1,4,-1
 455 122 l 1,5,-1
 237 122 l 1,6,-1
 197 0 l 1,7,-1
 -5 0 l 1,0,-1
162 750 m 1,8,-1
 162 897 l 1,9,-1
 314 897 l 1,10,-1
 314 750 l 1,11,-1
 162 750 l 1,8,-1
285 267 m 1,12,-1
 407 267 l 1,13,-1
 349 475 l 1,14,-1
 344 475 l 1,15,-1
 285 267 l 1,12,-1
382 750 m 1,16,-1
 382 897 l 1,17,-1
 534 897 l 1,18,-1
 534 750 l 1,19,-1
 382 750 l 1,16,-1
EndSplineSet
EndChar

StartChar: Aring
Encoding: 197 197 135
Width: 709
GlyphClass: 2
Flags: W
HStem: 0 21G<-5 203.557 489.279 714> 122 145<285 407> 666 20G<217.324 491.676> 736 65<326.059 382.374> 871 66<325.626 382.259>
VStem: 253 66<807.488 864.116> 389 66<807.641 864.512>
LayerCount: 2
Fore
SplineSet
-5 0 m 1,0,-1
 224 686 l 1,1,-1
 485 686 l 1,2,-1
 714 0 l 1,3,-1
 496 0 l 1,4,-1
 455 122 l 1,5,-1
 237 122 l 1,6,-1
 197 0 l 1,7,-1
 -5 0 l 1,0,-1
253 836 m 256,8,9
 253 878 253 878 282.5 907.5 c 128,-1,10
 312 937 312 937 354 937 c 256,11,12
 394.407407407 937 394.407407407 937 425 907.5 c 0,13,14
 455 878.571428571 455 878.571428571 455 836 c 256,15,16
 455 795 455 795 425.5 765.5 c 128,-1,17
 396 736 396 736 354 736 c 256,18,19
 312.555555556 736 312.555555556 736 283 764.5 c 0,20,21
 253 793.428571429 253 793.428571429 253 836 c 256,8,9
285 267 m 1,22,-1
 407 267 l 1,23,-1
 349 475 l 1,24,-1
 344 475 l 1,25,-1
 285 267 l 1,22,-1
329 860.5 m 128,-1,27
 319 850 319 850 319 835.5 c 128,-1,28
 319 821 319 821 329.5 811 c 128,-1,29
 340 801 340 801 354.5 801 c 128,-1,30
 369 801 369 801 379 811.5 c 128,-1,31
 389 822 389 822 389 836.5 c 128,-1,32
 389 851 389 851 378.5 861 c 128,-1,33
 368 871 368 871 353.5 871 c 128,-1,26
 339 871 339 871 329 860.5 c 128,-1,27
EndSplineSet
EndChar

StartChar: AE
Encoding: 198 198 136
Width: 1011
GlyphClass: 2
Flags: W
HStem: 0 164<674 963> 122 145<314 436> 275 153<652 952> 528 158<603 963>
LayerCount: 2
Fore
SplineSet
-13 0 m 1,0,-1
 312 686 l 1,1,-1
 983 686 l 1,2,-1
 963 528 l 1,3,-1
 603 528 l 1,4,-1
 622 428 l 1,5,-1
 952 428 l 1,6,-1
 952 275 l 1,7,-1
 652 275 l 1,8,-1
 674 164 l 1,9,-1
 963 164 l 1,10,-1
 983 0 l 1,11,-1
 487 0 l 1,12,-1
 463 122 l 1,13,-1
 245 122 l 1,14,-1
 187 0 l 1,15,-1
 -13 0 l 1,0,-1
314 267 m 1,16,-1
 436 267 l 1,17,-1
 407 475 l 1,18,-1
 402 475 l 1,19,-1
 314 267 l 1,16,-1
EndSplineSet
EndChar

StartChar: Ccedilla
Encoding: 199 199 137
Width: 683
GlyphClass: 2
Flags: W
HStem: -197 58<271.493 382.388> -76 59<328 382.877> -10 157<295.26 436.094> 540 156<294.413 426.445>
VStem: 31 226<186.757 502.368> 384 87<-135.939 -78.1689>
LayerCount: 2
Fore
SplineSet
31 290 m 2,0,-1
 31 396 l 2,1,2
 31 527.529411765 31 527.529411765 123.5 613.5 c 0,3,4
 212.265822785 696 212.265822785 696 341 696 c 2,5,-1
 369 696 l 2,6,7
 497.534246575 696 497.534246575 696 575 623.5 c 0,8,9
 659 544.884615385 659 544.884615385 659 405 c 1,10,-1
 462 405 l 1,11,-1
 462 440 l 2,12,13
 462 487 462 487 433 513.5 c 128,-1,14
 404 540 404 540 362 540 c 2,15,-1
 357 540 l 2,16,17
 315 540 315 540 286 511 c 128,-1,18
 257 482 257 482 257 440 c 2,19,-1
 257 247 l 2,20,21
 257 205 257 205 286 176 c 128,-1,22
 315 147 315 147 357 147 c 2,23,-1
 371 147 l 2,24,25
 413 147 413 147 442 173 c 128,-1,26
 471 199 471 199 471 247 c 2,27,-1
 471 280 l 1,28,-1
 659 280 l 1,29,30
 659 148 659 148 578.5 67.5 c 0,31,32
 501 -10 501 -10 377 -10 c 2,33,-1
 349 -10 l 2,34,35
 211.675324675 -10 211.675324675 -10 124 68.5 c 0,36,37
 31 151.76744186 31 151.76744186 31 290 c 2,0,-1
259 -107 m 1,38,39
 294.555555556 -139 294.555555556 -139 339.277777778 -139 c 128,-1,40
 384 -139 384 -139 384 -107.5 c 128,-1,41
 384 -76 384 -76 346 -76 c 2,42,-1
 328 -76 l 1,43,-1
 328 -17 l 1,44,-1
 349 -17 l 2,45,46
 401.4 -17 401.4 -17 425.2 -31 c 128,-1,47
 449 -45 449 -45 460 -62.5 c 128,-1,48
 471 -80 471 -80 471 -107.5 c 128,-1,49
 471 -135 471 -135 459 -152.5 c 128,-1,50
 447 -170 447 -170 429 -180 c 0,51,52
 398.4 -197 398.4 -197 358.2 -197 c 0,53,54
 271 -197 271 -197 227 -161 c 1,55,-1
 259 -107 l 1,38,39
EndSplineSet
EndChar

StartChar: Egrave
Encoding: 200 200 138
Width: 600
GlyphClass: 2
Flags: W
HStem: 0 164<263 552> 275 153<263 541> 528 158<263 552>
VStem: 57 206<164 275 428 528>
LayerCount: 2
Fore
SplineSet
57 0 m 1,0,-1
 57 686 l 1,1,-1
 572 686 l 1,2,-1
 552 528 l 1,3,-1
 263 528 l 1,4,-1
 263 428 l 1,5,-1
 541 428 l 1,6,-1
 541 275 l 1,7,-1
 263 275 l 1,8,-1
 263 164 l 1,9,-1
 552 164 l 1,10,-1
 572 0 l 1,11,-1
 57 0 l 1,0,-1
147 893 m 1,12,-1
 149 896 l 1,13,-1
 300 896 l 1,14,-1
 391 751 l 1,15,-1
 273 751 l 1,16,-1
 147 893 l 1,12,-1
EndSplineSet
EndChar

StartChar: Eacute
Encoding: 201 201 139
Width: 600
GlyphClass: 2
Flags: W
HStem: 0 164<263 552> 275 153<263 541> 528 158<263 552>
VStem: 57 206<164 275 428 528>
LayerCount: 2
Fore
SplineSet
57 0 m 1,0,-1
 57 686 l 1,1,-1
 572 686 l 1,2,-1
 552 528 l 1,3,-1
 263 528 l 1,4,-1
 263 428 l 1,5,-1
 541 428 l 1,6,-1
 541 275 l 1,7,-1
 263 275 l 1,8,-1
 263 164 l 1,9,-1
 552 164 l 1,10,-1
 572 0 l 1,11,-1
 57 0 l 1,0,-1
250 750 m 1,12,-1
 341 895 l 1,13,-1
 492 895 l 1,14,-1
 494 892 l 1,15,-1
 368 750 l 1,16,-1
 250 750 l 1,12,-1
EndSplineSet
EndChar

StartChar: Ecircumflex
Encoding: 202 202 140
Width: 600
GlyphClass: 2
Flags: W
HStem: 0 164<263 552> 275 153<263 541> 528 158<263 552>
VStem: 57 206<164 275 428 528>
LayerCount: 2
Fore
SplineSet
57 0 m 1,0,-1
 57 686 l 1,1,-1
 572 686 l 1,2,-1
 552 528 l 1,3,-1
 263 528 l 1,4,-1
 263 428 l 1,5,-1
 541 428 l 1,6,-1
 541 275 l 1,7,-1
 263 275 l 1,8,-1
 263 164 l 1,9,-1
 552 164 l 1,10,-1
 572 0 l 1,11,-1
 57 0 l 1,0,-1
112 751 m 1,12,-1
 251 896 l 1,13,-1
 379 896 l 1,14,-1
 518 751 l 1,15,-1
 388 751 l 1,16,-1
 314 828 l 1,17,-1
 240 751 l 1,18,-1
 112 751 l 1,12,-1
EndSplineSet
EndChar

StartChar: Edieresis
Encoding: 203 203 141
Width: 600
GlyphClass: 2
Flags: W
HStem: 0 164<263 552> 275 153<263 541> 528 158<263 552> 751 147<125 277 345 497>
VStem: 57 206<164 275 428 528> 125 152<751 898> 345 152<751 898>
LayerCount: 2
Fore
SplineSet
57 0 m 1,0,-1
 57 686 l 1,1,-1
 572 686 l 1,2,-1
 552 528 l 1,3,-1
 263 528 l 1,4,-1
 263 428 l 1,5,-1
 541 428 l 1,6,-1
 541 275 l 1,7,-1
 263 275 l 1,8,-1
 263 164 l 1,9,-1
 552 164 l 1,10,-1
 572 0 l 1,11,-1
 57 0 l 1,0,-1
125 751 m 1,12,-1
 125 898 l 1,13,-1
 277 898 l 1,14,-1
 277 751 l 1,15,-1
 125 751 l 1,12,-1
345 751 m 1,16,-1
 345 898 l 1,17,-1
 497 898 l 1,18,-1
 497 751 l 1,19,-1
 345 751 l 1,16,-1
EndSplineSet
EndChar

StartChar: Igrave
Encoding: 204 204 142
Width: 446
GlyphClass: 2
Flags: W
HStem: 0 148<36 117 329 410> 539 147<36 117 329 410>
VStem: 36 374<0 148 539 686>
LayerCount: 2
Fore
SplineSet
36 0 m 1,0,-1
 36 148 l 1,1,-1
 117 148 l 1,2,-1
 117 539 l 1,3,-1
 36 539 l 1,4,-1
 36 686 l 1,5,-1
 410 686 l 1,6,-1
 410 539 l 1,7,-1
 329 539 l 1,8,-1
 329 148 l 1,9,-1
 410 148 l 1,10,-1
 410 0 l 1,11,-1
 36 0 l 1,0,-1
37 892 m 1,12,-1
 39 895 l 1,13,-1
 190 895 l 1,14,-1
 281 750 l 1,15,-1
 163 750 l 1,16,-1
 37 892 l 1,12,-1
EndSplineSet
EndChar

StartChar: Iacute
Encoding: 205 205 143
Width: 446
GlyphClass: 2
Flags: W
HStem: 0 148<36 117 329 410> 539 147<36 117 329 410>
VStem: 36 374<0 148 539 686>
LayerCount: 2
Fore
SplineSet
36 0 m 1,0,-1
 36 148 l 1,1,-1
 117 148 l 1,2,-1
 117 539 l 1,3,-1
 36 539 l 1,4,-1
 36 686 l 1,5,-1
 410 686 l 1,6,-1
 410 539 l 1,7,-1
 329 539 l 1,8,-1
 329 148 l 1,9,-1
 410 148 l 1,10,-1
 410 0 l 1,11,-1
 36 0 l 1,0,-1
162 750 m 1,12,-1
 253 895 l 1,13,-1
 404 895 l 1,14,-1
 406 892 l 1,15,-1
 280 750 l 1,16,-1
 162 750 l 1,12,-1
EndSplineSet
EndChar

StartChar: Icircumflex
Encoding: 206 206 144
Width: 446
GlyphClass: 2
Flags: W
HStem: 0 148<36 117 329 410> 539 147<36 117 329 410>
VStem: 36 374<0 148 539 686>
LayerCount: 2
Fore
SplineSet
21 750 m 1,0,-1
 160 895 l 1,1,-1
 288 895 l 1,2,-1
 427 750 l 1,3,-1
 297 750 l 1,4,-1
 223 827 l 1,5,-1
 149 750 l 1,6,-1
 21 750 l 1,0,-1
36 0 m 1,7,-1
 36 148 l 1,8,-1
 117 148 l 1,9,-1
 117 539 l 1,10,-1
 36 539 l 1,11,-1
 36 686 l 1,12,-1
 410 686 l 1,13,-1
 410 539 l 1,14,-1
 329 539 l 1,15,-1
 329 148 l 1,16,-1
 410 148 l 1,17,-1
 410 0 l 1,18,-1
 36 0 l 1,7,-1
EndSplineSet
EndChar

StartChar: Idieresis
Encoding: 207 207 145
Width: 446
GlyphClass: 2
Flags: W
HStem: 0 148<36 117 329 410> 539 147<36 117 329 410> 750 147<37 189 257 409>
VStem: 37 152<750 897> 257 152<750 897>
LayerCount: 2
Fore
SplineSet
36 0 m 1,0,-1
 36 148 l 1,1,-1
 117 148 l 1,2,-1
 117 539 l 1,3,-1
 36 539 l 1,4,-1
 36 686 l 1,5,-1
 410 686 l 1,6,-1
 410 539 l 1,7,-1
 329 539 l 1,8,-1
 329 148 l 1,9,-1
 410 148 l 1,10,-1
 410 0 l 1,11,-1
 36 0 l 1,0,-1
37 750 m 1,12,-1
 37 897 l 1,13,-1
 189 897 l 1,14,-1
 189 750 l 1,15,-1
 37 750 l 1,12,-1
257 750 m 1,16,-1
 257 897 l 1,17,-1
 409 897 l 1,18,-1
 409 750 l 1,19,-1
 257 750 l 1,16,-1
EndSplineSet
EndChar

StartChar: Eth
Encoding: 208 208 146
Width: 721
GlyphClass: 2
Flags: W
HStem: 0 159<292 433.739> 297 94<7 83 292 371> 530 156<292 433.739>
VStem: 83 209<159 297 391 530> 472 218<196.859 492.587>
LayerCount: 2
Fore
SplineSet
7 297 m 1,0,-1
 7 391 l 1,1,-1
 83 391 l 1,2,-1
 83 686 l 1,3,-1
 392 686 l 2,4,5
 454 686 454 686 508.5 662.5 c 128,-1,6
 563 639 563 639 603.5 598.5 c 128,-1,7
 644 558 644 558 667 503 c 128,-1,8
 690 448 690 448 690 386 c 2,9,-1
 690 300 l 2,10,11
 690 238 690 238 667 183 c 128,-1,12
 644 128 644 128 603.5 87.5 c 128,-1,13
 563 47 563 47 508.5 23.5 c 128,-1,14
 454 0 454 0 392 0 c 2,15,-1
 83 0 l 1,16,-1
 83 297 l 1,17,-1
 7 297 l 1,0,-1
292 159 m 1,18,-1
 372 159 l 2,19,20
 414 159 414 159 443 188 c 128,-1,21
 472 217 472 217 472 259 c 2,22,-1
 472 430 l 2,23,24
 472 472 472 472 443 501 c 128,-1,25
 414 530 414 530 372 530 c 2,26,-1
 292 530 l 1,27,-1
 292 391 l 1,28,-1
 371 391 l 1,29,-1
 371 297 l 1,30,-1
 292 297 l 1,31,-1
 292 159 l 1,18,-1
EndSplineSet
EndChar

StartChar: Ntilde
Encoding: 209 209 147
Width: 696
GlyphClass: 2
Flags: W
HStem: 0 21G<57 250 445.128 639> 666 20G<57 246.816 445 639> 750 103<353.82 483.597> 790 103<220.403 349.054>
VStem: 57 193<0 304> 130 81<750 781.335> 445 194<375 686> 493 81<861.665 893>
LayerCount: 2
Fore
SplineSet
57 0 m 1,0,-1
 57 686 l 1,1,-1
 233 686 l 1,2,-1
 443 382 l 1,3,-1
 445 375 l 1,4,-1
 445 686 l 1,5,-1
 639 686 l 1,6,-1
 639 0 l 1,7,-1
 459 0 l 1,8,-1
 253 297 l 1,9,-1
 250 304 l 1,10,-1
 250 0 l 1,11,-1
 57 0 l 1,0,-1
130 750 m 1,12,13
 130 804.263157895 130 804.263157895 171 848.5 c 0,14,15
 212.243902439 893 212.243902439 893 270 893 c 0,16,17
 301.733333333 893 301.733333333 893 341.866666667 879 c 128,-1,18
 382 865 382 865 402.5 859 c 128,-1,19
 423 853 423 853 442.5 853 c 128,-1,20
 462 853 462 853 475 864.5 c 128,-1,21
 488 876 488 876 493 893 c 1,22,-1
 574 893 l 1,23,24
 574 838.736842105 574 838.736842105 533 794.5 c 0,25,26
 491.756097561 750 491.756097561 750 434 750 c 0,27,28
 396.5 750 396.5 750 344 770 c 1,29,-1
 302 784 l 2,30,31
 281 790 281 790 261.5 790 c 128,-1,32
 242 790 242 790 229 778.5 c 128,-1,33
 216 767 216 767 211 750 c 1,34,-1
 130 750 l 1,12,13
EndSplineSet
EndChar

StartChar: Ograve
Encoding: 210 210 148
Width: 718
GlyphClass: 2
Flags: W
HStem: -10 157<294.804 424.587> 540 154<294.804 424.587>
VStem: 31 226<185.115 502.364> 462 225<185.115 502.364>
LayerCount: 2
Fore
SplineSet
31 290 m 2,0,-1
 31 394 l 2,1,2
 31 456 31 456 54.5 511 c 128,-1,3
 78 566 78 566 118.5 606.5 c 128,-1,4
 159 647 159 647 214 670.5 c 128,-1,5
 269 694 269 694 331 694 c 2,6,-1
 387 694 l 2,7,8
 449 694 449 694 504 670.5 c 128,-1,9
 559 647 559 647 599.5 606.5 c 128,-1,10
 640 566 640 566 663.5 511 c 128,-1,11
 687 456 687 456 687 394 c 2,12,-1
 687 290 l 2,13,14
 687 228 687 228 663.5 173 c 128,-1,15
 640 118 640 118 599.5 77.5 c 128,-1,16
 559 37 559 37 504 13.5 c 128,-1,17
 449 -10 449 -10 387 -10 c 2,18,-1
 331 -10 l 2,19,20
 269 -10 269 -10 214 13.5 c 128,-1,21
 159 37 159 37 118.5 77.5 c 128,-1,22
 78 118 78 118 54.5 173 c 128,-1,23
 31 228 31 228 31 290 c 2,0,-1
181 892 m 1,24,-1
 183 895 l 1,25,-1
 334 895 l 1,26,-1
 425 750 l 1,27,-1
 307 750 l 1,28,-1
 181 892 l 1,24,-1
257 247 m 2,29,30
 257 205 257 205 286 176 c 128,-1,31
 315 147 315 147 357 147 c 2,32,-1
 362 147 l 2,33,34
 404 147 404 147 433 176 c 128,-1,35
 462 205 462 205 462 247 c 2,36,-1
 462 440 l 2,37,38
 462 482 462 482 433 511 c 128,-1,39
 404 540 404 540 362 540 c 2,40,-1
 357 540 l 2,41,42
 315 540 315 540 286 511 c 128,-1,43
 257 482 257 482 257 440 c 2,44,-1
 257 247 l 2,29,30
EndSplineSet
EndChar

StartChar: Oacute
Encoding: 211 211 149
Width: 718
GlyphClass: 2
Flags: W
HStem: -10 157<294.804 424.587> 540 154<294.804 424.587>
VStem: 31 226<185.115 502.364> 462 225<185.115 502.364>
LayerCount: 2
Fore
SplineSet
31 290 m 2,0,-1
 31 394 l 2,1,2
 31 456 31 456 54.5 511 c 128,-1,3
 78 566 78 566 118.5 606.5 c 128,-1,4
 159 647 159 647 214 670.5 c 128,-1,5
 269 694 269 694 331 694 c 2,6,-1
 387 694 l 2,7,8
 449 694 449 694 504 670.5 c 128,-1,9
 559 647 559 647 599.5 606.5 c 128,-1,10
 640 566 640 566 663.5 511 c 128,-1,11
 687 456 687 456 687 394 c 2,12,-1
 687 290 l 2,13,14
 687 228 687 228 663.5 173 c 128,-1,15
 640 118 640 118 599.5 77.5 c 128,-1,16
 559 37 559 37 504 13.5 c 128,-1,17
 449 -10 449 -10 387 -10 c 2,18,-1
 331 -10 l 2,19,20
 269 -10 269 -10 214 13.5 c 128,-1,21
 159 37 159 37 118.5 77.5 c 128,-1,22
 78 118 78 118 54.5 173 c 128,-1,23
 31 228 31 228 31 290 c 2,0,-1
257 247 m 2,24,25
 257 205 257 205 286 176 c 128,-1,26
 315 147 315 147 357 147 c 2,27,-1
 362 147 l 2,28,29
 404 147 404 147 433 176 c 128,-1,30
 462 205 462 205 462 247 c 2,31,-1
 462 440 l 2,32,33
 462 482 462 482 433 511 c 128,-1,34
 404 540 404 540 362 540 c 2,35,-1
 357 540 l 2,36,37
 315 540 315 540 286 511 c 128,-1,38
 257 482 257 482 257 440 c 2,39,-1
 257 247 l 2,24,25
297 750 m 1,40,-1
 388 895 l 1,41,-1
 539 895 l 1,42,-1
 541 892 l 1,43,-1
 415 750 l 1,44,-1
 297 750 l 1,40,-1
EndSplineSet
EndChar

StartChar: Ocircumflex
Encoding: 212 212 150
Width: 718
GlyphClass: 2
Flags: W
HStem: -10 157<294.804 424.587> 540 154<294.804 424.587>
VStem: 31 226<185.115 502.364> 462 225<185.115 502.364>
LayerCount: 2
Fore
SplineSet
31 290 m 2,0,-1
 31 394 l 2,1,2
 31 456 31 456 54.5 511 c 128,-1,3
 78 566 78 566 118.5 606.5 c 128,-1,4
 159 647 159 647 214 670.5 c 128,-1,5
 269 694 269 694 331 694 c 2,6,-1
 387 694 l 2,7,8
 449 694 449 694 504 670.5 c 128,-1,9
 559 647 559 647 599.5 606.5 c 128,-1,10
 640 566 640 566 663.5 511 c 128,-1,11
 687 456 687 456 687 394 c 2,12,-1
 687 290 l 2,13,14
 687 228 687 228 663.5 173 c 128,-1,15
 640 118 640 118 599.5 77.5 c 128,-1,16
 559 37 559 37 504 13.5 c 128,-1,17
 449 -10 449 -10 387 -10 c 2,18,-1
 331 -10 l 2,19,20
 269 -10 269 -10 214 13.5 c 128,-1,21
 159 37 159 37 118.5 77.5 c 128,-1,22
 78 118 78 118 54.5 173 c 128,-1,23
 31 228 31 228 31 290 c 2,0,-1
153 750 m 1,24,-1
 292 895 l 1,25,-1
 420 895 l 1,26,-1
 559 750 l 1,27,-1
 429 750 l 1,28,-1
 355 827 l 1,29,-1
 281 750 l 1,30,-1
 153 750 l 1,24,-1
257 247 m 2,31,32
 257 205 257 205 286 176 c 128,-1,33
 315 147 315 147 357 147 c 2,34,-1
 362 147 l 2,35,36
 404 147 404 147 433 176 c 128,-1,37
 462 205 462 205 462 247 c 2,38,-1
 462 440 l 2,39,40
 462 482 462 482 433 511 c 128,-1,41
 404 540 404 540 362 540 c 2,42,-1
 357 540 l 2,43,44
 315 540 315 540 286 511 c 128,-1,45
 257 482 257 482 257 440 c 2,46,-1
 257 247 l 2,31,32
EndSplineSet
EndChar

StartChar: Otilde
Encoding: 213 213 151
Width: 718
GlyphClass: 2
Flags: W
HStem: -10 157<294.804 424.587> 540 154<294.804 424.587> 750 103<359.366 488.597> 790 103<225.403 353.066>
VStem: 31 226<185.115 502.364> 135 81<750 781.335> 462 225<185.115 502.364> 498 81<861.665 893>
LayerCount: 2
Fore
SplineSet
31 290 m 2,0,-1
 31 394 l 2,1,2
 31 456 31 456 54.5 511 c 128,-1,3
 78 566 78 566 118.5 606.5 c 128,-1,4
 159 647 159 647 214 670.5 c 128,-1,5
 269 694 269 694 331 694 c 2,6,-1
 387 694 l 2,7,8
 449 694 449 694 504 670.5 c 128,-1,9
 559 647 559 647 599.5 606.5 c 128,-1,10
 640 566 640 566 663.5 511 c 128,-1,11
 687 456 687 456 687 394 c 2,12,-1
 687 290 l 2,13,14
 687 228 687 228 663.5 173 c 128,-1,15
 640 118 640 118 599.5 77.5 c 128,-1,16
 559 37 559 37 504 13.5 c 128,-1,17
 449 -10 449 -10 387 -10 c 2,18,-1
 331 -10 l 2,19,20
 269 -10 269 -10 214 13.5 c 128,-1,21
 159 37 159 37 118.5 77.5 c 128,-1,22
 78 118 78 118 54.5 173 c 128,-1,23
 31 228 31 228 31 290 c 2,0,-1
135 750 m 1,24,25
 135 804.263157895 135 804.263157895 176 848.5 c 0,26,27
 217.243902439 893 217.243902439 893 275 893 c 0,28,29
 306.733333333 893 306.733333333 893 346.866666667 879 c 128,-1,30
 387 865 387 865 407.5 859 c 128,-1,31
 428 853 428 853 447.5 853 c 128,-1,32
 467 853 467 853 480 864.5 c 128,-1,33
 493 876 493 876 498 893 c 1,34,-1
 579 893 l 1,35,36
 579 838.736842105 579 838.736842105 538 794.5 c 0,37,38
 496.756097561 750 496.756097561 750 439 750 c 0,39,40
 403 750 403 750 348 770 c 1,41,-1
 306 784 l 2,42,43
 286 790 286 790 266.5 790 c 128,-1,44
 247 790 247 790 234 778.5 c 128,-1,45
 221 767 221 767 216 750 c 1,46,-1
 135 750 l 1,24,25
257 247 m 2,47,48
 257 205 257 205 286 176 c 128,-1,49
 315 147 315 147 357 147 c 2,50,-1
 362 147 l 2,51,52
 404 147 404 147 433 176 c 128,-1,53
 462 205 462 205 462 247 c 2,54,-1
 462 440 l 2,55,56
 462 482 462 482 433 511 c 128,-1,57
 404 540 404 540 362 540 c 2,58,-1
 357 540 l 2,59,60
 315 540 315 540 286 511 c 128,-1,61
 257 482 257 482 257 440 c 2,62,-1
 257 247 l 2,47,48
EndSplineSet
EndChar

StartChar: Odieresis
Encoding: 214 214 152
Width: 718
GlyphClass: 2
Flags: W
HStem: -10 157<294.804 424.587> 540 154<294.804 424.587> 750 147<177 329 397 549>
VStem: 31 226<185.115 502.364> 177 152<750 897> 397 152<750 897> 462 225<185.115 502.364>
LayerCount: 2
Fore
SplineSet
31 290 m 2,0,-1
 31 394 l 2,1,2
 31 456 31 456 54.5 511 c 128,-1,3
 78 566 78 566 118.5 606.5 c 128,-1,4
 159 647 159 647 214 670.5 c 128,-1,5
 269 694 269 694 331 694 c 2,6,-1
 387 694 l 2,7,8
 449 694 449 694 504 670.5 c 128,-1,9
 559 647 559 647 599.5 606.5 c 128,-1,10
 640 566 640 566 663.5 511 c 128,-1,11
 687 456 687 456 687 394 c 2,12,-1
 687 290 l 2,13,14
 687 228 687 228 663.5 173 c 128,-1,15
 640 118 640 118 599.5 77.5 c 128,-1,16
 559 37 559 37 504 13.5 c 128,-1,17
 449 -10 449 -10 387 -10 c 2,18,-1
 331 -10 l 2,19,20
 269 -10 269 -10 214 13.5 c 128,-1,21
 159 37 159 37 118.5 77.5 c 128,-1,22
 78 118 78 118 54.5 173 c 128,-1,23
 31 228 31 228 31 290 c 2,0,-1
177 750 m 1,24,-1
 177 897 l 1,25,-1
 329 897 l 1,26,-1
 329 750 l 1,27,-1
 177 750 l 1,24,-1
257 247 m 2,28,29
 257 205 257 205 286 176 c 128,-1,30
 315 147 315 147 357 147 c 2,31,-1
 362 147 l 2,32,33
 404 147 404 147 433 176 c 128,-1,34
 462 205 462 205 462 247 c 2,35,-1
 462 440 l 2,36,37
 462 482 462 482 433 511 c 128,-1,38
 404 540 404 540 362 540 c 2,39,-1
 357 540 l 2,40,41
 315 540 315 540 286 511 c 128,-1,42
 257 482 257 482 257 440 c 2,43,-1
 257 247 l 2,28,29
397 750 m 1,44,-1
 397 897 l 1,45,-1
 549 897 l 1,46,-1
 549 750 l 1,47,-1
 397 750 l 1,44,-1
EndSplineSet
EndChar

StartChar: multiply
Encoding: 215 215 153
Width: 615
GlyphClass: 2
Flags: W
LayerCount: 2
Fore
SplineSet
81 120 m 1,0,-1
 216 256 l 1,1,-1
 81 392 l 1,2,-1
 171 482 l 1,3,-1
 307 347 l 1,4,-1
 443 482 l 1,5,-1
 533 392 l 1,6,-1
 398 256 l 1,7,-1
 533 120 l 1,8,-1
 443 30 l 1,9,-1
 307 165 l 1,10,-1
 171 30 l 1,11,-1
 81 120 l 1,0,-1
EndSplineSet
EndChar

StartChar: Oslash
Encoding: 216 216 154
Width: 718
GlyphClass: 2
Flags: W
HStem: -10 157<301.783 424.587> 540 154<294.804 413.218>
VStem: 31 226<269.218 502.364> 462 225<185.115 427.875>
LayerCount: 2
Fore
SplineSet
132 65 m 1,0,1
 31 155.255319149 31 155.255319149 31 290 c 2,2,-1
 31 394 l 2,3,4
 31 456 31 456 54.5 511 c 128,-1,5
 78 566 78 566 118.5 606.5 c 128,-1,6
 159 647 159 647 214 670.5 c 128,-1,7
 269 694 269 694 331 694 c 2,8,-1
 387 694 l 2,9,10
 448 694 448 694 502 671 c 1,11,-1
 553 754 l 1,12,-1
 661 754 l 1,13,-1
 581 623 l 1,14,15
 630 581 630 581 658.5 522 c 128,-1,16
 687 463 687 463 687 394 c 2,17,-1
 687 290 l 2,18,19
 687 228 687 228 663.5 173 c 128,-1,20
 640 118 640 118 599.5 77.5 c 128,-1,21
 559 37 559 37 504 13.5 c 128,-1,22
 449 -10 449 -10 387 -10 c 2,23,-1
 331 -10 l 2,24,25
 268 -10 268 -10 210 15 c 1,26,-1
 161 -65 l 1,27,-1
 53 -65 l 1,28,-1
 132 65 l 1,0,1
257 269 m 1,29,-1
 414 526 l 1,30,31
 389 540 389 540 362 540 c 2,32,-1
 357 540 l 2,33,34
 315 540 315 540 286 511 c 128,-1,35
 257 482 257 482 257 440 c 2,36,-1
 257 269 l 1,29,-1
301 164 m 1,37,38
 326 147 326 147 357 147 c 2,39,-1
 362 147 l 2,40,41
 404 147 404 147 433 176 c 128,-1,42
 462 205 462 205 462 247 c 2,43,-1
 462 428 l 1,44,-1
 301 164 l 1,37,38
EndSplineSet
EndChar

StartChar: Ugrave
Encoding: 217 217 155
Width: 687
GlyphClass: 2
Flags: W
HStem: -10 156<288.234 400.763> 666 20G<52 263 425 635>
VStem: 52 211<169.161 686> 425 210<169.161 686>
LayerCount: 2
Fore
SplineSet
52 218 m 2,0,-1
 52 686 l 1,1,-1
 263 686 l 1,2,-1
 263 221 l 2,3,4
 263 188 263 188 286.5 167 c 128,-1,5
 310 146 310 146 344 146 c 256,6,7
 378 146 378 146 401.5 167 c 128,-1,8
 425 188 425 188 425 221 c 2,9,-1
 425 686 l 1,10,-1
 635 686 l 1,11,-1
 635 218 l 2,12,13
 635 115.428571429 635 115.428571429 561 52 c 0,14,15
 488.666666667 -10 488.666666667 -10 365 -10 c 2,16,-1
 322 -10 l 2,17,18
 198.333333333 -10 198.333333333 -10 126 52 c 0,19,20
 52 115.428571429 52 115.428571429 52 218 c 2,0,-1
161 892 m 1,21,-1
 163 895 l 1,22,-1
 314 895 l 1,23,-1
 405 750 l 1,24,-1
 287 750 l 1,25,-1
 161 892 l 1,21,-1
EndSplineSet
EndChar

StartChar: Uacute
Encoding: 218 218 156
Width: 687
GlyphClass: 2
Flags: W
HStem: -10 156<288.234 400.763> 666 20G<52 263 425 635>
VStem: 52 211<169.161 686> 425 210<169.161 686>
LayerCount: 2
Fore
SplineSet
52 218 m 2,0,-1
 52 686 l 1,1,-1
 263 686 l 1,2,-1
 263 221 l 2,3,4
 263 188 263 188 286.5 167 c 128,-1,5
 310 146 310 146 344 146 c 256,6,7
 378 146 378 146 401.5 167 c 128,-1,8
 425 188 425 188 425 221 c 2,9,-1
 425 686 l 1,10,-1
 635 686 l 1,11,-1
 635 218 l 2,12,13
 635 115.428571429 635 115.428571429 561 52 c 0,14,15
 488.666666667 -10 488.666666667 -10 365 -10 c 2,16,-1
 322 -10 l 2,17,18
 198.333333333 -10 198.333333333 -10 126 52 c 0,19,20
 52 115.428571429 52 115.428571429 52 218 c 2,0,-1
285 750 m 1,21,-1
 376 895 l 1,22,-1
 527 895 l 1,23,-1
 529 892 l 1,24,-1
 403 750 l 1,25,-1
 285 750 l 1,21,-1
EndSplineSet
EndChar

StartChar: Ucircumflex
Encoding: 219 219 157
Width: 687
GlyphClass: 2
Flags: W
HStem: -10 156<288.234 400.763> 666 20G<52 263 425 635>
VStem: 52 211<169.161 686> 425 210<169.161 686>
LayerCount: 2
Fore
SplineSet
52 218 m 2,0,-1
 52 686 l 1,1,-1
 263 686 l 1,2,-1
 263 221 l 2,3,4
 263 188 263 188 286.5 167 c 128,-1,5
 310 146 310 146 344 146 c 256,6,7
 378 146 378 146 401.5 167 c 128,-1,8
 425 188 425 188 425 221 c 2,9,-1
 425 686 l 1,10,-1
 635 686 l 1,11,-1
 635 218 l 2,12,13
 635 115.428571429 635 115.428571429 561 52 c 0,14,15
 488.666666667 -10 488.666666667 -10 365 -10 c 2,16,-1
 322 -10 l 2,17,18
 198.333333333 -10 198.333333333 -10 126 52 c 0,19,20
 52 115.428571429 52 115.428571429 52 218 c 2,0,-1
144 750 m 1,21,-1
 283 895 l 1,22,-1
 411 895 l 1,23,-1
 550 750 l 1,24,-1
 420 750 l 1,25,-1
 346 827 l 1,26,-1
 272 750 l 1,27,-1
 144 750 l 1,21,-1
EndSplineSet
EndChar

StartChar: Udieresis
Encoding: 220 220 158
Width: 687
GlyphClass: 2
Flags: W
HStem: -10 156<288.234 400.763> 666 20G<52 263 425 635> 750 147<159 311 379 531>
VStem: 52 211<169.161 686> 159 152<750 897> 379 152<750 897> 425 210<169.161 686>
LayerCount: 2
Fore
SplineSet
52 218 m 2,0,-1
 52 686 l 1,1,-1
 263 686 l 1,2,-1
 263 221 l 2,3,4
 263 188 263 188 286.5 167 c 128,-1,5
 310 146 310 146 344 146 c 256,6,7
 378 146 378 146 401.5 167 c 128,-1,8
 425 188 425 188 425 221 c 2,9,-1
 425 686 l 1,10,-1
 635 686 l 1,11,-1
 635 218 l 2,12,13
 635 115.428571429 635 115.428571429 561 52 c 0,14,15
 488.666666667 -10 488.666666667 -10 365 -10 c 2,16,-1
 322 -10 l 2,17,18
 198.333333333 -10 198.333333333 -10 126 52 c 0,19,20
 52 115.428571429 52 115.428571429 52 218 c 2,0,-1
159 750 m 1,21,-1
 159 897 l 1,22,-1
 311 897 l 1,23,-1
 311 750 l 1,24,-1
 159 750 l 1,21,-1
379 750 m 1,25,-1
 379 897 l 1,26,-1
 531 897 l 1,27,-1
 531 750 l 1,28,-1
 379 750 l 1,25,-1
EndSplineSet
EndChar

StartChar: Yacute
Encoding: 221 221 159
Width: 646
GlyphClass: 2
Flags: W
HStem: 0 21G<219 428> 666 20G<-9 236.156 430.667 655>
VStem: 219 209<0 262>
LayerCount: 2
Fore
SplineSet
-9 686 m 1,0,-1
 227 686 l 1,1,-1
 330 461 l 1,2,-1
 335 461 l 1,3,-1
 440 686 l 1,4,-1
 655 686 l 1,5,-1
 428 262 l 1,6,-1
 428 0 l 1,7,-1
 219 0 l 1,8,-1
 219 262 l 1,9,-1
 -9 686 l 1,0,-1
270 750 m 1,10,-1
 361 895 l 1,11,-1
 512 895 l 1,12,-1
 514 892 l 1,13,-1
 388 750 l 1,14,-1
 270 750 l 1,10,-1
EndSplineSet
EndChar

StartChar: Thorn
Encoding: 222 222 160
Width: 646
GlyphClass: 2
Flags: W
HStem: 0 21G<57 266> 146 148<266 404.045> 427 156<266 404.045> 666 20G<57 266>
VStem: 57 209<0 146 294 427 583 686>
LayerCount: 2
Fore
SplineSet
57 0 m 1,0,-1
 57 686 l 1,1,-1
 266 686 l 1,2,-1
 266 583 l 1,3,-1
 422 583 l 2,4,5
 509 583 509 583 570.5 521.5 c 128,-1,6
 632 460 632 460 632 373 c 2,7,-1
 632 356 l 2,8,9
 632 269 632 269 570.5 207.5 c 128,-1,10
 509 146 509 146 422 146 c 2,11,-1
 266 146 l 1,12,-1
 266 0 l 1,13,-1
 57 0 l 1,0,-1
266 294 m 1,14,-1
 369 294 l 2,15,16
 390 294 390 294 404.5 308.5 c 128,-1,17
 419 323 419 323 419 344 c 2,18,-1
 419 377 l 2,19,20
 419 398 419 398 404.5 412.5 c 128,-1,21
 390 427 390 427 369 427 c 2,22,-1
 266 427 l 1,23,-1
 266 294 l 1,14,-1
EndSplineSet
EndChar

StartChar: germandbls
Encoding: 223 223 161
Width: 652
GlyphClass: 2
Flags: W
HStem: 0 148<321 400.907> 321 122<321 392.92> 579 149<303.403 393.255>
VStem: 87 198<-66 369 511 558.888> 412 189<461.483 560.177> 430 197<176.014 293.01>
LayerCount: 2
Fore
SplineSet
25 369 m 1,0,-1
 25 511 l 1,1,-1
 87 511 l 1,2,3
 92.7864130435 611.297826087 92.7864130435 611.297826087 173 672 c 0,4,5
 247 728 247 728 349 728 c 0,6,7
 514.75 728 514.75 728 578 629 c 0,8,9
 601 593 601 593 601 541 c 0,10,11
 601 465.714285714 601 465.714285714 546.5 419 c 0,12,13
 529 404 529 404 507 395 c 1,14,-1
 507 390 l 1,15,16
 561 371 561 371 594 323.5 c 128,-1,17
 627 276 627 276 627 219.5 c 128,-1,18
 627 163 627 163 608.5 122 c 128,-1,19
 590 81 590 81 558 54 c 0,20,21
 494 0 494 0 384 0 c 2,22,-1
 321 0 l 1,23,-1
 321 148 l 1,24,-1
 349 148 l 2,25,26
 381.608695652 148 381.608695652 148 406 173.5 c 0,27,28
 430 198.590909091 430 198.590909091 430 234.295454545 c 128,-1,29
 430 270 430 270 406.5 295.5 c 128,-1,30
 383 321 383 321 349 321 c 2,31,-1
 321 321 l 1,32,-1
 321 443 l 1,33,-1
 348 443 l 2,34,35
 375 443 375 443 393.5 462.5 c 128,-1,36
 412 482 412 482 412 511 c 256,37,38
 412 540 412 540 393.5 559.5 c 128,-1,39
 375 579 375 579 348.5 579 c 128,-1,40
 322 579 322 579 303.5 559.5 c 128,-1,41
 285 540 285 540 285 511 c 2,42,-1
 285 -66 l 1,43,-1
 87 -66 l 1,44,-1
 87 369 l 1,45,-1
 25 369 l 1,0,-1
EndSplineSet
EndChar

StartChar: agrave
Encoding: 224 224 162
Width: 624
GlyphClass: 2
Flags: W
HStem: -10 121<250.08 295.222 561.313 614.712> 225 91<261.432 359> 405 116<240.191 339.405> 700 20G<114 279.552>
VStem: 24 207<120.806 200.56> 359 192<130.597 225 316 389.012>
LayerCount: 2
Fore
SplineSet
369 71 m 1,0,1
 298.8 -10 298.8 -10 204 -10 c 256,2,3
 125.774193548 -10 125.774193548 -10 83 15.5 c 0,4,5
 24 50.6730769231 24 50.6730769231 24 143 c 0,6,7
 24 243.908045977 24 243.908045977 113.5 283 c 0,8,9
 189.052631579 316 189.052631579 316 359 316 c 1,10,-1
 359 345 l 2,11,12
 359 374 359 374 340 389.5 c 128,-1,13
 321 405 321 405 296.5 405 c 128,-1,14
 272 405 272 405 251 392 c 128,-1,15
 230 379 230 379 230 358 c 2,16,-1
 230 354 l 1,17,-1
 40 354 l 1,18,19
 39 359 39 359 39 368 c 0,20,21
 39 434.523809524 39 434.523809524 103.5 476.5 c 0,22,23
 171.87804878 521 171.87804878 521 279 521 c 2,24,-1
 312 521 l 2,25,26
 427.11627907 521 427.11627907 521 492 474.5 c 0,27,28
 551 432.216666667 551 432.216666667 551 359 c 2,29,-1
 551 148 l 2,30,31
 551 128 551 128 561 119.5 c 128,-1,32
 571 111 571 111 585 111 c 128,-1,33
 599 111 599 111 617 120 c 1,34,-1
 617 13 l 1,35,36
 580.857142857 -10 580.857142857 -10 514.928571429 -10 c 128,-1,37
 449 -10 449 -10 413 12.5 c 128,-1,38
 377 35 377 35 369 71 c 1,0,1
114 717 m 1,39,-1
 116 720 l 1,40,-1
 267 720 l 1,41,-1
 358 575 l 1,42,-1
 240 575 l 1,43,-1
 114 717 l 1,39,-1
231 159 m 256,44,45
 231 130 231 130 249.5 120.5 c 128,-1,46
 268 111 268 111 293 111 c 128,-1,47
 318 111 318 111 338.5 130 c 128,-1,48
 359 149 359 149 359 181 c 2,49,-1
 359 225 l 1,50,51
 290 225 290 225 260.5 206.5 c 128,-1,52
 231 188 231 188 231 159 c 256,44,45
EndSplineSet
EndChar

StartChar: aacute
Encoding: 225 225 163
Width: 624
GlyphClass: 2
Flags: W
HStem: -10 121<250.08 295.222 561.313 614.712> 225 91<261.432 359> 405 116<240.191 339.405> 700 20G<323.448 489>
VStem: 24 207<120.806 200.56> 359 192<130.597 225 316 389.012>
LayerCount: 2
Fore
SplineSet
369 71 m 1,0,1
 298.8 -10 298.8 -10 204 -10 c 256,2,3
 125.774193548 -10 125.774193548 -10 83 15.5 c 0,4,5
 24 50.6730769231 24 50.6730769231 24 143 c 0,6,7
 24 243.908045977 24 243.908045977 113.5 283 c 0,8,9
 189.052631579 316 189.052631579 316 359 316 c 1,10,-1
 359 345 l 2,11,12
 359 374 359 374 340 389.5 c 128,-1,13
 321 405 321 405 296.5 405 c 128,-1,14
 272 405 272 405 251 392 c 128,-1,15
 230 379 230 379 230 358 c 2,16,-1
 230 354 l 1,17,-1
 40 354 l 1,18,19
 39 359 39 359 39 368 c 0,20,21
 39 434.523809524 39 434.523809524 103.5 476.5 c 0,22,23
 171.87804878 521 171.87804878 521 279 521 c 2,24,-1
 312 521 l 2,25,26
 427.11627907 521 427.11627907 521 492 474.5 c 0,27,28
 551 432.216666667 551 432.216666667 551 359 c 2,29,-1
 551 148 l 2,30,31
 551 128 551 128 561 119.5 c 128,-1,32
 571 111 571 111 585 111 c 128,-1,33
 599 111 599 111 617 120 c 1,34,-1
 617 13 l 1,35,36
 580.857142857 -10 580.857142857 -10 514.928571429 -10 c 128,-1,37
 449 -10 449 -10 413 12.5 c 128,-1,38
 377 35 377 35 369 71 c 1,0,1
231 159 m 256,39,40
 231 130 231 130 249.5 120.5 c 128,-1,41
 268 111 268 111 293 111 c 128,-1,42
 318 111 318 111 338.5 130 c 128,-1,43
 359 149 359 149 359 181 c 2,44,-1
 359 225 l 1,45,46
 290 225 290 225 260.5 206.5 c 128,-1,47
 231 188 231 188 231 159 c 256,39,40
245 575 m 1,48,-1
 336 720 l 1,49,-1
 487 720 l 1,50,-1
 489 717 l 1,51,-1
 363 575 l 1,52,-1
 245 575 l 1,48,-1
EndSplineSet
EndChar

StartChar: acircumflex
Encoding: 226 226 164
Width: 624
GlyphClass: 2
Flags: W
HStem: -10 121<250.08 295.222 561.313 614.712> 225 91<261.432 359> 405 116<240.191 339.405> 700 20G<217.828 384.172>
VStem: 24 207<120.806 200.56> 359 192<130.597 225 316 389.012>
LayerCount: 2
Fore
SplineSet
369 71 m 1,0,1
 298.8 -10 298.8 -10 204 -10 c 256,2,3
 125.774193548 -10 125.774193548 -10 83 15.5 c 0,4,5
 24 50.6730769231 24 50.6730769231 24 143 c 0,6,7
 24 243.908045977 24 243.908045977 113.5 283 c 0,8,9
 189.052631579 316 189.052631579 316 359 316 c 1,10,-1
 359 345 l 2,11,12
 359 374 359 374 340 389.5 c 128,-1,13
 321 405 321 405 296.5 405 c 128,-1,14
 272 405 272 405 251 392 c 128,-1,15
 230 379 230 379 230 358 c 2,16,-1
 230 354 l 1,17,-1
 40 354 l 1,18,19
 39 359 39 359 39 368 c 0,20,21
 39 434.523809524 39 434.523809524 103.5 476.5 c 0,22,23
 171.87804878 521 171.87804878 521 279 521 c 2,24,-1
 312 521 l 2,25,26
 427.11627907 521 427.11627907 521 492 474.5 c 0,27,28
 551 432.216666667 551 432.216666667 551 359 c 2,29,-1
 551 148 l 2,30,31
 551 128 551 128 561 119.5 c 128,-1,32
 571 111 571 111 585 111 c 128,-1,33
 599 111 599 111 617 120 c 1,34,-1
 617 13 l 1,35,36
 580.857142857 -10 580.857142857 -10 514.928571429 -10 c 128,-1,37
 449 -10 449 -10 413 12.5 c 128,-1,38
 377 35 377 35 369 71 c 1,0,1
98 575 m 1,39,-1
 237 720 l 1,40,-1
 365 720 l 1,41,-1
 504 575 l 1,42,-1
 374 575 l 1,43,-1
 300 652 l 1,44,-1
 226 575 l 1,45,-1
 98 575 l 1,39,-1
231 159 m 256,46,47
 231 130 231 130 249.5 120.5 c 128,-1,48
 268 111 268 111 293 111 c 128,-1,49
 318 111 318 111 338.5 130 c 128,-1,50
 359 149 359 149 359 181 c 2,51,-1
 359 225 l 1,52,53
 290 225 290 225 260.5 206.5 c 128,-1,54
 231 188 231 188 231 159 c 256,46,47
EndSplineSet
EndChar

StartChar: atilde
Encoding: 227 227 165
Width: 624
GlyphClass: 2
Flags: W
HStem: -10 121<250.08 295.222 561.313 614.712> 225 91<261.432 359> 405 116<240.191 339.405> 577 103<302.938 432.597> 617 103<169.403 294.223>
VStem: 24 207<120.806 200.56> 79 81<577 608.335> 359 192<130.597 225 316 389.012> 442 81<688.665 720>
LayerCount: 2
Fore
SplineSet
369 71 m 1,0,1
 298.8 -10 298.8 -10 204 -10 c 256,2,3
 125.774193548 -10 125.774193548 -10 83 15.5 c 0,4,5
 24 50.6730769231 24 50.6730769231 24 143 c 0,6,7
 24 243.908045977 24 243.908045977 113.5 283 c 0,8,9
 189.052631579 316 189.052631579 316 359 316 c 1,10,-1
 359 345 l 2,11,12
 359 374 359 374 340 389.5 c 128,-1,13
 321 405 321 405 296.5 405 c 128,-1,14
 272 405 272 405 251 392 c 128,-1,15
 230 379 230 379 230 358 c 2,16,-1
 230 354 l 1,17,-1
 40 354 l 1,18,19
 39 359 39 359 39 368 c 0,20,21
 39 434.523809524 39 434.523809524 103.5 476.5 c 0,22,23
 171.87804878 521 171.87804878 521 279 521 c 2,24,-1
 312 521 l 2,25,26
 427.11627907 521 427.11627907 521 492 474.5 c 0,27,28
 551 432.216666667 551 432.216666667 551 359 c 2,29,-1
 551 148 l 2,30,31
 551 128 551 128 561 119.5 c 128,-1,32
 571 111 571 111 585 111 c 128,-1,33
 599 111 599 111 617 120 c 1,34,-1
 617 13 l 1,35,36
 580.857142857 -10 580.857142857 -10 514.928571429 -10 c 128,-1,37
 449 -10 449 -10 413 12.5 c 128,-1,38
 377 35 377 35 369 71 c 1,0,1
79 577 m 1,39,40
 79 631.263157895 79 631.263157895 120 675.5 c 0,41,42
 161.243902439 720 161.243902439 720 219 720 c 0,43,44
 250.733333333 720 250.733333333 720 290.866666667 706 c 128,-1,45
 331 692 331 692 351.5 686 c 128,-1,46
 372 680 372 680 391.5 680 c 128,-1,47
 411 680 411 680 424 691.5 c 128,-1,48
 437 703 437 703 442 720 c 1,49,-1
 523 720 l 1,50,51
 523 665.736842105 523 665.736842105 482 621.5 c 0,52,53
 440.756097561 577 440.756097561 577 383 577 c 0,54,55
 351.714285714 577 351.714285714 577 292 596 c 2,56,-1
 250 610 l 2,57,58
 230 617 230 617 210.5 617 c 128,-1,59
 191 617 191 617 178 605.5 c 128,-1,60
 165 594 165 594 160 577 c 1,61,-1
 79 577 l 1,39,40
231 159 m 256,62,63
 231 130 231 130 249.5 120.5 c 128,-1,64
 268 111 268 111 293 111 c 128,-1,65
 318 111 318 111 338.5 130 c 128,-1,66
 359 149 359 149 359 181 c 2,67,-1
 359 225 l 1,68,69
 290 225 290 225 260.5 206.5 c 128,-1,70
 231 188 231 188 231 159 c 256,62,63
EndSplineSet
EndChar

StartChar: adieresis
Encoding: 228 228 166
Width: 624
GlyphClass: 2
Flags: W
HStem: -10 121<250.08 295.222 561.313 614.712> 225 91<261.432 359> 405 116<240.191 339.405> 573 147<111 263 331 483>
VStem: 24 207<120.806 200.56> 111 152<573 720> 331 152<573 720> 359 192<130.597 225 316 389.012>
LayerCount: 2
Fore
SplineSet
369 71 m 1,0,1
 298.8 -10 298.8 -10 204 -10 c 256,2,3
 125.774193548 -10 125.774193548 -10 83 15.5 c 0,4,5
 24 50.6730769231 24 50.6730769231 24 143 c 0,6,7
 24 243.908045977 24 243.908045977 113.5 283 c 0,8,9
 189.052631579 316 189.052631579 316 359 316 c 1,10,-1
 359 345 l 2,11,12
 359 374 359 374 340 389.5 c 128,-1,13
 321 405 321 405 296.5 405 c 128,-1,14
 272 405 272 405 251 392 c 128,-1,15
 230 379 230 379 230 358 c 2,16,-1
 230 354 l 1,17,-1
 40 354 l 1,18,19
 39 359 39 359 39 368 c 0,20,21
 39 434.523809524 39 434.523809524 103.5 476.5 c 0,22,23
 171.87804878 521 171.87804878 521 279 521 c 2,24,-1
 312 521 l 2,25,26
 427.11627907 521 427.11627907 521 492 474.5 c 0,27,28
 551 432.216666667 551 432.216666667 551 359 c 2,29,-1
 551 148 l 2,30,31
 551 128 551 128 561 119.5 c 128,-1,32
 571 111 571 111 585 111 c 128,-1,33
 599 111 599 111 617 120 c 1,34,-1
 617 13 l 1,35,36
 580.857142857 -10 580.857142857 -10 514.928571429 -10 c 128,-1,37
 449 -10 449 -10 413 12.5 c 128,-1,38
 377 35 377 35 369 71 c 1,0,1
111 573 m 1,39,-1
 111 720 l 1,40,-1
 263 720 l 1,41,-1
 263 573 l 1,42,-1
 111 573 l 1,39,-1
231 159 m 256,43,44
 231 130 231 130 249.5 120.5 c 128,-1,45
 268 111 268 111 293 111 c 128,-1,46
 318 111 318 111 338.5 130 c 128,-1,47
 359 149 359 149 359 181 c 2,48,-1
 359 225 l 1,49,50
 290 225 290 225 260.5 206.5 c 128,-1,51
 231 188 231 188 231 159 c 256,43,44
331 573 m 1,52,-1
 331 720 l 1,53,-1
 483 720 l 1,54,-1
 483 573 l 1,55,-1
 331 573 l 1,52,-1
EndSplineSet
EndChar

StartChar: aring
Encoding: 229 229 167
Width: 624
GlyphClass: 2
Flags: W
HStem: -10 121<250.08 295.222 561.313 614.712> 225 91<261.432 359> 405 116<240.191 339.405> 559 65<268.059 324.374> 694 66<267.626 324.259>
VStem: 24 207<120.806 200.56> 195 66<630.488 687.116> 331 66<630.641 687.512> 359 192<130.597 225 316 389.012>
LayerCount: 2
Fore
SplineSet
369 71 m 1,0,1
 298.8 -10 298.8 -10 204 -10 c 256,2,3
 125.774193548 -10 125.774193548 -10 83 15.5 c 0,4,5
 24 50.6730769231 24 50.6730769231 24 143 c 0,6,7
 24 243.908045977 24 243.908045977 113.5 283 c 0,8,9
 189.052631579 316 189.052631579 316 359 316 c 1,10,-1
 359 345 l 2,11,12
 359 374 359 374 340 389.5 c 128,-1,13
 321 405 321 405 296.5 405 c 128,-1,14
 272 405 272 405 251 392 c 128,-1,15
 230 379 230 379 230 358 c 2,16,-1
 230 354 l 1,17,-1
 40 354 l 1,18,19
 39 359 39 359 39 368 c 0,20,21
 39 434.523809524 39 434.523809524 103.5 476.5 c 0,22,23
 171.87804878 521 171.87804878 521 279 521 c 2,24,-1
 312 521 l 2,25,26
 427.11627907 521 427.11627907 521 492 474.5 c 0,27,28
 551 432.216666667 551 432.216666667 551 359 c 2,29,-1
 551 148 l 2,30,31
 551 128 551 128 561 119.5 c 128,-1,32
 571 111 571 111 585 111 c 128,-1,33
 599 111 599 111 617 120 c 1,34,-1
 617 13 l 1,35,36
 580.857142857 -10 580.857142857 -10 514.928571429 -10 c 128,-1,37
 449 -10 449 -10 413 12.5 c 128,-1,38
 377 35 377 35 369 71 c 1,0,1
195 659 m 256,39,40
 195 701 195 701 224.5 730.5 c 128,-1,41
 254 760 254 760 296 760 c 256,42,43
 336.407407407 760 336.407407407 760 367 730.5 c 0,44,45
 397 701.571428571 397 701.571428571 397 659 c 256,46,47
 397 618 397 618 367.5 588.5 c 128,-1,48
 338 559 338 559 296 559 c 256,49,50
 254.555555556 559 254.555555556 559 225 587.5 c 0,51,52
 195 616.428571429 195 616.428571429 195 659 c 256,39,40
231 159 m 256,53,54
 231 130 231 130 249.5 120.5 c 128,-1,55
 268 111 268 111 293 111 c 128,-1,56
 318 111 318 111 338.5 130 c 128,-1,57
 359 149 359 149 359 181 c 2,58,-1
 359 225 l 1,59,60
 290 225 290 225 260.5 206.5 c 128,-1,61
 231 188 231 188 231 159 c 256,53,54
271 683.5 m 128,-1,63
 261 673 261 673 261 658.5 c 128,-1,64
 261 644 261 644 271.5 634 c 128,-1,65
 282 624 282 624 296.5 624 c 128,-1,66
 311 624 311 624 321 634.5 c 128,-1,67
 331 645 331 645 331 659.5 c 128,-1,68
 331 674 331 674 320.5 684 c 128,-1,69
 310 694 310 694 295.5 694 c 128,-1,62
 281 694 281 694 271 683.5 c 128,-1,63
EndSplineSet
EndChar

StartChar: ae
Encoding: 230 230 168
Width: 924
GlyphClass: 2
Flags: W
HStem: -10 121<217.54 338.286 585.206 690.121> 229 87<261.001 358 562 700> 405 116<239.191 338.405 586.38 676.171>
VStem: 23 207<120.915 200.56> 358 204<130.597 225 316 378.857>
LayerCount: 2
Fore
SplineSet
630 -10 m 2,0,1
 505.303030303 -10 505.303030303 -10 427 58 c 1,2,3
 393 28 393 28 338 9 c 128,-1,4
 283 -10 283 -10 234.5 -10 c 128,-1,5
 186 -10 186 -10 152 -5 c 128,-1,6
 118 0 118 0 89.5 15.5 c 0,7,8
 23 51.6666666667 23 51.6666666667 23 143 c 0,9,10
 23 243.908045977 23 243.908045977 112.5 283 c 0,11,12
 188.052631579 316 188.052631579 316 358 316 c 1,13,-1
 358 345 l 2,14,15
 358 374 358 374 339 389.5 c 128,-1,16
 320 405 320 405 295.5 405 c 128,-1,17
 271 405 271 405 250 392 c 128,-1,18
 229 379 229 379 229 358 c 2,19,-1
 229 354 l 1,20,-1
 39 354 l 1,21,22
 38 359 38 359 38 368 c 0,23,24
 38 434.523809524 38 434.523809524 102.5 476.5 c 0,25,26
 170.87804878 521 170.87804878 521 278 521 c 2,27,-1
 311 521 l 2,28,29
 410.375 521 410.375 521 472 487 c 1,30,31
 537 521 537 521 623 521 c 2,32,-1
 648 521 l 2,33,34
 764.451612903 521 764.451612903 521 830.5 456 c 0,35,36
 895 392.523809524 895 392.523809524 895 291 c 2,37,-1
 895 229 l 1,38,-1
 562 229 l 1,39,-1
 562 181 l 2,40,41
 562 146 562 146 584.5 128.5 c 128,-1,42
 607 111 607 111 641 111 c 128,-1,43
 675 111 675 111 693 133 c 128,-1,44
 711 155 711 155 711 192 c 1,45,-1
 894 192 l 1,46,47
 894 104.359375 894 104.359375 829 48.5 c 0,48,49
 760.927272727 -10 760.927272727 -10 645 -10 c 2,50,-1
 630 -10 l 2,0,1
230 159 m 256,51,52
 230 130 230 130 248.5 120.5 c 128,-1,53
 267 111 267 111 292 111 c 128,-1,54
 317 111 317 111 337.5 130 c 128,-1,55
 358 149 358 149 358 181 c 2,56,-1
 358 225 l 1,57,58
 289 225 289 225 259.5 206.5 c 128,-1,59
 230 188 230 188 230 159 c 256,51,52
562 316 m 1,60,-1
 700 316 l 1,61,-1
 700 330 l 2,62,63
 700 359 700 359 680 379.5 c 128,-1,64
 660 400 660 400 631 400 c 256,65,66
 602 400 602 400 582 379.5 c 128,-1,67
 562 359 562 359 562 330 c 2,68,-1
 562 316 l 1,60,-1
EndSplineSet
EndChar

StartChar: ccedilla
Encoding: 231 231 169
Width: 569
GlyphClass: 2
Flags: W
HStem: -197 58<209.905 332.533> -76 59<278 332.877> -10 121<259.248 367.404> 400 121<258.627 355.373>
VStem: 26 212<135.98 375.496> 334 87<-135.939 -78.1689>
LayerCount: 2
Fore
SplineSet
26 235 m 2,0,-1
 26 276 l 2,1,2
 26 377.739130435 26 377.739130435 100.5 449 c 0,3,4
 175.772727273 521 175.772727273 521 276 521 c 2,5,-1
 306 521 l 2,6,7
 417.293103448 521 417.293103448 521 482.5 459 c 0,8,9
 545 399.573770492 545 399.573770492 545 304 c 1,10,-1
 376 304 l 1,11,-1
 376 330 l 2,12,13
 376 359 376 359 356 379.5 c 128,-1,14
 336 400 336 400 307 400 c 256,15,16
 278 400 278 400 258 379.5 c 128,-1,17
 238 359 238 359 238 330 c 2,18,-1
 238 181 l 2,19,20
 238 152 238 152 258.5 131.5 c 128,-1,21
 279 111 279 111 308 111 c 2,22,-1
 320 111 l 2,23,24
 349 111 349 111 368 131.5 c 128,-1,25
 387 152 387 152 387 181 c 2,26,-1
 387 207 l 1,27,-1
 545 207 l 1,28,29
 545 104.161290323 545 104.161290323 480 46.5 c 0,30,31
 416.309090909 -10 416.309090909 -10 307 -10 c 2,32,-1
 278 -10 l 2,33,34
 176.772727273 -10 176.772727273 -10 101.5 62 c 0,35,36
 26 134.217391304 26 134.217391304 26 235 c 2,0,-1
209 -107 m 1,37,38
 244.555555556 -139 244.555555556 -139 289.277777778 -139 c 128,-1,39
 334 -139 334 -139 334 -107.5 c 128,-1,40
 334 -76 334 -76 296 -76 c 2,41,-1
 278 -76 l 1,42,-1
 278 -17 l 1,43,-1
 299 -17 l 2,44,45
 351.4 -17 351.4 -17 375.2 -31 c 128,-1,46
 399 -45 399 -45 410 -62.5 c 128,-1,47
 421 -80 421 -80 421 -107.5 c 128,-1,48
 421 -135 421 -135 409 -152.5 c 128,-1,49
 397 -170 397 -170 379 -180 c 0,50,51
 348.4 -197 348.4 -197 308.2 -197 c 0,52,53
 221 -197 221 -197 177 -161 c 1,54,-1
 209 -107 l 1,37,38
EndSplineSet
EndChar

StartChar: egrave
Encoding: 232 232 170
Width: 601
GlyphClass: 2
Flags: W
HStem: -10 121<262.206 367.121> 229 87<239 377> 400 121<259.627 356.373> 700 20G<121 286.552>
VStem: 27 212<132.718 229 316 378.857>
LayerCount: 2
Fore
SplineSet
27 240 m 2,0,-1
 27 271 l 2,1,2
 27 387.555555556 27 387.555555556 104 456 c 0,3,4
 177.125 521 177.125 521 300 521 c 2,5,-1
 325 521 l 2,6,7
 441.451612903 521 441.451612903 521 507.5 456 c 0,8,9
 572 392.523809524 572 392.523809524 572 291 c 2,10,-1
 572 229 l 1,11,-1
 239 229 l 1,12,-1
 239 181 l 2,13,14
 239 146 239 146 261.5 128.5 c 128,-1,15
 284 111 284 111 318 111 c 128,-1,16
 352 111 352 111 370 133 c 128,-1,17
 388 155 388 155 388 192 c 1,18,-1
 571 192 l 1,19,20
 571 104.359375 571 104.359375 506 48.5 c 0,21,22
 437.927272727 -10 437.927272727 -10 322 -10 c 2,23,-1
 307 -10 l 2,24,25
 183.671875 -10 183.671875 -10 107.5 55 c 0,26,27
 27 123.693333333 27 123.693333333 27 240 c 2,0,-1
121 717 m 1,28,-1
 123 720 l 1,29,-1
 274 720 l 1,30,-1
 365 575 l 1,31,-1
 247 575 l 1,32,-1
 121 717 l 1,28,-1
239 316 m 1,33,-1
 377 316 l 1,34,-1
 377 330 l 2,35,36
 377 359 377 359 357 379.5 c 128,-1,37
 337 400 337 400 308 400 c 256,38,39
 279 400 279 400 259 379.5 c 128,-1,40
 239 359 239 359 239 330 c 2,41,-1
 239 316 l 1,33,-1
EndSplineSet
EndChar

StartChar: eacute
Encoding: 233 233 171
Width: 601
GlyphClass: 2
Flags: W
HStem: -10 121<262.206 367.121> 229 87<239 377> 400 121<259.627 356.373> 700 20G<323.448 489>
VStem: 27 212<132.718 229 316 378.857>
LayerCount: 2
Fore
SplineSet
27 240 m 2,0,-1
 27 271 l 2,1,2
 27 387.555555556 27 387.555555556 104 456 c 0,3,4
 177.125 521 177.125 521 300 521 c 2,5,-1
 325 521 l 2,6,7
 441.451612903 521 441.451612903 521 507.5 456 c 0,8,9
 572 392.523809524 572 392.523809524 572 291 c 2,10,-1
 572 229 l 1,11,-1
 239 229 l 1,12,-1
 239 181 l 2,13,14
 239 146 239 146 261.5 128.5 c 128,-1,15
 284 111 284 111 318 111 c 128,-1,16
 352 111 352 111 370 133 c 128,-1,17
 388 155 388 155 388 192 c 1,18,-1
 571 192 l 1,19,20
 571 104.359375 571 104.359375 506 48.5 c 0,21,22
 437.927272727 -10 437.927272727 -10 322 -10 c 2,23,-1
 307 -10 l 2,24,25
 183.671875 -10 183.671875 -10 107.5 55 c 0,26,27
 27 123.693333333 27 123.693333333 27 240 c 2,0,-1
239 316 m 1,28,-1
 377 316 l 1,29,-1
 377 330 l 2,30,31
 377 359 377 359 357 379.5 c 128,-1,32
 337 400 337 400 308 400 c 256,33,34
 279 400 279 400 259 379.5 c 128,-1,35
 239 359 239 359 239 330 c 2,36,-1
 239 316 l 1,28,-1
245 575 m 1,37,-1
 336 720 l 1,38,-1
 487 720 l 1,39,-1
 489 717 l 1,40,-1
 363 575 l 1,41,-1
 245 575 l 1,37,-1
EndSplineSet
EndChar

StartChar: ecircumflex
Encoding: 234 234 172
Width: 601
GlyphClass: 2
Flags: W
HStem: -10 121<262.206 367.121> 229 87<239 377> 400 121<259.627 356.373> 700 20G<224.828 391.172>
VStem: 27 212<132.718 229 316 378.857>
LayerCount: 2
Fore
SplineSet
27 240 m 2,0,-1
 27 271 l 2,1,2
 27 387.555555556 27 387.555555556 104 456 c 0,3,4
 177.125 521 177.125 521 300 521 c 2,5,-1
 325 521 l 2,6,7
 441.451612903 521 441.451612903 521 507.5 456 c 0,8,9
 572 392.523809524 572 392.523809524 572 291 c 2,10,-1
 572 229 l 1,11,-1
 239 229 l 1,12,-1
 239 181 l 2,13,14
 239 146 239 146 261.5 128.5 c 128,-1,15
 284 111 284 111 318 111 c 128,-1,16
 352 111 352 111 370 133 c 128,-1,17
 388 155 388 155 388 192 c 1,18,-1
 571 192 l 1,19,20
 571 104.359375 571 104.359375 506 48.5 c 0,21,22
 437.927272727 -10 437.927272727 -10 322 -10 c 2,23,-1
 307 -10 l 2,24,25
 183.671875 -10 183.671875 -10 107.5 55 c 0,26,27
 27 123.693333333 27 123.693333333 27 240 c 2,0,-1
105 575 m 1,28,-1
 244 720 l 1,29,-1
 372 720 l 1,30,-1
 511 575 l 1,31,-1
 381 575 l 1,32,-1
 307 652 l 1,33,-1
 233 575 l 1,34,-1
 105 575 l 1,28,-1
239 316 m 1,35,-1
 377 316 l 1,36,-1
 377 330 l 2,37,38
 377 359 377 359 357 379.5 c 128,-1,39
 337 400 337 400 308 400 c 256,40,41
 279 400 279 400 259 379.5 c 128,-1,42
 239 359 239 359 239 330 c 2,43,-1
 239 316 l 1,35,-1
EndSplineSet
EndChar

StartChar: edieresis
Encoding: 235 235 173
Width: 601
GlyphClass: 2
Flags: W
HStem: -10 121<262.206 367.121> 229 87<239 377> 400 121<259.627 356.373> 573 147<122 274 342 494>
VStem: 27 212<132.718 229 316 378.857> 122 152<573 720> 342 152<573 720>
LayerCount: 2
Fore
SplineSet
27 240 m 2,0,-1
 27 271 l 2,1,2
 27 387.555555556 27 387.555555556 104 456 c 0,3,4
 177.125 521 177.125 521 300 521 c 2,5,-1
 325 521 l 2,6,7
 441.451612903 521 441.451612903 521 507.5 456 c 0,8,9
 572 392.523809524 572 392.523809524 572 291 c 2,10,-1
 572 229 l 1,11,-1
 239 229 l 1,12,-1
 239 181 l 2,13,14
 239 146 239 146 261.5 128.5 c 128,-1,15
 284 111 284 111 318 111 c 128,-1,16
 352 111 352 111 370 133 c 128,-1,17
 388 155 388 155 388 192 c 1,18,-1
 571 192 l 1,19,20
 571 104.359375 571 104.359375 506 48.5 c 0,21,22
 437.927272727 -10 437.927272727 -10 322 -10 c 2,23,-1
 307 -10 l 2,24,25
 183.671875 -10 183.671875 -10 107.5 55 c 0,26,27
 27 123.693333333 27 123.693333333 27 240 c 2,0,-1
122 573 m 1,28,-1
 122 720 l 1,29,-1
 274 720 l 1,30,-1
 274 573 l 1,31,-1
 122 573 l 1,28,-1
239 316 m 1,32,-1
 377 316 l 1,33,-1
 377 330 l 2,34,35
 377 359 377 359 357 379.5 c 128,-1,36
 337 400 337 400 308 400 c 256,37,38
 279 400 279 400 259 379.5 c 128,-1,39
 239 359 239 359 239 330 c 2,40,-1
 239 316 l 1,32,-1
342 573 m 1,41,-1
 342 720 l 1,42,-1
 494 720 l 1,43,-1
 494 573 l 1,44,-1
 342 573 l 1,41,-1
EndSplineSet
EndChar

StartChar: igrave
Encoding: 236 236 174
Width: 297
GlyphClass: 2
Flags: W
HStem: 0 21G<50 247> 490 20G<50 247> 700 20G<-34 131.552>
VStem: 50 197<0 510>
LayerCount: 2
Fore
SplineSet
-34 717 m 1,0,-1
 -32 720 l 1,1,-1
 119 720 l 1,2,-1
 210 575 l 1,3,-1
 92 575 l 1,4,-1
 -34 717 l 1,0,-1
50 0 m 1,5,-1
 50 510 l 1,6,-1
 247 510 l 1,7,-1
 247 0 l 1,8,-1
 50 0 l 1,5,-1
EndSplineSet
EndChar

StartChar: iacute
Encoding: 237 237 175
Width: 297
GlyphClass: 2
Flags: W
HStem: 0 21G<50 247> 490 20G<50 247> 700 20G<161.448 327>
VStem: 50 197<0 510>
LayerCount: 2
Fore
SplineSet
50 0 m 1,0,-1
 50 510 l 1,1,-1
 247 510 l 1,2,-1
 247 0 l 1,3,-1
 50 0 l 1,0,-1
83 575 m 1,4,-1
 174 720 l 1,5,-1
 325 720 l 1,6,-1
 327 717 l 1,7,-1
 201 575 l 1,8,-1
 83 575 l 1,4,-1
EndSplineSet
EndChar

StartChar: icircumflex
Encoding: 238 238 176
Width: 297
GlyphClass: 2
Flags: W
HStem: 0 21G<50 247> 490 20G<50 247> 700 20G<65.8276 232.172>
VStem: 50 197<0 510>
LayerCount: 2
Fore
SplineSet
-54 575 m 1,0,-1
 85 720 l 1,1,-1
 213 720 l 1,2,-1
 352 575 l 1,3,-1
 222 575 l 1,4,-1
 148 652 l 1,5,-1
 74 575 l 1,6,-1
 -54 575 l 1,0,-1
50 0 m 1,7,-1
 50 510 l 1,8,-1
 247 510 l 1,9,-1
 247 0 l 1,10,-1
 50 0 l 1,7,-1
EndSplineSet
EndChar

StartChar: idieresis
Encoding: 239 239 177
Width: 297
GlyphClass: 2
Flags: W
HStem: 0 21G<50 247> 490 20G<50 247> 573 147<-37 115 183 335>
VStem: -37 152<573 720> 50 197<0 510> 183 152<573 720>
LayerCount: 2
Fore
SplineSet
-37 573 m 1,0,-1
 -37 720 l 1,1,-1
 115 720 l 1,2,-1
 115 573 l 1,3,-1
 -37 573 l 1,0,-1
50 0 m 1,4,-1
 50 510 l 1,5,-1
 247 510 l 1,6,-1
 247 0 l 1,7,-1
 50 0 l 1,4,-1
183 573 m 1,8,-1
 183 720 l 1,9,-1
 335 720 l 1,10,-1
 335 573 l 1,11,-1
 183 573 l 1,8,-1
EndSplineSet
EndChar

StartChar: eth
Encoding: 240 240 178
Width: 615
GlyphClass: 2
Flags: W
HStem: -10 121<259.368 354.492>
VStem: 26 212<137.443 368.009> 376 212<136.524 378.857>
LayerCount: 2
Fore
SplineSet
176 635 m 1,0,1
 139.801724138 669.068965517 139.801724138 669.068965517 94 685 c 1,2,-1
 96 689 l 1,3,-1
 209 739 l 1,4,5
 257 722 257 722 303 695 c 1,6,-1
 374 728 l 1,7,-1
 429 677 l 1,8,-1
 370 649 l 1,9,10
 465.407407407 574.333333333 465.407407407 574.333333333 525.5 473.5 c 0,11,12
 588 368.627118644 588 368.627118644 588 266 c 2,13,-1
 588 245 l 2,14,15
 588 131.746478873 588 131.746478873 512.5 60.5 c 0,16,17
 437.791044776 -10 437.791044776 -10 323 -10 c 2,18,-1
 291 -10 l 2,19,20
 175.632352941 -10 175.632352941 -10 101.5 61 c 0,21,22
 26 133.309859155 26 133.309859155 26 245 c 2,23,-1
 26 266 l 2,24,25
 26 365.578125 26 365.578125 95 433.5 c 0,26,27
 160.180043384 497.661605206 160.180043384 497.661605206 263 510 c 1,28,29
 257.880597015 538.156716418 257.880597015 538.156716418 226 580 c 1,30,-1
 160 549 l 1,31,-1
 101 600 l 1,32,-1
 176 635 l 1,0,1
238 181 m 2,33,34
 238 152 238 152 258 131.5 c 128,-1,35
 278 111 278 111 307 111 c 256,36,37
 336 111 336 111 356 131.5 c 128,-1,38
 376 152 376 152 376 181 c 2,39,-1
 376 330 l 2,40,41
 376 359 376 359 356 379.5 c 128,-1,42
 336 400 336 400 307 400 c 256,43,44
 278 400 278 400 258 379.5 c 128,-1,45
 238 359 238 359 238 330 c 2,46,-1
 238 181 l 2,33,34
EndSplineSet
EndChar

StartChar: ntilde
Encoding: 241 241 179
Width: 599
GlyphClass: 2
Flags: W
HStem: 0 21G<50 248 354 552> 380 141<285.75 338.014> 491 20G<50 204.405> 577 103<314.938 444.597> 617 103<181.403 306.223>
VStem: 50 198<0 361.951> 91 81<577 608.335> 354 198<0 361.951> 454 81<688.665 720>
LayerCount: 2
Fore
SplineSet
219 437 m 1,0,1
 275 521 275 521 374 521 c 2,2,-1
 402 521 l 2,3,4
 464 521 464 521 508 477 c 128,-1,5
 552 433 552 433 552 371 c 2,6,-1
 552 0 l 1,7,-1
 354 0 l 1,8,-1
 354 320 l 2,9,10
 354 345 354 345 338.5 362.5 c 128,-1,11
 323 380 323 380 301 380 c 256,12,13
 279 380 279 380 263.5 362.5 c 128,-1,14
 248 345 248 345 248 320 c 2,15,-1
 248 0 l 1,16,-1
 50 0 l 1,17,-1
 50 511 l 1,18,-1
 199 511 l 1,19,-1
 219 437 l 1,0,1
91 577 m 1,20,21
 91 631.263157895 91 631.263157895 132 675.5 c 0,22,23
 173.243902439 720 173.243902439 720 231 720 c 0,24,25
 262.733333333 720 262.733333333 720 302.866666667 706 c 128,-1,26
 343 692 343 692 363.5 686 c 128,-1,27
 384 680 384 680 403.5 680 c 128,-1,28
 423 680 423 680 436 691.5 c 128,-1,29
 449 703 449 703 454 720 c 1,30,-1
 535 720 l 1,31,32
 535 665.736842105 535 665.736842105 494 621.5 c 0,33,34
 452.756097561 577 452.756097561 577 395 577 c 0,35,36
 363.714285714 577 363.714285714 577 304 596 c 2,37,-1
 262 610 l 2,38,39
 242 617 242 617 222.5 617 c 128,-1,40
 203 617 203 617 190 605.5 c 128,-1,41
 177 594 177 594 172 577 c 1,42,-1
 91 577 l 1,20,21
EndSplineSet
EndChar

StartChar: ograve
Encoding: 242 242 180
Width: 614
GlyphClass: 2
Flags: W
HStem: -10 121<259.368 354.492> 400 121<259.368 354.632> 700 20G<120 285.552>
VStem: 26 212<137.443 373.557> 376 212<136.524 373.557>
LayerCount: 2
Fore
SplineSet
26 245 m 2,0,-1
 26 266 l 2,1,2
 26 377.690140845 26 377.690140845 101.5 450 c 0,3,4
 175.632352941 521 175.632352941 521 291 521 c 2,5,-1
 323 521 l 2,6,7
 438.367647059 521 438.367647059 521 512.5 450 c 0,8,9
 588 377.690140845 588 377.690140845 588 266 c 2,10,-1
 588 245 l 2,11,12
 588 131.746478873 588 131.746478873 512.5 60.5 c 0,13,14
 437.791044776 -10 437.791044776 -10 323 -10 c 2,15,-1
 291 -10 l 2,16,17
 175.632352941 -10 175.632352941 -10 101.5 61 c 0,18,19
 26 133.309859155 26 133.309859155 26 245 c 2,0,-1
120 717 m 1,20,-1
 122 720 l 1,21,-1
 273 720 l 1,22,-1
 364 575 l 1,23,-1
 246 575 l 1,24,-1
 120 717 l 1,20,-1
238 181 m 2,25,26
 238 152 238 152 258 131.5 c 128,-1,27
 278 111 278 111 307 111 c 256,28,29
 336 111 336 111 356 131.5 c 128,-1,30
 376 152 376 152 376 181 c 2,31,-1
 376 330 l 2,32,33
 376 359 376 359 356 379.5 c 128,-1,34
 336 400 336 400 307 400 c 256,35,36
 278 400 278 400 258 379.5 c 128,-1,37
 238 359 238 359 238 330 c 2,38,-1
 238 181 l 2,25,26
EndSplineSet
EndChar

StartChar: oacute
Encoding: 243 243 181
Width: 614
GlyphClass: 2
Flags: W
HStem: -10 121<259.368 354.492> 400 121<259.368 354.632> 700 20G<327.448 493>
VStem: 26 212<137.443 373.557> 376 212<136.524 373.557>
LayerCount: 2
Fore
SplineSet
26 245 m 2,0,-1
 26 266 l 2,1,2
 26 377.690140845 26 377.690140845 101.5 450 c 0,3,4
 175.632352941 521 175.632352941 521 291 521 c 2,5,-1
 323 521 l 2,6,7
 438.367647059 521 438.367647059 521 512.5 450 c 0,8,9
 588 377.690140845 588 377.690140845 588 266 c 2,10,-1
 588 245 l 2,11,12
 588 131.746478873 588 131.746478873 512.5 60.5 c 0,13,14
 437.791044776 -10 437.791044776 -10 323 -10 c 2,15,-1
 291 -10 l 2,16,17
 175.632352941 -10 175.632352941 -10 101.5 61 c 0,18,19
 26 133.309859155 26 133.309859155 26 245 c 2,0,-1
238 181 m 2,20,21
 238 152 238 152 258 131.5 c 128,-1,22
 278 111 278 111 307 111 c 256,23,24
 336 111 336 111 356 131.5 c 128,-1,25
 376 152 376 152 376 181 c 2,26,-1
 376 330 l 2,27,28
 376 359 376 359 356 379.5 c 128,-1,29
 336 400 336 400 307 400 c 256,30,31
 278 400 278 400 258 379.5 c 128,-1,32
 238 359 238 359 238 330 c 2,33,-1
 238 181 l 2,20,21
249 575 m 1,34,-1
 340 720 l 1,35,-1
 491 720 l 1,36,-1
 493 717 l 1,37,-1
 367 575 l 1,38,-1
 249 575 l 1,34,-1
EndSplineSet
EndChar

StartChar: ocircumflex
Encoding: 244 244 182
Width: 614
GlyphClass: 2
Flags: W
HStem: -10 121<259.368 354.492> 400 121<259.368 354.632> 700 20G<222.828 389.172>
VStem: 26 212<137.443 373.557> 376 212<136.524 373.557>
LayerCount: 2
Fore
SplineSet
26 245 m 2,0,-1
 26 266 l 2,1,2
 26 377.690140845 26 377.690140845 101.5 450 c 0,3,4
 175.632352941 521 175.632352941 521 291 521 c 2,5,-1
 323 521 l 2,6,7
 438.367647059 521 438.367647059 521 512.5 450 c 0,8,9
 588 377.690140845 588 377.690140845 588 266 c 2,10,-1
 588 245 l 2,11,12
 588 131.746478873 588 131.746478873 512.5 60.5 c 0,13,14
 437.791044776 -10 437.791044776 -10 323 -10 c 2,15,-1
 291 -10 l 2,16,17
 175.632352941 -10 175.632352941 -10 101.5 61 c 0,18,19
 26 133.309859155 26 133.309859155 26 245 c 2,0,-1
103 575 m 1,20,-1
 242 720 l 1,21,-1
 370 720 l 1,22,-1
 509 575 l 1,23,-1
 379 575 l 1,24,-1
 305 652 l 1,25,-1
 231 575 l 1,26,-1
 103 575 l 1,20,-1
238 181 m 2,27,28
 238 152 238 152 258 131.5 c 128,-1,29
 278 111 278 111 307 111 c 256,30,31
 336 111 336 111 356 131.5 c 128,-1,32
 376 152 376 152 376 181 c 2,33,-1
 376 330 l 2,34,35
 376 359 376 359 356 379.5 c 128,-1,36
 336 400 336 400 307 400 c 256,37,38
 278 400 278 400 258 379.5 c 128,-1,39
 238 359 238 359 238 330 c 2,40,-1
 238 181 l 2,27,28
EndSplineSet
EndChar

StartChar: otilde
Encoding: 245 245 183
Width: 614
GlyphClass: 2
Flags: W
HStem: -10 121<259.368 354.492> 400 121<259.368 354.632> 577 103<310.203 439.597> 617 103<177.049 301.775>
VStem: 26 212<137.443 373.557> 86 81<577 608.335> 376 212<136.524 373.557> 449 81<688.665 720>
LayerCount: 2
Fore
SplineSet
26 245 m 2,0,-1
 26 266 l 2,1,2
 26 377.690140845 26 377.690140845 101.5 450 c 0,3,4
 175.632352941 521 175.632352941 521 291 521 c 2,5,-1
 323 521 l 2,6,7
 438.367647059 521 438.367647059 521 512.5 450 c 0,8,9
 588 377.690140845 588 377.690140845 588 266 c 2,10,-1
 588 245 l 2,11,12
 588 131.746478873 588 131.746478873 512.5 60.5 c 0,13,14
 437.791044776 -10 437.791044776 -10 323 -10 c 2,15,-1
 291 -10 l 2,16,17
 175.632352941 -10 175.632352941 -10 101.5 61 c 0,18,19
 26 133.309859155 26 133.309859155 26 245 c 2,0,-1
86 577 m 1,20,21
 86 631.263157895 86 631.263157895 127 675.5 c 0,22,23
 168.243902439 720 168.243902439 720 226 720 c 0,24,25
 257.733333333 720 257.733333333 720 297.866666667 706 c 128,-1,26
 338 692 338 692 358.5 686 c 128,-1,27
 379 680 379 680 398.5 680 c 128,-1,28
 418 680 418 680 431 691.5 c 128,-1,29
 444 703 444 703 449 720 c 1,30,-1
 530 720 l 1,31,32
 530 665.736842105 530 665.736842105 489 621.5 c 0,33,34
 447.756097561 577 447.756097561 577 390 577 c 0,35,36
 357 577 357 577 300 596 c 2,37,-1
 258 610 l 2,38,39
 237 617 237 617 217.5 617 c 128,-1,40
 198 617 198 617 185 605.5 c 128,-1,41
 172 594 172 594 167 577 c 1,42,-1
 86 577 l 1,20,21
238 181 m 2,43,44
 238 152 238 152 258 131.5 c 128,-1,45
 278 111 278 111 307 111 c 256,46,47
 336 111 336 111 356 131.5 c 128,-1,48
 376 152 376 152 376 181 c 2,49,-1
 376 330 l 2,50,51
 376 359 376 359 356 379.5 c 128,-1,52
 336 400 336 400 307 400 c 256,53,54
 278 400 278 400 258 379.5 c 128,-1,55
 238 359 238 359 238 330 c 2,56,-1
 238 181 l 2,43,44
EndSplineSet
EndChar

StartChar: odieresis
Encoding: 246 246 184
Width: 614
GlyphClass: 2
Flags: W
HStem: -10 121<259.368 354.492> 400 121<259.368 354.632> 573 147<120 272 340 492>
VStem: 26 212<137.443 373.557> 120 152<573 720> 340 152<573 720> 376 212<136.524 373.557>
LayerCount: 2
Fore
SplineSet
26 245 m 2,0,-1
 26 266 l 2,1,2
 26 377.690140845 26 377.690140845 101.5 450 c 0,3,4
 175.632352941 521 175.632352941 521 291 521 c 2,5,-1
 323 521 l 2,6,7
 438.367647059 521 438.367647059 521 512.5 450 c 0,8,9
 588 377.690140845 588 377.690140845 588 266 c 2,10,-1
 588 245 l 2,11,12
 588 131.746478873 588 131.746478873 512.5 60.5 c 0,13,14
 437.791044776 -10 437.791044776 -10 323 -10 c 2,15,-1
 291 -10 l 2,16,17
 175.632352941 -10 175.632352941 -10 101.5 61 c 0,18,19
 26 133.309859155 26 133.309859155 26 245 c 2,0,-1
120 573 m 1,20,-1
 120 720 l 1,21,-1
 272 720 l 1,22,-1
 272 573 l 1,23,-1
 120 573 l 1,20,-1
238 181 m 2,24,25
 238 152 238 152 258 131.5 c 128,-1,26
 278 111 278 111 307 111 c 256,27,28
 336 111 336 111 356 131.5 c 128,-1,29
 376 152 376 152 376 181 c 2,30,-1
 376 330 l 2,31,32
 376 359 376 359 356 379.5 c 128,-1,33
 336 400 336 400 307 400 c 256,34,35
 278 400 278 400 258 379.5 c 128,-1,36
 238 359 238 359 238 330 c 2,37,-1
 238 181 l 2,24,25
340 573 m 1,38,-1
 340 720 l 1,39,-1
 492 720 l 1,40,-1
 492 573 l 1,41,-1
 340 573 l 1,38,-1
EndSplineSet
EndChar

StartChar: divide
Encoding: 247 247 185
Width: 615
GlyphClass: 2
Flags: W
HStem: 17 127<245 372> 193 128<51 563> 369 127<245 372>
VStem: 245 127<17 144 369 496>
LayerCount: 2
Fore
SplineSet
51 193 m 1,0,-1
 51 321 l 1,1,-1
 563 321 l 1,2,-1
 563 193 l 1,3,-1
 51 193 l 1,0,-1
245 17 m 1,4,-1
 245 144 l 1,5,-1
 372 144 l 1,6,-1
 372 17 l 1,7,-1
 245 17 l 1,4,-1
245 369 m 1,8,-1
 245 496 l 1,9,-1
 372 496 l 1,10,-1
 372 369 l 1,11,-1
 245 369 l 1,8,-1
EndSplineSet
EndChar

StartChar: oslash
Encoding: 248 248 186
Width: 614
GlyphClass: 2
Flags: W
HStem: -10 121<269.193 354.492> 400 121<259.368 344.16>
VStem: 26 212<221.156 373.557> 376 212<136.524 290.258>
LayerCount: 2
Fore
SplineSet
125 42 m 1,0,1
 26 115.173913043 26 115.173913043 26 245 c 2,2,-1
 26 266 l 2,3,4
 26 377.690140845 26 377.690140845 101.5 450 c 0,5,6
 175.632352941 521 175.632352941 521 291 521 c 2,7,-1
 323 521 l 2,8,9
 376 521 376 521 420 505 c 1,10,-1
 460 569 l 1,11,-1
 552 569 l 1,12,-1
 489 470 l 1,13,14
 535 436 535 436 561.5 384 c 128,-1,15
 588 332 588 332 588 266 c 2,16,-1
 588 245 l 2,17,18
 588 131.746478873 588 131.746478873 512.5 60.5 c 0,19,20
 437.791044776 -10 437.791044776 -10 323 -10 c 2,21,-1
 291 -10 l 2,22,23
 236 -10 236 -10 194 6 c 1,24,-1
 155 -55 l 1,25,-1
 63 -55 l 1,26,-1
 125 42 l 1,0,1
238 220 m 1,27,-1
 345 388 l 1,28,29
 328 400 328 400 303 400 c 128,-1,30
 278 400 278 400 258 379.5 c 128,-1,31
 238 359 238 359 238 330 c 2,32,-1
 238 220 l 1,27,-1
268 123 m 1,33,34
 284 111 284 111 310 111 c 128,-1,35
 336 111 336 111 356 131.5 c 128,-1,36
 376 152 376 152 376 181 c 2,37,-1
 376 292 l 1,38,-1
 268 123 l 1,33,34
EndSplineSet
EndChar

StartChar: ugrave
Encoding: 249 249 187
Width: 628
GlyphClass: 2
Flags: W
HStem: -10 121<558.313 611.712> 491 20G<46 244 350 548> 700 20G<114 279.552>
VStem: 46 198<149.049 511> 350 198<149.049 511>
LayerCount: 2
Fore
SplineSet
614 13 m 1,0,1
 577.857142857 -10 577.857142857 -10 511.928571429 -10 c 128,-1,2
 446 -10 446 -10 413 11.5 c 128,-1,3
 380 33 380 33 366 71 c 1,4,5
 335.18 24.77 335.18 24.77 274 -0.5 c 0,6,7
 251 -10 251 -10 224 -10 c 2,8,-1
 196 -10 l 2,9,10
 134 -10 134 -10 90 34 c 128,-1,11
 46 78 46 78 46 140 c 2,12,-1
 46 511 l 1,13,-1
 244 511 l 1,14,-1
 244 191 l 2,15,16
 244 166 244 166 259.5 148.5 c 128,-1,17
 275 131 275 131 297 131 c 256,18,19
 319 131 319 131 334.5 148.5 c 128,-1,20
 350 166 350 166 350 191 c 2,21,-1
 350 511 l 1,22,-1
 548 511 l 1,23,-1
 548 148 l 2,24,25
 548 128 548 128 558 119.5 c 128,-1,26
 568 111 568 111 582 111 c 128,-1,27
 596 111 596 111 614 120 c 1,28,-1
 614 13 l 1,0,1
114 717 m 1,29,-1
 116 720 l 1,30,-1
 267 720 l 1,31,-1
 358 575 l 1,32,-1
 240 575 l 1,33,-1
 114 717 l 1,29,-1
EndSplineSet
EndChar

StartChar: uacute
Encoding: 250 250 188
Width: 628
GlyphClass: 2
Flags: W
HStem: -10 121<558.313 611.712> 491 20G<46 244 350 548> 700 20G<308.448 474>
VStem: 46 198<149.049 511> 350 198<149.049 511>
LayerCount: 2
Fore
SplineSet
614 13 m 1,0,1
 577.857142857 -10 577.857142857 -10 511.928571429 -10 c 128,-1,2
 446 -10 446 -10 413 11.5 c 128,-1,3
 380 33 380 33 366 71 c 1,4,5
 335.18 24.77 335.18 24.77 274 -0.5 c 0,6,7
 251 -10 251 -10 224 -10 c 2,8,-1
 196 -10 l 2,9,10
 134 -10 134 -10 90 34 c 128,-1,11
 46 78 46 78 46 140 c 2,12,-1
 46 511 l 1,13,-1
 244 511 l 1,14,-1
 244 191 l 2,15,16
 244 166 244 166 259.5 148.5 c 128,-1,17
 275 131 275 131 297 131 c 256,18,19
 319 131 319 131 334.5 148.5 c 128,-1,20
 350 166 350 166 350 191 c 2,21,-1
 350 511 l 1,22,-1
 548 511 l 1,23,-1
 548 148 l 2,24,25
 548 128 548 128 558 119.5 c 128,-1,26
 568 111 568 111 582 111 c 128,-1,27
 596 111 596 111 614 120 c 1,28,-1
 614 13 l 1,0,1
230 575 m 1,29,-1
 321 720 l 1,30,-1
 472 720 l 1,31,-1
 474 717 l 1,32,-1
 348 575 l 1,33,-1
 230 575 l 1,29,-1
EndSplineSet
EndChar

StartChar: ucircumflex
Encoding: 251 251 189
Width: 628
GlyphClass: 2
Flags: W
HStem: -10 121<558.313 611.712> 491 20G<46 244 350 548> 700 20G<213.828 380.172>
VStem: 46 198<149.049 511> 350 198<149.049 511>
LayerCount: 2
Fore
SplineSet
614 13 m 1,0,1
 577.857142857 -10 577.857142857 -10 511.928571429 -10 c 128,-1,2
 446 -10 446 -10 413 11.5 c 128,-1,3
 380 33 380 33 366 71 c 1,4,5
 335.18 24.77 335.18 24.77 274 -0.5 c 0,6,7
 251 -10 251 -10 224 -10 c 2,8,-1
 196 -10 l 2,9,10
 134 -10 134 -10 90 34 c 128,-1,11
 46 78 46 78 46 140 c 2,12,-1
 46 511 l 1,13,-1
 244 511 l 1,14,-1
 244 191 l 2,15,16
 244 166 244 166 259.5 148.5 c 128,-1,17
 275 131 275 131 297 131 c 256,18,19
 319 131 319 131 334.5 148.5 c 128,-1,20
 350 166 350 166 350 191 c 2,21,-1
 350 511 l 1,22,-1
 548 511 l 1,23,-1
 548 148 l 2,24,25
 548 128 548 128 558 119.5 c 128,-1,26
 568 111 568 111 582 111 c 128,-1,27
 596 111 596 111 614 120 c 1,28,-1
 614 13 l 1,0,1
94 575 m 1,29,-1
 233 720 l 1,30,-1
 361 720 l 1,31,-1
 500 575 l 1,32,-1
 370 575 l 1,33,-1
 296 652 l 1,34,-1
 222 575 l 1,35,-1
 94 575 l 1,29,-1
EndSplineSet
EndChar

StartChar: udieresis
Encoding: 252 252 190
Width: 628
GlyphClass: 2
Flags: W
HStem: -10 121<558.313 611.712> 491 20G<46 244 350 548> 573 147<111 263 331 483>
VStem: 46 198<149.049 511> 111 152<573 720> 331 152<573 720> 350 198<149.049 511>
LayerCount: 2
Fore
SplineSet
614 13 m 1,0,1
 577.857142857 -10 577.857142857 -10 511.928571429 -10 c 128,-1,2
 446 -10 446 -10 413 11.5 c 128,-1,3
 380 33 380 33 366 71 c 1,4,5
 335.18 24.77 335.18 24.77 274 -0.5 c 0,6,7
 251 -10 251 -10 224 -10 c 2,8,-1
 196 -10 l 2,9,10
 134 -10 134 -10 90 34 c 128,-1,11
 46 78 46 78 46 140 c 2,12,-1
 46 511 l 1,13,-1
 244 511 l 1,14,-1
 244 191 l 2,15,16
 244 166 244 166 259.5 148.5 c 128,-1,17
 275 131 275 131 297 131 c 256,18,19
 319 131 319 131 334.5 148.5 c 128,-1,20
 350 166 350 166 350 191 c 2,21,-1
 350 511 l 1,22,-1
 548 511 l 1,23,-1
 548 148 l 2,24,25
 548 128 548 128 558 119.5 c 128,-1,26
 568 111 568 111 582 111 c 128,-1,27
 596 111 596 111 614 120 c 1,28,-1
 614 13 l 1,0,1
111 573 m 1,29,-1
 111 720 l 1,30,-1
 263 720 l 1,31,-1
 263 573 l 1,32,-1
 111 573 l 1,29,-1
331 573 m 1,33,-1
 331 720 l 1,34,-1
 483 720 l 1,35,-1
 483 573 l 1,36,-1
 331 573 l 1,33,-1
EndSplineSet
EndChar

StartChar: yacute
Encoding: 253 253 191
Width: 553
GlyphClass: 2
Flags: W
HStem: -187 130<31.9827 161.753> 491 20G<-4 212.962 355.943 556> 700 20G<300.448 466>
LayerCount: 2
Fore
SplineSet
31 -43 m 1,0,1
 61.8 -57 61.8 -57 95.4 -57 c 128,-1,2
 129 -57 129 -57 143.5 -49.5 c 128,-1,3
 158 -42 158 -42 166 -30.5 c 0,4,5
 177.591836735 -13.8367346939 177.591836735 -13.8367346939 184 15 c 1,6,-1
 -4 511 l 1,7,-1
 207 511 l 1,8,-1
 286 246 l 1,9,-1
 294 246 l 1,10,-1
 361 511 l 1,11,-1
 556 511 l 1,12,-1
 384 36 l 1,13,14
 328.223708774 -121.485998755 328.223708774 -121.485998755 215.5 -170 c 0,15,16
 176 -187 176 -187 119.4375 -187 c 128,-1,17
 62.875 -187 62.875 -187 31 -172 c 1,18,-1
 31 -43 l 1,0,1
222 575 m 1,19,-1
 313 720 l 1,20,-1
 464 720 l 1,21,-1
 466 717 l 1,22,-1
 340 575 l 1,23,-1
 222 575 l 1,19,-1
EndSplineSet
EndChar

StartChar: thorn
Encoding: 254 254 192
Width: 601
GlyphClass: 2
Flags: W
HStem: -181 21G<50 248> -10 125<289.575 353.436> 400 121<289.945 421.954> 700 20G<50 248>
VStem: 50 198<-181 53 136.143 378.857 458 720> 372 201<136.143 378.857>
LayerCount: 2
Fore
SplineSet
248 53 m 1,0,-1
 248 -181 l 1,1,-1
 50 -181 l 1,2,-1
 50 720 l 1,3,-1
 248 720 l 1,4,-1
 248 458 l 1,5,6
 286.769230769 521 286.769230769 521 380 521 c 0,7,8
 463.907692308 521 463.907692308 521 516.5 456.5 c 0,9,10
 573 387.20754717 573 387.20754717 573 261 c 2,11,-1
 573 250 l 2,12,13
 573 123.79245283 573 123.79245283 516.5 54.5 c 0,14,15
 463.907692308 -10 463.907692308 -10 375.338461538 -10 c 128,-1,16
 286.769230769 -10 286.769230769 -10 248 53 c 1,0,-1
248 185 m 2,17,18
 248 156 248 156 266 135.5 c 128,-1,19
 284 115 284 115 310 115 c 256,20,21
 336 115 336 115 354 135.5 c 128,-1,22
 372 156 372 156 372 185 c 2,23,-1
 372 330 l 2,24,25
 372 359 372 359 354 379.5 c 128,-1,26
 336 400 336 400 310 400 c 256,27,28
 284 400 284 400 266 379.5 c 128,-1,29
 248 359 248 359 248 330 c 2,30,-1
 248 185 l 2,17,18
EndSplineSet
EndChar

StartChar: ydieresis
Encoding: 255 255 193
Width: 553
GlyphClass: 2
Flags: W
HStem: -187 130<31.9827 161.753> 491 20G<-4 212.962 355.943 556> 573 147<96 248 316 468>
VStem: 96 152<573 720> 316 152<573 720>
LayerCount: 2
Fore
SplineSet
31 -43 m 1,0,1
 61.8 -57 61.8 -57 95.4 -57 c 128,-1,2
 129 -57 129 -57 143.5 -49.5 c 128,-1,3
 158 -42 158 -42 166 -30.5 c 0,4,5
 177.591836735 -13.8367346939 177.591836735 -13.8367346939 184 15 c 1,6,-1
 -4 511 l 1,7,-1
 207 511 l 1,8,-1
 286 246 l 1,9,-1
 294 246 l 1,10,-1
 361 511 l 1,11,-1
 556 511 l 1,12,-1
 384 36 l 1,13,14
 328.223708774 -121.485998755 328.223708774 -121.485998755 215.5 -170 c 0,15,16
 176 -187 176 -187 119.4375 -187 c 128,-1,17
 62.875 -187 62.875 -187 31 -172 c 1,18,-1
 31 -43 l 1,0,1
96 573 m 1,19,-1
 96 720 l 1,20,-1
 248 720 l 1,21,-1
 248 573 l 1,22,-1
 96 573 l 1,19,-1
316 573 m 1,23,-1
 316 720 l 1,24,-1
 468 720 l 1,25,-1
 468 573 l 1,26,-1
 316 573 l 1,23,-1
EndSplineSet
EndChar

StartChar: dotlessi
Encoding: 305 305 194
Width: 297
GlyphClass: 2
Flags: W
HStem: 0 21G<50 247> 490 20G<50 247>
VStem: 50 197<0 510>
LayerCount: 2
Fore
SplineSet
50 0 m 1,0,-1
 50 510 l 1,1,-1
 247 510 l 1,2,-1
 247 0 l 1,3,-1
 50 0 l 1,0,-1
EndSplineSet
EndChar

StartChar: Lslash
Encoding: 321 321 195
Width: 562
GlyphClass: 2
Flags: W
HStem: 0 168<287 526> 666 20G<75 287>
VStem: 75 212<168 288 393 394 499 686>
LayerCount: 2
Fore
SplineSet
9 255 m 1,0,-1
 9 360 l 1,1,-1
 75 393 l 1,2,-1
 75 686 l 1,3,-1
 287 686 l 1,4,-1
 287 499 l 1,5,-1
 378 544 l 1,6,-1
 378 439 l 1,7,-1
 287 394 l 1,8,-1
 287 168 l 1,9,-1
 526 168 l 1,10,-1
 556 0 l 1,11,-1
 75 0 l 1,12,-1
 75 288 l 1,13,-1
 9 255 l 1,0,-1
EndSplineSet
EndChar

StartChar: lslash
Encoding: 322 322 196
Width: 349
GlyphClass: 2
Flags: W
HStem: 0 21G<76 274> 499 20G<295.645 335> 700 20G<76 274>
VStem: 76 198<0 285 488 720>
LayerCount: 2
Fore
SplineSet
17 255 m 1,0,-1
 17 360 l 1,1,-1
 76 389 l 1,2,-1
 76 720 l 1,3,-1
 274 720 l 1,4,-1
 274 488 l 1,5,-1
 335 519 l 1,6,-1
 335 414 l 1,7,-1
 274 384 l 1,8,-1
 274 0 l 1,9,-1
 76 0 l 1,10,-1
 76 285 l 1,11,-1
 17 255 l 1,0,-1
EndSplineSet
EndChar

StartChar: OE
Encoding: 338 338 197
Width: 991
GlyphClass: 2
Flags: W
HStem: -10 157<294.804 424.587> 0 157<672 947> 266 153<672 916> 528 158<672 927> 540 154<294.804 424.587>
VStem: 31 226<185.115 502.364> 462 210<184.413 266 419 502.587>
LayerCount: 2
Fore
SplineSet
462 0 m 1,0,1
 426 -10 426 -10 387 -10 c 2,2,-1
 331 -10 l 2,3,4
 269 -10 269 -10 214 13.5 c 128,-1,5
 159 37 159 37 118.5 77.5 c 128,-1,6
 78 118 78 118 54.5 173 c 128,-1,7
 31 228 31 228 31 290 c 2,8,-1
 31 394 l 2,9,10
 31 456 31 456 54.5 511 c 128,-1,11
 78 566 78 566 118.5 606.5 c 128,-1,12
 159 647 159 647 214 670.5 c 128,-1,13
 269 694 269 694 331 694 c 2,14,-1
 387 694 l 2,15,16
 425 694 425 694 463 686 c 1,17,-1
 967 686 l 1,18,-1
 927 528 l 1,19,-1
 672 528 l 1,20,-1
 672 419 l 1,21,-1
 916 419 l 1,22,-1
 916 266 l 1,23,-1
 672 266 l 1,24,-1
 672 157 l 1,25,-1
 947 157 l 1,26,-1
 977 0 l 1,27,-1
 462 0 l 1,0,1
257 247 m 2,28,29
 257 205 257 205 286 176 c 128,-1,30
 315 147 315 147 357 147 c 2,31,-1
 362 147 l 2,32,33
 404 147 404 147 433 176 c 128,-1,34
 462 205 462 205 462 247 c 2,35,-1
 462 440 l 2,36,37
 462 482 462 482 433 511 c 128,-1,38
 404 540 404 540 362 540 c 2,39,-1
 357 540 l 2,40,41
 315 540 315 540 286 511 c 128,-1,42
 257 482 257 482 257 440 c 2,43,-1
 257 247 l 2,28,29
EndSplineSet
EndChar

StartChar: oe
Encoding: 339 339 198
Width: 944
GlyphClass: 2
Flags: W
HStem: -10 121<259.368 355.373 605.206 710.121> 229 87<582 720> 400 121<259.368 355.227 602.627 699.373>
VStem: 26 212<137.443 373.557> 376 206<132.143 229 316 378.857>
LayerCount: 2
Fore
SplineSet
479 34 m 1,0,1
 411.952380952 -10 411.952380952 -10 323 -10 c 2,2,-1
 291 -10 l 2,3,4
 175.632352941 -10 175.632352941 -10 101.5 61 c 0,5,6
 26 133.309859155 26 133.309859155 26 245 c 2,7,-1
 26 266 l 2,8,9
 26 377.690140845 26 377.690140845 101.5 450 c 0,10,11
 175.632352941 521 175.632352941 521 291 521 c 2,12,-1
 323 521 l 2,13,14
 411 521 411 521 477 478 c 1,15,16
 546 521 546 521 643 521 c 2,17,-1
 668 521 l 2,18,19
 784.451612903 521 784.451612903 521 850.5 456 c 0,20,21
 915 392.523809524 915 392.523809524 915 291 c 2,22,-1
 915 229 l 1,23,-1
 582 229 l 1,24,-1
 582 181 l 2,25,26
 582 146 582 146 604.5 128.5 c 128,-1,27
 627 111 627 111 661 111 c 128,-1,28
 695 111 695 111 713 133 c 128,-1,29
 731 155 731 155 731 192 c 1,30,-1
 914 192 l 1,31,32
 914 104.359375 914 104.359375 849 48.5 c 0,33,34
 780.927272727 -10 780.927272727 -10 665 -10 c 2,35,-1
 650 -10 l 2,36,37
 550 -10 550 -10 479 34 c 1,0,1
238 181 m 2,38,39
 238 152 238 152 258 131.5 c 128,-1,40
 278 111 278 111 307 111 c 256,41,42
 336 111 336 111 356 131.5 c 128,-1,43
 376 152 376 152 376 181 c 2,44,-1
 376 330 l 2,45,46
 376 359 376 359 356 379.5 c 128,-1,47
 336 400 336 400 307 400 c 256,48,49
 278 400 278 400 258 379.5 c 128,-1,50
 238 359 238 359 238 330 c 2,51,-1
 238 181 l 2,38,39
582 316 m 1,52,-1
 720 316 l 1,53,-1
 720 330 l 2,54,55
 720 359 720 359 700 379.5 c 128,-1,56
 680 400 680 400 651 400 c 256,57,58
 622 400 622 400 602 379.5 c 128,-1,59
 582 359 582 359 582 330 c 2,60,-1
 582 316 l 1,52,-1
EndSplineSet
EndChar

StartChar: Scaron
Encoding: 352 352 199
Width: 651
GlyphClass: 2
Flags: W
HStem: -10 161<239.96 393.59> 544 152<259.171 398.794>
VStem: 25 194<171.426 233.812> 407 216<163.619 260.25>
LayerCount: 2
Fore
SplineSet
335 544 m 0,0,1
 252 544 252 544 252 502 c 0,2,3
 252 477 252 477 279.5 464.5 c 128,-1,4
 307 452 307 452 348 442 c 2,5,-1
 437 422 l 2,6,7
 545.534201954 397.635179153 545.534201954 397.635179153 595.5 329.5 c 0,8,9
 623 292 623 292 623 228.5 c 128,-1,10
 623 165 623 165 601 120 c 128,-1,11
 579 75 579 75 539 46 c 0,12,13
 461.75862069 -10 461.75862069 -10 318 -10 c 0,14,15
 194 -10 194 -10 114.5 43 c 0,16,17
 25 102.666666667 25 102.666666667 25 210 c 2,18,-1
 25 222 l 2,19,20
 25 228 25 228 26 234 c 1,21,-1
 220 234 l 1,22,23
 219 230 219 230 219 219.5 c 128,-1,24
 219 209 219 209 223.5 196 c 128,-1,25
 228 183 228 183 238.5 173 c 0,26,27
 261.6 151 261.6 151 301.8 151 c 128,-1,28
 342 151 342 151 361 154.5 c 128,-1,29
 380 158 380 158 390 164 c 0,30,31
 407 174.2 407 174.2 407 196.1 c 128,-1,32
 407 218 407 218 380 230 c 128,-1,33
 353 242 353 242 312 251 c 128,-1,34
 271 260 271 260 223.5 271.5 c 128,-1,35
 176 283 176 283 135 306.5 c 0,36,37
 40 360.951219512 40 360.951219512 40 478 c 0,38,39
 40 581.974683544 40 581.974683544 125.5 641.5 c 0,40,41
 203.781818182 696 203.781818182 696 331 696 c 0,42,43
 452.745098039 696 452.745098039 696 528 645.5 c 0,44,45
 610 590.473684211 610 590.473684211 610 486 c 2,46,-1
 610 474 l 1,47,-1
 418 474 l 1,48,-1
 418 478 l 2,49,50
 418 504 418 504 399 524 c 128,-1,51
 380 544 380 544 335 544 c 0,0,1
125 895 m 1,52,-1
 255 895 l 1,53,-1
 329 818 l 1,54,-1
 403 895 l 1,55,-1
 531 895 l 1,56,-1
 392 750 l 1,57,-1
 264 750 l 1,58,-1
 125 895 l 1,52,-1
EndSplineSet
EndChar

StartChar: scaron
Encoding: 353 353 200
Width: 559
GlyphClass: 2
Flags: W
HStem: -10 121<197.929 351.189> 403 118<213.547 346.895> 700 20G<79 228.221 337.779 485>
VStem: 38 173<301.923 396.21> 356 176<119.736 218.345>
LayerCount: 2
Fore
SplineSet
285 403 m 0,0,1
 211 403 211 403 211 374 c 0,2,3
 211 356 211 356 235 349 c 128,-1,4
 259 342 259 342 294.5 338 c 128,-1,5
 330 334 330 334 371.5 328 c 128,-1,6
 413 322 413 322 448.5 305.5 c 0,7,8
 532 266.690140845 532 266.690140845 532 170 c 0,9,10
 532 75.7014925373 532 75.7014925373 457.5 29 c 0,11,12
 395.285714286 -10 395.285714286 -10 295 -10 c 2,13,-1
 243 -10 l 2,14,15
 154.692307692 -10 154.692307692 -10 92.5 28.5 c 0,16,17
 22 72.1428571429 22 72.1428571429 22 149 c 2,18,-1
 22 158 l 2,19,20
 22 162 22 162 23 167 c 1,21,-1
 185 167 l 1,22,-1
 185 163 l 2,23,24
 185 134.846153846 185 134.846153846 215 121 c 0,25,26
 236.666666667 111 236.666666667 111 271 111 c 0,27,28
 356 111 356 111 356 142 c 0,29,30
 356 161 356 161 332.5 168.5 c 128,-1,31
 309 176 309 176 273.5 181 c 128,-1,32
 238 186 238 186 197 193 c 128,-1,33
 156 200 156 200 120.5 216.5 c 0,34,35
 38 254.845070423 38 254.845070423 38 349 c 0,36,37
 38 433.217391304 38 433.217391304 116.5 481 c 0,38,39
 182.214285714 521 182.214285714 521 273 521 c 2,40,-1
 304 521 l 2,41,42
 382.411764706 521 382.411764706 521 445.5 488 c 0,43,44
 521 448.507692308 521 448.507692308 521 384 c 1,45,-1
 520 365 l 2,46,47
 519 361 519 361 519 358 c 1,48,-1
 355 358 l 1,49,50
 355 393.4 355 393.4 307.5 401 c 0,51,52
 295 403 295 403 285 403 c 0,0,1
79 720 m 1,53,-1
 209 720 l 1,54,-1
 283 643 l 1,55,-1
 357 720 l 1,56,-1
 485 720 l 1,57,-1
 346 575 l 1,58,-1
 218 575 l 1,59,-1
 79 720 l 1,53,-1
EndSplineSet
EndChar

StartChar: Ydieresis
Encoding: 376 376 201
Width: 646
GlyphClass: 2
Flags: W
HStem: 0 21G<219 428> 666 20G<-9 236.156 430.667 655> 750 147<149 301 369 521>
VStem: 149 152<750 897> 219 209<0 262> 369 152<750 897>
LayerCount: 2
Fore
SplineSet
-9 686 m 1,0,-1
 227 686 l 1,1,-1
 330 461 l 1,2,-1
 335 461 l 1,3,-1
 440 686 l 1,4,-1
 655 686 l 1,5,-1
 428 262 l 1,6,-1
 428 0 l 1,7,-1
 219 0 l 1,8,-1
 219 262 l 1,9,-1
 -9 686 l 1,0,-1
149 750 m 1,10,-1
 149 897 l 1,11,-1
 301 897 l 1,12,-1
 301 750 l 1,13,-1
 149 750 l 1,10,-1
369 750 m 1,14,-1
 369 897 l 1,15,-1
 521 897 l 1,16,-1
 521 750 l 1,17,-1
 369 750 l 1,14,-1
EndSplineSet
EndChar

StartChar: Zcaron
Encoding: 381 381 202
Width: 608
GlyphClass: 2
Flags: W
HStem: 0 158<314 585> 526 160<38 282>
LayerCount: 2
Fore
SplineSet
14 0 m 1,0,-1
 14 61 l 1,1,-1
 282 530 l 1,2,-1
 38 526 l 1,3,-1
 38 686 l 1,4,-1
 577 686 l 1,5,-1
 577 625 l 1,6,-1
 314 158 l 1,7,-1
 585 161 l 1,8,-1
 585 0 l 1,9,-1
 14 0 l 1,0,-1
105 895 m 1,10,-1
 235 895 l 1,11,-1
 309 818 l 1,12,-1
 383 895 l 1,13,-1
 511 895 l 1,14,-1
 372 750 l 1,15,-1
 244 750 l 1,16,-1
 105 895 l 1,10,-1
EndSplineSet
EndChar

StartChar: zcaron
Encoding: 382 382 203
Width: 498
GlyphClass: 2
Flags: W
HStem: 0 124<277 474> 387 124<33 210> 700 20G<45 194.221 303.779 451>
LayerCount: 2
Fore
SplineSet
22 0 m 1,0,-1
 22 63 l 1,1,-1
 210 387 l 1,2,-1
 33 387 l 1,3,-1
 33 511 l 1,4,-1
 466 511 l 1,5,-1
 466 451 l 1,6,-1
 277 124 l 1,7,-1
 474 124 l 1,8,-1
 474 0 l 1,9,-1
 22 0 l 1,0,-1
45 720 m 1,10,-1
 175 720 l 1,11,-1
 249 643 l 1,12,-1
 323 720 l 1,13,-1
 451 720 l 1,14,-1
 312 575 l 1,15,-1
 184 575 l 1,16,-1
 45 720 l 1,10,-1
EndSplineSet
EndChar

StartChar: florin
Encoding: 402 402 204
Width: 426
GlyphClass: 2
Flags: W
HStem: -184 122<-92.5207 115.951> 369 142<44 88 306 406> 606 122<230.325 438.771>
LayerCount: 2
Fore
SplineSet
-91 -52 m 1,0,1
 -63.5 -62 -63.5 -62 -42.25 -62 c 128,-1,2
 -21 -62 -21 -62 -10.5 -60.5 c 128,-1,3
 0 -59 0 -59 9 -53.5 c 0,4,5
 29.7391304348 -40.8260869565 29.7391304348 -40.8260869565 35 -4 c 2,6,-1
 88 369 l 1,7,-1
 24 369 l 1,8,-1
 44 511 l 1,9,-1
 108 511 l 1,10,-1
 117 577 l 1,11,12
 139.65 728 139.65 728 321 728 c 0,13,14
 367.75 728 367.75 728 403.875 719.5 c 128,-1,15
 440 711 440 711 452 706 c 1,16,-1
 437 596 l 1,17,18
 425.636363636 600.545454545 425.636363636 600.545454545 403.818181818 603.272727273 c 128,-1,19
 382 606 382 606 374.5 606 c 128,-1,20
 367 606 367 606 356.5 604.5 c 128,-1,21
 346 603 346 603 337 597.5 c 0,22,23
 316.260869565 584.826086957 316.260869565 584.826086957 311 548 c 2,24,-1
 306 511 l 1,25,-1
 426 511 l 1,26,-1
 406 369 l 1,27,-1
 286 369 l 1,28,-1
 229 -33 l 2,29,30
 206.902439024 -184 206.902439024 -184 25 -184 c 0,31,32
 -21.75 -184 -21.75 -184 -57.875 -175.5 c 128,-1,33
 -94 -167 -94 -167 -106 -162 c 1,34,-1
 -91 -52 l 1,0,1
EndSplineSet
EndChar

StartChar: circumflex
Encoding: 710 710 205
Width: 540
GlyphClass: 2
Flags: W
HStem: 575 145
LayerCount: 2
Fore
SplineSet
65 575 m 1,0,-1
 204 720 l 1,1,-1
 332 720 l 1,2,-1
 471 575 l 1,3,-1
 341 575 l 1,4,-1
 267 652 l 1,5,-1
 193 575 l 1,6,-1
 65 575 l 1,0,-1
EndSplineSet
EndChar

StartChar: caron
Encoding: 711 711 206
Width: 540
GlyphClass: 2
Flags: W
HStem: 575 145
LayerCount: 2
Fore
SplineSet
65 720 m 1,0,-1
 195 720 l 1,1,-1
 269 643 l 1,2,-1
 343 720 l 1,3,-1
 471 720 l 1,4,-1
 332 575 l 1,5,-1
 204 575 l 1,6,-1
 65 720 l 1,0,-1
EndSplineSet
EndChar

StartChar: breve
Encoding: 728 728 207
Width: 520
GlyphClass: 2
Flags: W
HStem: 613 86<178.619 341.406>
LayerCount: 2
Fore
SplineSet
68 737 m 1,0,-1
 164 737 l 1,1,2
 164 726.923076923 164 726.923076923 184.5 717.461538462 c 0,3,4
 224.5 699 224.5 699 260 699 c 256,5,6
 295.75 699 295.75 699 319.375 709.5 c 0,7,8
 358 726.666666667 358 726.666666667 358 737 c 1,9,-1
 453 737 l 1,10,11
 453 692.377358491 453 692.377358491 396.5 654 c 0,12,13
 336.138888889 613 336.138888889 613 260 613 c 256,14,15
 183.222222222 613 183.222222222 613 124 654 c 0,16,17
 68 692.769230769 68 692.769230769 68 737 c 1,0,-1
EndSplineSet
EndChar

StartChar: dotaccent
Encoding: 729 729 208
Width: 280
GlyphClass: 2
Flags: W
HStem: 604 132<94.1112 185.889>
VStem: 74 132<624.111 715.889>
LayerCount: 2
Fore
SplineSet
93.5 623.5 m 128,-1,1
 74 643 74 643 74 670.5 c 128,-1,2
 74 698 74 698 93 717 c 128,-1,3
 112 736 112 736 140 736 c 256,4,5
 168 736 168 736 187 716.5 c 128,-1,6
 206 697 206 697 206 669 c 128,-1,7
 206 641 206 641 186.5 622.5 c 128,-1,8
 167 604 167 604 140 604 c 128,-1,0
 113 604 113 604 93.5 623.5 c 128,-1,1
EndSplineSet
EndChar

StartChar: ring
Encoding: 730 730 209
Width: 340
GlyphClass: 2
Flags: W
HStem: 545 65<142.059 198.374> 680 66<141.626 198.259>
VStem: 69 66<616.488 673.116> 205 66<616.641 673.512>
LayerCount: 2
Fore
SplineSet
69 645 m 256,0,1
 69 687 69 687 98.5 716.5 c 128,-1,2
 128 746 128 746 170 746 c 256,3,4
 210.407407407 746 210.407407407 746 241 716.5 c 0,5,6
 271 687.571428571 271 687.571428571 271 645 c 256,7,8
 271 604 271 604 241.5 574.5 c 128,-1,9
 212 545 212 545 170 545 c 256,10,11
 128.555555556 545 128.555555556 545 99 573.5 c 0,12,13
 69 602.428571429 69 602.428571429 69 645 c 256,0,1
145 669.5 m 128,-1,15
 135 659 135 659 135 644.5 c 128,-1,16
 135 630 135 630 145.5 620 c 128,-1,17
 156 610 156 610 170.5 610 c 128,-1,18
 185 610 185 610 195 620.5 c 128,-1,19
 205 631 205 631 205 645.5 c 128,-1,20
 205 660 205 660 194.5 670 c 128,-1,21
 184 680 184 680 169.5 680 c 128,-1,14
 155 680 155 680 145 669.5 c 128,-1,15
EndSplineSet
EndChar

StartChar: ogonek
Encoding: 731 731 210
Width: 340
GlyphClass: 2
Flags: W
HStem: -143 53<148.191 260.659>
VStem: 69 77<-86.943 -25.8571>
LayerCount: 2
Fore
SplineSet
190 -90 m 0,0,1
 219.666666667 -90 219.666666667 -90 257 -76 c 1,2,-1
 270 -119 l 1,3,4
 222 -143 222 -143 166 -143 c 0,5,6
 101.111111111 -143 101.111111111 -143 77.5 -105.5 c 0,7,8
 69 -92 69 -92 69 -69.5 c 128,-1,9
 69 -47 69 -47 87 -29.5 c 128,-1,10
 105 -12 105 -12 123 0 c 1,11,-1
 193 0 l 1,12,13
 179 -9 179 -9 162.5 -22.5 c 128,-1,14
 146 -36 146 -36 146 -56 c 256,15,16
 146 -90 146 -90 190 -90 c 0,0,1
EndSplineSet
EndChar

StartChar: tilde
Encoding: 732 732 211
Width: 333
GlyphClass: 2
Flags: W
HStem: 576 103<191.82 321.597> 616 103<58.4033 187.054>
VStem: -32 81<576 607.335> 331 81<687.665 719>
LayerCount: 2
Fore
SplineSet
-32 576 m 1,0,1
 -32 630.263157895 -32 630.263157895 9 674.5 c 0,2,3
 50.243902439 719 50.243902439 719 108 719 c 0,4,5
 139.733333333 719 139.733333333 719 179.866666667 705 c 128,-1,6
 220 691 220 691 240.5 685 c 128,-1,7
 261 679 261 679 280.5 679 c 128,-1,8
 300 679 300 679 313 690.5 c 128,-1,9
 326 702 326 702 331 719 c 1,10,-1
 412 719 l 1,11,12
 412 664.736842105 412 664.736842105 371 620.5 c 0,13,14
 329.756097561 576 329.756097561 576 272 576 c 0,15,16
 234.5 576 234.5 576 182 596 c 1,17,-1
 140 610 l 2,18,19
 119 616 119 616 99.5 616 c 128,-1,20
 80 616 80 616 67 604.5 c 128,-1,21
 54 593 54 593 49 576 c 1,22,-1
 -32 576 l 1,0,1
EndSplineSet
EndChar

StartChar: hungarumlaut
Encoding: 733 733 212
Width: 555
GlyphClass: 2
Flags: W
HStem: 575 145<133 160 360 387>
LayerCount: 2
Fore
SplineSet
42 575 m 1,0,-1
 133 720 l 1,1,-1
 284 720 l 1,2,-1
 286 717 l 1,3,-1
 160 575 l 1,4,-1
 42 575 l 1,0,-1
269 575 m 1,5,-1
 360 720 l 1,6,-1
 511 720 l 1,7,-1
 513 717 l 1,8,-1
 387 575 l 1,9,-1
 269 575 l 1,5,-1
EndSplineSet
EndChar

StartChar: pi
Encoding: 960 960 213
Width: 717
GlyphClass: 2
Flags: W
HStem: 0 21G<72 266.5 435 632> 386 125<34.3396 138 327 425 618 696>
VStem: 138 189<179.522 386> 425 193<2.1936 386>
LayerCount: 2
Fore
SplineSet
445 0 m 1,0,1
 425 25.4545454545 425 25.4545454545 425 153 c 2,2,-1
 425 386 l 1,3,-1
 327 386 l 1,4,5
 319.115473441 212.540415704 319.115473441 212.540415704 285 77.5 c 0,6,7
 273 30 273 30 260 0 c 1,8,-1
 72 0 l 1,9,10
 114.220588235 126.661764706 114.220588235 126.661764706 132.5 294.5 c 0,11,12
 138 345 138 345 138 386 c 1,13,14
 66 386 66 386 25 376 c 1,15,-1
 9 475 l 1,16,17
 51.3529411765 511 51.3529411765 511 219 511 c 2,18,-1
 710 511 l 1,19,-1
 696 386 l 1,20,-1
 618 386 l 1,21,-1
 618 165 l 2,22,23
 618 70 618 70 632 0 c 1,24,-1
 445 0 l 1,0,1
EndSplineSet
EndChar

StartChar: uni2010
Encoding: 8208 8208 225
Width: 352
GlyphClass: 2
Flags: W
HStem: 196 158<49 303>
VStem: 49 254<196 354>
LayerCount: 2
Fore
SplineSet
49 196 m 1,0,-1
 49 354 l 1,1,-1
 303 354 l 1,2,-1
 303 196 l 1,3,-1
 49 196 l 1,0,-1
EndSplineSet
EndChar

StartChar: uni2011
Encoding: 8209 8209 226
Width: 352
GlyphClass: 2
Flags: W
HStem: 196 158<49 303>
VStem: 49 254<196 354>
LayerCount: 2
Fore
SplineSet
49 196 m 1,0,-1
 49 354 l 1,1,-1
 303 354 l 1,2,-1
 303 196 l 1,3,-1
 49 196 l 1,0,-1
EndSplineSet
EndChar

StartChar: figuredash
Encoding: 8210 8210 227
Width: 254
GlyphClass: 2
Flags: W
HStem: 196 158<0 254>
VStem: 0 254<196 354>
LayerCount: 2
Fore
SplineSet
0 196 m 1,0,-1
 0 354 l 1,1,-1
 254 354 l 1,2,-1
 254 196 l 1,3,-1
 0 196 l 1,0,-1
EndSplineSet
EndChar

StartChar: endash
Encoding: 8211 8211 228
Width: 598
GlyphClass: 2
Flags: W
HStem: 196 158<49 549>
LayerCount: 2
Fore
SplineSet
49 196 m 1,0,-1
 49 354 l 1,1,-1
 549 354 l 1,2,-1
 549 196 l 1,3,-1
 49 196 l 1,0,-1
EndSplineSet
EndChar

StartChar: emdash
Encoding: 8212 8212 229
Width: 1008
GlyphClass: 2
Flags: W
HStem: 196 158<49 959>
LayerCount: 2
Fore
SplineSet
49 196 m 1,0,-1
 49 354 l 1,1,-1
 959 354 l 1,2,-1
 959 196 l 1,3,-1
 49 196 l 1,0,-1
EndSplineSet
EndChar

StartChar: quoteleft
Encoding: 8216 8216 230
Width: 273
GlyphClass: 2
Flags: W
HStem: 666 20G<86.6524 186>
VStem: 42 191<338 521>
LayerCount: 2
Fore
SplineSet
42 338 m 1,0,-1
 42 499 l 1,1,-1
 92 686 l 1,2,-1
 186 686 l 1,3,-1
 149 521 l 1,4,-1
 233 521 l 1,5,-1
 233 338 l 1,6,-1
 42 338 l 1,0,-1
EndSplineSet
EndChar

StartChar: quoteright
Encoding: 8217 8217 231
Width: 266
GlyphClass: 2
Flags: W
HStem: 666 20G<37 228>
VStem: 37 191<503 686>
LayerCount: 2
Fore
SplineSet
37 503 m 1,0,-1
 37 686 l 1,1,-1
 228 686 l 1,2,-1
 228 525 l 1,3,-1
 178 338 l 1,4,-1
 84 338 l 1,5,-1
 121 503 l 1,6,-1
 37 503 l 1,0,-1
EndSplineSet
EndChar

StartChar: quotesinglbase
Encoding: 8218 8218 232
Width: 287
GlyphClass: 2
Flags: W
VStem: 48 191<0 183>
LayerCount: 2
Fore
SplineSet
48 0 m 1,0,-1
 48 183 l 1,1,-1
 239 183 l 1,2,-1
 239 22 l 1,3,-1
 189 -165 l 1,4,-1
 95 -165 l 1,5,-1
 132 0 l 1,6,-1
 48 0 l 1,0,-1
EndSplineSet
EndChar

StartChar: quotedblleft
Encoding: 8220 8220 233
Width: 514
GlyphClass: 2
Flags: W
HStem: 503 183<145 229 393 477>
VStem: 38 191<503 686> 286 191<503 686>
LayerCount: 2
Fore
SplineSet
38 525 m 1,0,-1
 38 686 l 1,1,-1
 229 686 l 1,2,-1
 229 503 l 1,3,-1
 145 503 l 1,4,-1
 182 338 l 1,5,-1
 88 338 l 1,6,-1
 38 525 l 1,0,-1
286 525 m 1,7,-1
 286 686 l 1,8,-1
 477 686 l 1,9,-1
 477 503 l 1,10,-1
 393 503 l 1,11,-1
 430 338 l 1,12,-1
 336 338 l 1,13,-1
 286 525 l 1,7,-1
EndSplineSet
EndChar

StartChar: quotedblright
Encoding: 8221 8221 234
Width: 514
GlyphClass: 2
Flags: W
HStem: 503 183<37 121 285 369>
VStem: 37 191<503 686> 285 191<503 686>
LayerCount: 2
Fore
SplineSet
37 503 m 1,0,-1
 37 686 l 1,1,-1
 228 686 l 1,2,-1
 228 525 l 1,3,-1
 178 338 l 1,4,-1
 84 338 l 1,5,-1
 121 503 l 1,6,-1
 37 503 l 1,0,-1
285 503 m 1,7,-1
 285 686 l 1,8,-1
 476 686 l 1,9,-1
 476 525 l 1,10,-1
 426 338 l 1,11,-1
 332 338 l 1,12,-1
 369 503 l 1,13,-1
 285 503 l 1,7,-1
EndSplineSet
EndChar

StartChar: quotedblbase
Encoding: 8222 8222 235
Width: 535
GlyphClass: 2
Flags: W
HStem: 0 183<48 132 296 380>
VStem: 48 191<0 183> 296 191<0 183>
LayerCount: 2
Fore
SplineSet
48 0 m 1,0,-1
 48 183 l 1,1,-1
 239 183 l 1,2,-1
 239 22 l 1,3,-1
 189 -165 l 1,4,-1
 95 -165 l 1,5,-1
 132 0 l 1,6,-1
 48 0 l 1,0,-1
296 0 m 1,7,-1
 296 183 l 1,8,-1
 487 183 l 1,9,-1
 487 22 l 1,10,-1
 437 -165 l 1,11,-1
 343 -165 l 1,12,-1
 380 0 l 1,13,-1
 296 0 l 1,7,-1
EndSplineSet
EndChar

StartChar: dagger
Encoding: 8224 8224 236
Width: 569
GlyphClass: 2
Flags: W
HStem: 490 20G<25 233 336 544> 666 20G<213 356>
VStem: 213 143<-161 31.15> 233 103<195.85 388>
LayerCount: 2
Fore
SplineSet
25 368 m 1,0,-1
 25 510 l 1,1,-1
 233 490 l 1,2,-1
 213 686 l 1,3,-1
 356 686 l 1,4,-1
 336 490 l 1,5,-1
 544 510 l 1,6,-1
 544 368 l 1,7,-1
 336 388 l 1,8,-1
 356 -161 l 1,9,-1
 213 -161 l 1,10,-1
 233 388 l 1,11,-1
 25 368 l 1,0,-1
EndSplineSet
EndChar

StartChar: daggerdbl
Encoding: 8225 8225 237
Width: 591
GlyphClass: 2
Flags: W
HStem: 490 20G<36 244 347 555> 666 20G<224 367>
LayerCount: 2
Fore
SplineSet
36 2 m 1,0,-1
 36 144 l 1,1,-1
 244 124 l 1,2,-1
 224 257 l 1,3,-1
 244 388 l 1,4,-1
 36 368 l 1,5,-1
 36 510 l 1,6,-1
 244 490 l 1,7,-1
 224 686 l 1,8,-1
 367 686 l 1,9,-1
 347 490 l 1,10,-1
 555 510 l 1,11,-1
 555 368 l 1,12,-1
 347 388 l 1,13,-1
 367 257 l 1,14,-1
 347 124 l 1,15,-1
 555 144 l 1,16,-1
 555 2 l 1,17,-1
 347 22 l 1,18,-1
 367 -175 l 1,19,-1
 224 -175 l 1,20,-1
 244 22 l 1,21,-1
 36 2 l 1,0,-1
EndSplineSet
EndChar

StartChar: bullet
Encoding: 8226 8226 238
Width: 600
GlyphClass: 2
Flags: W
HStem: 171 343<214.856 383.094>
VStem: 128 343<258.906 427.144>
LayerCount: 2
Fore
SplineSet
128 343 m 256,0,1
 128 414 128 414 178 464 c 128,-1,2
 228 514 228 514 299 514 c 256,3,4
 369.413043478 514 369.413043478 514 420.5 464 c 0,5,6
 471 414.574468085 471 414.574468085 471 343 c 256,7,8
 471 272 471 272 420.5 221.5 c 128,-1,9
 370 171 370 171 299 171 c 256,10,11
 227.425531915 171 227.425531915 171 178 221.5 c 0,12,13
 128 272.586956522 128 272.586956522 128 343 c 256,0,1
EndSplineSet
EndChar

StartChar: ellipsis
Encoding: 8230 8230 239
Width: 953
GlyphClass: 2
Flags: W
HStem: 0 183<48 239 381 572 714 905>
VStem: 48 191<0 183> 381 191<0 183> 714 191<0 183>
CounterMasks: 1 70
LayerCount: 2
Fore
SplineSet
48 0 m 1,0,-1
 48 183 l 1,1,-1
 239 183 l 1,2,-1
 239 0 l 1,3,-1
 48 0 l 1,0,-1
381 0 m 1,4,-1
 381 183 l 1,5,-1
 572 183 l 1,6,-1
 572 0 l 1,7,-1
 381 0 l 1,4,-1
714 0 m 1,8,-1
 714 183 l 1,9,-1
 905 183 l 1,10,-1
 905 0 l 1,11,-1
 714 0 l 1,8,-1
EndSplineSet
EndChar

